%TF.GenerationSoftware,KiCad,Pcbnew,8.0.4*%
%TF.CreationDate,2024-12-08T23:45:12+08:00*%
%TF.ProjectId,funHomeSwitch,66756e48-6f6d-4655-9377-697463682e6b,rev?*%
%TF.SameCoordinates,Original*%
%TF.FileFunction,Legend,Top*%
%TF.FilePolarity,Positive*%
%FSLAX46Y46*%
G04 Gerber Fmt 4.6, Leading zero omitted, Abs format (unit mm)*
G04 Created by KiCad (PCBNEW 8.0.4) date 2024-12-08 23:45:12*
%MOMM*%
%LPD*%
G01*
G04 APERTURE LIST*
%ADD10C,0.100000*%
%ADD11C,0.150000*%
%ADD12C,0.120000*%
%ADD13C,0.127000*%
%ADD14C,0.200000*%
G04 APERTURE END LIST*
D10*
X187575000Y-91450000D02*
X187575000Y-91450000D01*
X187975000Y-91450000D02*
X187975000Y-91450000D01*
X188375000Y-91450000D02*
X188375000Y-91450000D01*
X188775000Y-91450000D02*
X188775000Y-91450000D01*
X189175000Y-91450000D02*
X189175000Y-91450000D01*
X189575000Y-91450000D02*
X189575000Y-91450000D01*
X189975000Y-91450000D02*
X189975000Y-91450000D01*
X190375000Y-91450000D02*
X190375000Y-91450000D01*
X190775000Y-91450000D02*
X190775000Y-91450000D01*
X191175000Y-91450000D02*
X191175000Y-91450000D01*
X191575000Y-91450000D02*
X191575000Y-91450000D01*
X191975000Y-91450000D02*
X191975000Y-91450000D01*
X192375000Y-91450000D02*
X192375000Y-91450000D01*
X192775000Y-91450000D02*
X192775000Y-91450000D01*
X193175000Y-91450000D02*
X193175000Y-91450000D01*
X193575000Y-91450000D02*
X193575000Y-91450000D01*
X193975000Y-91450000D02*
X193975000Y-91450000D01*
X194375000Y-91450000D02*
X194375000Y-91450000D01*
X194775000Y-91450000D02*
X194775000Y-91450000D01*
X195175000Y-91450000D02*
X195175000Y-91450000D01*
X195575000Y-91450000D02*
X195575000Y-91450000D01*
X195975000Y-91450000D02*
X195975000Y-91450000D01*
X196375000Y-91450000D02*
X196375000Y-91450000D01*
X196775000Y-91450000D02*
X196775000Y-91450000D01*
X197175000Y-91450000D02*
X197175000Y-91450000D01*
X197575000Y-91450000D02*
X197575000Y-91450000D01*
X197975000Y-91450000D02*
X197975000Y-91450000D01*
X198375000Y-91450000D02*
X198375000Y-91450000D01*
X198775000Y-91450000D02*
X198775000Y-91450000D01*
X199175000Y-91450000D02*
X199175000Y-91450000D01*
X199575000Y-91450000D02*
X199575000Y-91450000D01*
X199975000Y-91450000D02*
X199975000Y-91450000D01*
X200375000Y-91450000D02*
X200375000Y-91450000D01*
X200775000Y-91450000D02*
X200775000Y-91450000D01*
X201175000Y-91450000D02*
X201175000Y-91450000D01*
X201575000Y-91450000D02*
X201575000Y-91450000D01*
X201975000Y-91450000D02*
X201975000Y-91450000D01*
X202375000Y-91450000D02*
X202375000Y-91450000D01*
X202775000Y-91450000D02*
X202775000Y-91450000D01*
X203175000Y-91450000D02*
X203175000Y-91450000D01*
X203575000Y-91450000D02*
X203575000Y-91450000D01*
X203975000Y-91450000D02*
X203975000Y-91450000D01*
X204375000Y-91450000D02*
X204375000Y-91450000D01*
X204775000Y-91450000D02*
X204775000Y-91450000D01*
X205175000Y-91450000D02*
X205175000Y-91450000D01*
X205575000Y-91450000D02*
X205575000Y-91450000D01*
X205975000Y-91450000D02*
X205975000Y-91450000D01*
X206375000Y-91450000D02*
X206375000Y-91450000D01*
X206775000Y-91450000D02*
X206775000Y-91450000D01*
X207175000Y-91450000D02*
X207175000Y-91450000D01*
X207575000Y-91450000D02*
X207575000Y-91450000D01*
X207975000Y-91450000D02*
X207975000Y-91450000D01*
X208375000Y-91450000D02*
X208375000Y-91450000D01*
X208775000Y-91450000D02*
X208775000Y-91450000D01*
X209175000Y-91450000D02*
X209175000Y-91450000D01*
X209575000Y-91450000D02*
X209575000Y-91450000D01*
X209975000Y-91450000D02*
X209975000Y-91450000D01*
X210375000Y-91450000D02*
X210375000Y-91450000D01*
X210775000Y-91450000D02*
X210775000Y-91450000D01*
X211175000Y-91450000D02*
X211175000Y-91450000D01*
X211575000Y-91450000D02*
X211575000Y-91450000D01*
X211975000Y-91450000D02*
X211975000Y-91450000D01*
X212375000Y-91450000D02*
X212375000Y-91450000D01*
X212775000Y-91450000D02*
X212775000Y-91450000D01*
X213175000Y-91450000D02*
X213175000Y-91450000D01*
X213575000Y-91450000D02*
X213575000Y-91450000D01*
X213975000Y-91450000D02*
X213975000Y-91450000D01*
X214375000Y-91450000D02*
X214375000Y-91450000D01*
X214775000Y-91450000D02*
X214775000Y-91450000D01*
X187575000Y-65450000D02*
X187575000Y-65450000D01*
X187975000Y-65450000D02*
X187975000Y-65450000D01*
X188375000Y-65450000D02*
X188375000Y-65450000D01*
X188775000Y-65450000D02*
X188775000Y-65450000D01*
X189175000Y-65450000D02*
X189175000Y-65450000D01*
X189575000Y-65450000D02*
X189575000Y-65450000D01*
X189975000Y-65450000D02*
X189975000Y-65450000D01*
X190375000Y-65450000D02*
X190375000Y-65450000D01*
X190775000Y-65450000D02*
X190775000Y-65450000D01*
X191175000Y-65450000D02*
X191175000Y-65450000D01*
X191575000Y-65450000D02*
X191575000Y-65450000D01*
X191975000Y-65450000D02*
X191975000Y-65450000D01*
X192375000Y-65450000D02*
X192375000Y-65450000D01*
X192775000Y-65450000D02*
X192775000Y-65450000D01*
X193175000Y-65450000D02*
X193175000Y-65450000D01*
X193575000Y-65450000D02*
X193575000Y-65450000D01*
X193975000Y-65450000D02*
X193975000Y-65450000D01*
X194375000Y-65450000D02*
X194375000Y-65450000D01*
X194775000Y-65450000D02*
X194775000Y-65450000D01*
X195175000Y-65450000D02*
X195175000Y-65450000D01*
X195575000Y-65450000D02*
X195575000Y-65450000D01*
X195975000Y-65450000D02*
X195975000Y-65450000D01*
X196375000Y-65450000D02*
X196375000Y-65450000D01*
X196775000Y-65450000D02*
X196775000Y-65450000D01*
X197175000Y-65450000D02*
X197175000Y-65450000D01*
X197575000Y-65450000D02*
X197575000Y-65450000D01*
X197975000Y-65450000D02*
X197975000Y-65450000D01*
X198375000Y-65450000D02*
X198375000Y-65450000D01*
X198775000Y-65450000D02*
X198775000Y-65450000D01*
X199175000Y-65450000D02*
X199175000Y-65450000D01*
X199575000Y-65450000D02*
X199575000Y-65450000D01*
X199975000Y-65450000D02*
X199975000Y-65450000D01*
X200375000Y-65450000D02*
X200375000Y-65450000D01*
X200775000Y-65450000D02*
X200775000Y-65450000D01*
X201175000Y-65450000D02*
X201175000Y-65450000D01*
X201575000Y-65450000D02*
X201575000Y-65450000D01*
X201975000Y-65450000D02*
X201975000Y-65450000D01*
X202375000Y-65450000D02*
X202375000Y-65450000D01*
X202775000Y-65450000D02*
X202775000Y-65450000D01*
X203175000Y-65450000D02*
X203175000Y-65450000D01*
X203575000Y-65450000D02*
X203575000Y-65450000D01*
X203975000Y-65450000D02*
X203975000Y-65450000D01*
X204375000Y-65450000D02*
X204375000Y-65450000D01*
X204775000Y-65450000D02*
X204775000Y-65450000D01*
X205175000Y-65450000D02*
X205175000Y-65450000D01*
X205575000Y-65450000D02*
X205575000Y-65450000D01*
X205975000Y-65450000D02*
X205975000Y-65450000D01*
X206375000Y-65450000D02*
X206375000Y-65450000D01*
X206775000Y-65450000D02*
X206775000Y-65450000D01*
X207175000Y-65450000D02*
X207175000Y-65450000D01*
X207575000Y-65450000D02*
X207575000Y-65450000D01*
X207975000Y-65450000D02*
X207975000Y-65450000D01*
X208375000Y-65450000D02*
X208375000Y-65450000D01*
X208775000Y-65450000D02*
X208775000Y-65450000D01*
X209175000Y-65450000D02*
X209175000Y-65450000D01*
X209575000Y-65450000D02*
X209575000Y-65450000D01*
X209975000Y-65450000D02*
X209975000Y-65450000D01*
X210375000Y-65450000D02*
X210375000Y-65450000D01*
X210775000Y-65450000D02*
X210775000Y-65450000D01*
X211175000Y-65450000D02*
X211175000Y-65450000D01*
X211575000Y-65450000D02*
X211575000Y-65450000D01*
X211975000Y-65450000D02*
X211975000Y-65450000D01*
X212375000Y-65450000D02*
X212375000Y-65450000D01*
X212775000Y-65450000D02*
X212775000Y-65450000D01*
X213175000Y-65450000D02*
X213175000Y-65450000D01*
X213575000Y-65450000D02*
X213575000Y-65450000D01*
X213975000Y-65450000D02*
X213975000Y-65450000D01*
X214375000Y-65450000D02*
X214375000Y-65450000D01*
X214775000Y-65450000D02*
X214775000Y-65450000D01*
D11*
X198637628Y-66044999D02*
X198666200Y-66073571D01*
X198666200Y-66073571D02*
X198694771Y-66159285D01*
X198694771Y-66159285D02*
X198694771Y-66216428D01*
X198694771Y-66216428D02*
X198666200Y-66302142D01*
X198666200Y-66302142D02*
X198609057Y-66359285D01*
X198609057Y-66359285D02*
X198551914Y-66387856D01*
X198551914Y-66387856D02*
X198437628Y-66416428D01*
X198437628Y-66416428D02*
X198351914Y-66416428D01*
X198351914Y-66416428D02*
X198237628Y-66387856D01*
X198237628Y-66387856D02*
X198180485Y-66359285D01*
X198180485Y-66359285D02*
X198123342Y-66302142D01*
X198123342Y-66302142D02*
X198094771Y-66216428D01*
X198094771Y-66216428D02*
X198094771Y-66159285D01*
X198094771Y-66159285D02*
X198123342Y-66073571D01*
X198123342Y-66073571D02*
X198151914Y-66044999D01*
X198294771Y-65530714D02*
X198694771Y-65530714D01*
X198066200Y-65673571D02*
X198494771Y-65816428D01*
X198494771Y-65816428D02*
X198494771Y-65444999D01*
X207619771Y-65874999D02*
X207334057Y-66074999D01*
X207619771Y-66217856D02*
X207019771Y-66217856D01*
X207019771Y-66217856D02*
X207019771Y-65989285D01*
X207019771Y-65989285D02*
X207048342Y-65932142D01*
X207048342Y-65932142D02*
X207076914Y-65903571D01*
X207076914Y-65903571D02*
X207134057Y-65874999D01*
X207134057Y-65874999D02*
X207219771Y-65874999D01*
X207219771Y-65874999D02*
X207276914Y-65903571D01*
X207276914Y-65903571D02*
X207305485Y-65932142D01*
X207305485Y-65932142D02*
X207334057Y-65989285D01*
X207334057Y-65989285D02*
X207334057Y-66217856D01*
X207619771Y-65589285D02*
X207619771Y-65474999D01*
X207619771Y-65474999D02*
X207591200Y-65417856D01*
X207591200Y-65417856D02*
X207562628Y-65389285D01*
X207562628Y-65389285D02*
X207476914Y-65332142D01*
X207476914Y-65332142D02*
X207362628Y-65303571D01*
X207362628Y-65303571D02*
X207134057Y-65303571D01*
X207134057Y-65303571D02*
X207076914Y-65332142D01*
X207076914Y-65332142D02*
X207048342Y-65360714D01*
X207048342Y-65360714D02*
X207019771Y-65417856D01*
X207019771Y-65417856D02*
X207019771Y-65532142D01*
X207019771Y-65532142D02*
X207048342Y-65589285D01*
X207048342Y-65589285D02*
X207076914Y-65617856D01*
X207076914Y-65617856D02*
X207134057Y-65646428D01*
X207134057Y-65646428D02*
X207276914Y-65646428D01*
X207276914Y-65646428D02*
X207334057Y-65617856D01*
X207334057Y-65617856D02*
X207362628Y-65589285D01*
X207362628Y-65589285D02*
X207391200Y-65532142D01*
X207391200Y-65532142D02*
X207391200Y-65417856D01*
X207391200Y-65417856D02*
X207362628Y-65360714D01*
X207362628Y-65360714D02*
X207334057Y-65332142D01*
X207334057Y-65332142D02*
X207276914Y-65303571D01*
X206594771Y-81449999D02*
X206309057Y-81649999D01*
X206594771Y-81792856D02*
X205994771Y-81792856D01*
X205994771Y-81792856D02*
X205994771Y-81564285D01*
X205994771Y-81564285D02*
X206023342Y-81507142D01*
X206023342Y-81507142D02*
X206051914Y-81478571D01*
X206051914Y-81478571D02*
X206109057Y-81449999D01*
X206109057Y-81449999D02*
X206194771Y-81449999D01*
X206194771Y-81449999D02*
X206251914Y-81478571D01*
X206251914Y-81478571D02*
X206280485Y-81507142D01*
X206280485Y-81507142D02*
X206309057Y-81564285D01*
X206309057Y-81564285D02*
X206309057Y-81792856D01*
X205994771Y-81249999D02*
X205994771Y-80849999D01*
X205994771Y-80849999D02*
X206594771Y-81107142D01*
X195039414Y-68419642D02*
X195010842Y-68476785D01*
X195010842Y-68476785D02*
X194953700Y-68533928D01*
X194953700Y-68533928D02*
X194867985Y-68619642D01*
X194867985Y-68619642D02*
X194839414Y-68676785D01*
X194839414Y-68676785D02*
X194839414Y-68733928D01*
X194982271Y-68705357D02*
X194953700Y-68762500D01*
X194953700Y-68762500D02*
X194896557Y-68819642D01*
X194896557Y-68819642D02*
X194782271Y-68848214D01*
X194782271Y-68848214D02*
X194582271Y-68848214D01*
X194582271Y-68848214D02*
X194467985Y-68819642D01*
X194467985Y-68819642D02*
X194410842Y-68762500D01*
X194410842Y-68762500D02*
X194382271Y-68705357D01*
X194382271Y-68705357D02*
X194382271Y-68591071D01*
X194382271Y-68591071D02*
X194410842Y-68533928D01*
X194410842Y-68533928D02*
X194467985Y-68476785D01*
X194467985Y-68476785D02*
X194582271Y-68448214D01*
X194582271Y-68448214D02*
X194782271Y-68448214D01*
X194782271Y-68448214D02*
X194896557Y-68476785D01*
X194896557Y-68476785D02*
X194953700Y-68533928D01*
X194953700Y-68533928D02*
X194982271Y-68591071D01*
X194982271Y-68591071D02*
X194982271Y-68705357D01*
X194982271Y-67876786D02*
X194982271Y-68219643D01*
X194982271Y-68048214D02*
X194382271Y-68048214D01*
X194382271Y-68048214D02*
X194467985Y-68105357D01*
X194467985Y-68105357D02*
X194525128Y-68162500D01*
X194525128Y-68162500D02*
X194553700Y-68219643D01*
X205744771Y-85242856D02*
X205144771Y-85242856D01*
X205144771Y-85242856D02*
X205144771Y-85099999D01*
X205144771Y-85099999D02*
X205173342Y-85014285D01*
X205173342Y-85014285D02*
X205230485Y-84957142D01*
X205230485Y-84957142D02*
X205287628Y-84928571D01*
X205287628Y-84928571D02*
X205401914Y-84899999D01*
X205401914Y-84899999D02*
X205487628Y-84899999D01*
X205487628Y-84899999D02*
X205601914Y-84928571D01*
X205601914Y-84928571D02*
X205659057Y-84957142D01*
X205659057Y-84957142D02*
X205716200Y-85014285D01*
X205716200Y-85014285D02*
X205744771Y-85099999D01*
X205744771Y-85099999D02*
X205744771Y-85242856D01*
X205744771Y-84328571D02*
X205744771Y-84671428D01*
X205744771Y-84499999D02*
X205144771Y-84499999D01*
X205144771Y-84499999D02*
X205230485Y-84557142D01*
X205230485Y-84557142D02*
X205287628Y-84614285D01*
X205287628Y-84614285D02*
X205316200Y-84671428D01*
X202312628Y-90774999D02*
X202341200Y-90803571D01*
X202341200Y-90803571D02*
X202369771Y-90889285D01*
X202369771Y-90889285D02*
X202369771Y-90946428D01*
X202369771Y-90946428D02*
X202341200Y-91032142D01*
X202341200Y-91032142D02*
X202284057Y-91089285D01*
X202284057Y-91089285D02*
X202226914Y-91117856D01*
X202226914Y-91117856D02*
X202112628Y-91146428D01*
X202112628Y-91146428D02*
X202026914Y-91146428D01*
X202026914Y-91146428D02*
X201912628Y-91117856D01*
X201912628Y-91117856D02*
X201855485Y-91089285D01*
X201855485Y-91089285D02*
X201798342Y-91032142D01*
X201798342Y-91032142D02*
X201769771Y-90946428D01*
X201769771Y-90946428D02*
X201769771Y-90889285D01*
X201769771Y-90889285D02*
X201798342Y-90803571D01*
X201798342Y-90803571D02*
X201826914Y-90774999D01*
X201826914Y-90546428D02*
X201798342Y-90517856D01*
X201798342Y-90517856D02*
X201769771Y-90460714D01*
X201769771Y-90460714D02*
X201769771Y-90317856D01*
X201769771Y-90317856D02*
X201798342Y-90260714D01*
X201798342Y-90260714D02*
X201826914Y-90232142D01*
X201826914Y-90232142D02*
X201884057Y-90203571D01*
X201884057Y-90203571D02*
X201941200Y-90203571D01*
X201941200Y-90203571D02*
X202026914Y-90232142D01*
X202026914Y-90232142D02*
X202369771Y-90574999D01*
X202369771Y-90574999D02*
X202369771Y-90203571D01*
X204894771Y-86149999D02*
X204609057Y-86349999D01*
X204894771Y-86492856D02*
X204294771Y-86492856D01*
X204294771Y-86492856D02*
X204294771Y-86264285D01*
X204294771Y-86264285D02*
X204323342Y-86207142D01*
X204323342Y-86207142D02*
X204351914Y-86178571D01*
X204351914Y-86178571D02*
X204409057Y-86149999D01*
X204409057Y-86149999D02*
X204494771Y-86149999D01*
X204494771Y-86149999D02*
X204551914Y-86178571D01*
X204551914Y-86178571D02*
X204580485Y-86207142D01*
X204580485Y-86207142D02*
X204609057Y-86264285D01*
X204609057Y-86264285D02*
X204609057Y-86492856D01*
X204294771Y-85949999D02*
X204294771Y-85578571D01*
X204294771Y-85578571D02*
X204523342Y-85778571D01*
X204523342Y-85778571D02*
X204523342Y-85692856D01*
X204523342Y-85692856D02*
X204551914Y-85635714D01*
X204551914Y-85635714D02*
X204580485Y-85607142D01*
X204580485Y-85607142D02*
X204637628Y-85578571D01*
X204637628Y-85578571D02*
X204780485Y-85578571D01*
X204780485Y-85578571D02*
X204837628Y-85607142D01*
X204837628Y-85607142D02*
X204866200Y-85635714D01*
X204866200Y-85635714D02*
X204894771Y-85692856D01*
X204894771Y-85692856D02*
X204894771Y-85864285D01*
X204894771Y-85864285D02*
X204866200Y-85921428D01*
X204866200Y-85921428D02*
X204837628Y-85949999D01*
X212162628Y-88110714D02*
X212191200Y-88139286D01*
X212191200Y-88139286D02*
X212219771Y-88225000D01*
X212219771Y-88225000D02*
X212219771Y-88282143D01*
X212219771Y-88282143D02*
X212191200Y-88367857D01*
X212191200Y-88367857D02*
X212134057Y-88425000D01*
X212134057Y-88425000D02*
X212076914Y-88453571D01*
X212076914Y-88453571D02*
X211962628Y-88482143D01*
X211962628Y-88482143D02*
X211876914Y-88482143D01*
X211876914Y-88482143D02*
X211762628Y-88453571D01*
X211762628Y-88453571D02*
X211705485Y-88425000D01*
X211705485Y-88425000D02*
X211648342Y-88367857D01*
X211648342Y-88367857D02*
X211619771Y-88282143D01*
X211619771Y-88282143D02*
X211619771Y-88225000D01*
X211619771Y-88225000D02*
X211648342Y-88139286D01*
X211648342Y-88139286D02*
X211676914Y-88110714D01*
X212219771Y-87539286D02*
X212219771Y-87882143D01*
X212219771Y-87710714D02*
X211619771Y-87710714D01*
X211619771Y-87710714D02*
X211705485Y-87767857D01*
X211705485Y-87767857D02*
X211762628Y-87825000D01*
X211762628Y-87825000D02*
X211791200Y-87882143D01*
X211676914Y-87310714D02*
X211648342Y-87282142D01*
X211648342Y-87282142D02*
X211619771Y-87225000D01*
X211619771Y-87225000D02*
X211619771Y-87082142D01*
X211619771Y-87082142D02*
X211648342Y-87025000D01*
X211648342Y-87025000D02*
X211676914Y-86996428D01*
X211676914Y-86996428D02*
X211734057Y-86967857D01*
X211734057Y-86967857D02*
X211791200Y-86967857D01*
X211791200Y-86967857D02*
X211876914Y-86996428D01*
X211876914Y-86996428D02*
X212219771Y-87339285D01*
X212219771Y-87339285D02*
X212219771Y-86967857D01*
X201462628Y-90749999D02*
X201491200Y-90778571D01*
X201491200Y-90778571D02*
X201519771Y-90864285D01*
X201519771Y-90864285D02*
X201519771Y-90921428D01*
X201519771Y-90921428D02*
X201491200Y-91007142D01*
X201491200Y-91007142D02*
X201434057Y-91064285D01*
X201434057Y-91064285D02*
X201376914Y-91092856D01*
X201376914Y-91092856D02*
X201262628Y-91121428D01*
X201262628Y-91121428D02*
X201176914Y-91121428D01*
X201176914Y-91121428D02*
X201062628Y-91092856D01*
X201062628Y-91092856D02*
X201005485Y-91064285D01*
X201005485Y-91064285D02*
X200948342Y-91007142D01*
X200948342Y-91007142D02*
X200919771Y-90921428D01*
X200919771Y-90921428D02*
X200919771Y-90864285D01*
X200919771Y-90864285D02*
X200948342Y-90778571D01*
X200948342Y-90778571D02*
X200976914Y-90749999D01*
X201519771Y-90178571D02*
X201519771Y-90521428D01*
X201519771Y-90349999D02*
X200919771Y-90349999D01*
X200919771Y-90349999D02*
X201005485Y-90407142D01*
X201005485Y-90407142D02*
X201062628Y-90464285D01*
X201062628Y-90464285D02*
X201091200Y-90521428D01*
X202144771Y-65730356D02*
X201544771Y-65730356D01*
X201544771Y-65730356D02*
X201544771Y-65587499D01*
X201544771Y-65587499D02*
X201573342Y-65501785D01*
X201573342Y-65501785D02*
X201630485Y-65444642D01*
X201630485Y-65444642D02*
X201687628Y-65416071D01*
X201687628Y-65416071D02*
X201801914Y-65387499D01*
X201801914Y-65387499D02*
X201887628Y-65387499D01*
X201887628Y-65387499D02*
X202001914Y-65416071D01*
X202001914Y-65416071D02*
X202059057Y-65444642D01*
X202059057Y-65444642D02*
X202116200Y-65501785D01*
X202116200Y-65501785D02*
X202144771Y-65587499D01*
X202144771Y-65587499D02*
X202144771Y-65730356D01*
X201544771Y-65187499D02*
X201544771Y-64816071D01*
X201544771Y-64816071D02*
X201773342Y-65016071D01*
X201773342Y-65016071D02*
X201773342Y-64930356D01*
X201773342Y-64930356D02*
X201801914Y-64873214D01*
X201801914Y-64873214D02*
X201830485Y-64844642D01*
X201830485Y-64844642D02*
X201887628Y-64816071D01*
X201887628Y-64816071D02*
X202030485Y-64816071D01*
X202030485Y-64816071D02*
X202087628Y-64844642D01*
X202087628Y-64844642D02*
X202116200Y-64873214D01*
X202116200Y-64873214D02*
X202144771Y-64930356D01*
X202144771Y-64930356D02*
X202144771Y-65101785D01*
X202144771Y-65101785D02*
X202116200Y-65158928D01*
X202116200Y-65158928D02*
X202087628Y-65187499D01*
X209079771Y-69632142D02*
X209565485Y-69632142D01*
X209565485Y-69632142D02*
X209622628Y-69603571D01*
X209622628Y-69603571D02*
X209651200Y-69575000D01*
X209651200Y-69575000D02*
X209679771Y-69517857D01*
X209679771Y-69517857D02*
X209679771Y-69403571D01*
X209679771Y-69403571D02*
X209651200Y-69346428D01*
X209651200Y-69346428D02*
X209622628Y-69317857D01*
X209622628Y-69317857D02*
X209565485Y-69289285D01*
X209565485Y-69289285D02*
X209079771Y-69289285D01*
X209079771Y-69060714D02*
X209079771Y-68689286D01*
X209079771Y-68689286D02*
X209308342Y-68889286D01*
X209308342Y-68889286D02*
X209308342Y-68803571D01*
X209308342Y-68803571D02*
X209336914Y-68746429D01*
X209336914Y-68746429D02*
X209365485Y-68717857D01*
X209365485Y-68717857D02*
X209422628Y-68689286D01*
X209422628Y-68689286D02*
X209565485Y-68689286D01*
X209565485Y-68689286D02*
X209622628Y-68717857D01*
X209622628Y-68717857D02*
X209651200Y-68746429D01*
X209651200Y-68746429D02*
X209679771Y-68803571D01*
X209679771Y-68803571D02*
X209679771Y-68975000D01*
X209679771Y-68975000D02*
X209651200Y-69032143D01*
X209651200Y-69032143D02*
X209622628Y-69060714D01*
X210662628Y-64674999D02*
X210691200Y-64703571D01*
X210691200Y-64703571D02*
X210719771Y-64789285D01*
X210719771Y-64789285D02*
X210719771Y-64846428D01*
X210719771Y-64846428D02*
X210691200Y-64932142D01*
X210691200Y-64932142D02*
X210634057Y-64989285D01*
X210634057Y-64989285D02*
X210576914Y-65017856D01*
X210576914Y-65017856D02*
X210462628Y-65046428D01*
X210462628Y-65046428D02*
X210376914Y-65046428D01*
X210376914Y-65046428D02*
X210262628Y-65017856D01*
X210262628Y-65017856D02*
X210205485Y-64989285D01*
X210205485Y-64989285D02*
X210148342Y-64932142D01*
X210148342Y-64932142D02*
X210119771Y-64846428D01*
X210119771Y-64846428D02*
X210119771Y-64789285D01*
X210119771Y-64789285D02*
X210148342Y-64703571D01*
X210148342Y-64703571D02*
X210176914Y-64674999D01*
X210119771Y-64474999D02*
X210119771Y-64074999D01*
X210119771Y-64074999D02*
X210719771Y-64332142D01*
X192694771Y-65025000D02*
X193123342Y-65025000D01*
X193123342Y-65025000D02*
X193209057Y-65053571D01*
X193209057Y-65053571D02*
X193266200Y-65110714D01*
X193266200Y-65110714D02*
X193294771Y-65196428D01*
X193294771Y-65196428D02*
X193294771Y-65253571D01*
X192694771Y-64796428D02*
X192694771Y-64425000D01*
X192694771Y-64425000D02*
X192923342Y-64625000D01*
X192923342Y-64625000D02*
X192923342Y-64539285D01*
X192923342Y-64539285D02*
X192951914Y-64482143D01*
X192951914Y-64482143D02*
X192980485Y-64453571D01*
X192980485Y-64453571D02*
X193037628Y-64425000D01*
X193037628Y-64425000D02*
X193180485Y-64425000D01*
X193180485Y-64425000D02*
X193237628Y-64453571D01*
X193237628Y-64453571D02*
X193266200Y-64482143D01*
X193266200Y-64482143D02*
X193294771Y-64539285D01*
X193294771Y-64539285D02*
X193294771Y-64710714D01*
X193294771Y-64710714D02*
X193266200Y-64767857D01*
X193266200Y-64767857D02*
X193237628Y-64796428D01*
X195644771Y-70269642D02*
X196130485Y-70269642D01*
X196130485Y-70269642D02*
X196187628Y-70241071D01*
X196187628Y-70241071D02*
X196216200Y-70212500D01*
X196216200Y-70212500D02*
X196244771Y-70155357D01*
X196244771Y-70155357D02*
X196244771Y-70041071D01*
X196244771Y-70041071D02*
X196216200Y-69983928D01*
X196216200Y-69983928D02*
X196187628Y-69955357D01*
X196187628Y-69955357D02*
X196130485Y-69926785D01*
X196130485Y-69926785D02*
X195644771Y-69926785D01*
X196244771Y-69326786D02*
X196244771Y-69669643D01*
X196244771Y-69498214D02*
X195644771Y-69498214D01*
X195644771Y-69498214D02*
X195730485Y-69555357D01*
X195730485Y-69555357D02*
X195787628Y-69612500D01*
X195787628Y-69612500D02*
X195816200Y-69669643D01*
X211619771Y-83810714D02*
X211334057Y-84010714D01*
X211619771Y-84153571D02*
X211019771Y-84153571D01*
X211019771Y-84153571D02*
X211019771Y-83925000D01*
X211019771Y-83925000D02*
X211048342Y-83867857D01*
X211048342Y-83867857D02*
X211076914Y-83839286D01*
X211076914Y-83839286D02*
X211134057Y-83810714D01*
X211134057Y-83810714D02*
X211219771Y-83810714D01*
X211219771Y-83810714D02*
X211276914Y-83839286D01*
X211276914Y-83839286D02*
X211305485Y-83867857D01*
X211305485Y-83867857D02*
X211334057Y-83925000D01*
X211334057Y-83925000D02*
X211334057Y-84153571D01*
X211619771Y-83239286D02*
X211619771Y-83582143D01*
X211619771Y-83410714D02*
X211019771Y-83410714D01*
X211019771Y-83410714D02*
X211105485Y-83467857D01*
X211105485Y-83467857D02*
X211162628Y-83525000D01*
X211162628Y-83525000D02*
X211191200Y-83582143D01*
X211076914Y-83010714D02*
X211048342Y-82982142D01*
X211048342Y-82982142D02*
X211019771Y-82925000D01*
X211019771Y-82925000D02*
X211019771Y-82782142D01*
X211019771Y-82782142D02*
X211048342Y-82725000D01*
X211048342Y-82725000D02*
X211076914Y-82696428D01*
X211076914Y-82696428D02*
X211134057Y-82667857D01*
X211134057Y-82667857D02*
X211191200Y-82667857D01*
X211191200Y-82667857D02*
X211276914Y-82696428D01*
X211276914Y-82696428D02*
X211619771Y-83039285D01*
X211619771Y-83039285D02*
X211619771Y-82667857D01*
X203219771Y-90749999D02*
X202934057Y-90949999D01*
X203219771Y-91092856D02*
X202619771Y-91092856D01*
X202619771Y-91092856D02*
X202619771Y-90864285D01*
X202619771Y-90864285D02*
X202648342Y-90807142D01*
X202648342Y-90807142D02*
X202676914Y-90778571D01*
X202676914Y-90778571D02*
X202734057Y-90749999D01*
X202734057Y-90749999D02*
X202819771Y-90749999D01*
X202819771Y-90749999D02*
X202876914Y-90778571D01*
X202876914Y-90778571D02*
X202905485Y-90807142D01*
X202905485Y-90807142D02*
X202934057Y-90864285D01*
X202934057Y-90864285D02*
X202934057Y-91092856D01*
X203219771Y-90178571D02*
X203219771Y-90521428D01*
X203219771Y-90349999D02*
X202619771Y-90349999D01*
X202619771Y-90349999D02*
X202705485Y-90407142D01*
X202705485Y-90407142D02*
X202762628Y-90464285D01*
X202762628Y-90464285D02*
X202791200Y-90521428D01*
X206294771Y-76749999D02*
X206294771Y-77035713D01*
X206294771Y-77035713D02*
X205694771Y-77035713D01*
X206294771Y-76235714D02*
X206294771Y-76578571D01*
X206294771Y-76407142D02*
X205694771Y-76407142D01*
X205694771Y-76407142D02*
X205780485Y-76464285D01*
X205780485Y-76464285D02*
X205837628Y-76521428D01*
X205837628Y-76521428D02*
X205866200Y-76578571D01*
X196219771Y-64975000D02*
X196648342Y-64975000D01*
X196648342Y-64975000D02*
X196734057Y-65003571D01*
X196734057Y-65003571D02*
X196791200Y-65060714D01*
X196791200Y-65060714D02*
X196819771Y-65146428D01*
X196819771Y-65146428D02*
X196819771Y-65203571D01*
X196276914Y-64717857D02*
X196248342Y-64689285D01*
X196248342Y-64689285D02*
X196219771Y-64632143D01*
X196219771Y-64632143D02*
X196219771Y-64489285D01*
X196219771Y-64489285D02*
X196248342Y-64432143D01*
X196248342Y-64432143D02*
X196276914Y-64403571D01*
X196276914Y-64403571D02*
X196334057Y-64375000D01*
X196334057Y-64375000D02*
X196391200Y-64375000D01*
X196391200Y-64375000D02*
X196476914Y-64403571D01*
X196476914Y-64403571D02*
X196819771Y-64746428D01*
X196819771Y-64746428D02*
X196819771Y-64375000D01*
X200494771Y-65780356D02*
X199894771Y-65780356D01*
X199894771Y-65780356D02*
X199894771Y-65637499D01*
X199894771Y-65637499D02*
X199923342Y-65551785D01*
X199923342Y-65551785D02*
X199980485Y-65494642D01*
X199980485Y-65494642D02*
X200037628Y-65466071D01*
X200037628Y-65466071D02*
X200151914Y-65437499D01*
X200151914Y-65437499D02*
X200237628Y-65437499D01*
X200237628Y-65437499D02*
X200351914Y-65466071D01*
X200351914Y-65466071D02*
X200409057Y-65494642D01*
X200409057Y-65494642D02*
X200466200Y-65551785D01*
X200466200Y-65551785D02*
X200494771Y-65637499D01*
X200494771Y-65637499D02*
X200494771Y-65780356D01*
X199951914Y-65208928D02*
X199923342Y-65180356D01*
X199923342Y-65180356D02*
X199894771Y-65123214D01*
X199894771Y-65123214D02*
X199894771Y-64980356D01*
X199894771Y-64980356D02*
X199923342Y-64923214D01*
X199923342Y-64923214D02*
X199951914Y-64894642D01*
X199951914Y-64894642D02*
X200009057Y-64866071D01*
X200009057Y-64866071D02*
X200066200Y-64866071D01*
X200066200Y-64866071D02*
X200151914Y-64894642D01*
X200151914Y-64894642D02*
X200494771Y-65237499D01*
X200494771Y-65237499D02*
X200494771Y-64866071D01*
X203694771Y-65655356D02*
X203094771Y-65655356D01*
X203094771Y-65655356D02*
X203094771Y-65512499D01*
X203094771Y-65512499D02*
X203123342Y-65426785D01*
X203123342Y-65426785D02*
X203180485Y-65369642D01*
X203180485Y-65369642D02*
X203237628Y-65341071D01*
X203237628Y-65341071D02*
X203351914Y-65312499D01*
X203351914Y-65312499D02*
X203437628Y-65312499D01*
X203437628Y-65312499D02*
X203551914Y-65341071D01*
X203551914Y-65341071D02*
X203609057Y-65369642D01*
X203609057Y-65369642D02*
X203666200Y-65426785D01*
X203666200Y-65426785D02*
X203694771Y-65512499D01*
X203694771Y-65512499D02*
X203694771Y-65655356D01*
X203294771Y-64798214D02*
X203694771Y-64798214D01*
X203066200Y-64941071D02*
X203494771Y-65083928D01*
X203494771Y-65083928D02*
X203494771Y-64712499D01*
X206829771Y-87124999D02*
X206544057Y-87324999D01*
X206829771Y-87467856D02*
X206229771Y-87467856D01*
X206229771Y-87467856D02*
X206229771Y-87239285D01*
X206229771Y-87239285D02*
X206258342Y-87182142D01*
X206258342Y-87182142D02*
X206286914Y-87153571D01*
X206286914Y-87153571D02*
X206344057Y-87124999D01*
X206344057Y-87124999D02*
X206429771Y-87124999D01*
X206429771Y-87124999D02*
X206486914Y-87153571D01*
X206486914Y-87153571D02*
X206515485Y-87182142D01*
X206515485Y-87182142D02*
X206544057Y-87239285D01*
X206544057Y-87239285D02*
X206544057Y-87467856D01*
X206286914Y-86896428D02*
X206258342Y-86867856D01*
X206258342Y-86867856D02*
X206229771Y-86810714D01*
X206229771Y-86810714D02*
X206229771Y-86667856D01*
X206229771Y-86667856D02*
X206258342Y-86610714D01*
X206258342Y-86610714D02*
X206286914Y-86582142D01*
X206286914Y-86582142D02*
X206344057Y-86553571D01*
X206344057Y-86553571D02*
X206401200Y-86553571D01*
X206401200Y-86553571D02*
X206486914Y-86582142D01*
X206486914Y-86582142D02*
X206829771Y-86924999D01*
X206829771Y-86924999D02*
X206829771Y-86553571D01*
X209544771Y-88099999D02*
X209259057Y-88299999D01*
X209544771Y-88442856D02*
X208944771Y-88442856D01*
X208944771Y-88442856D02*
X208944771Y-88214285D01*
X208944771Y-88214285D02*
X208973342Y-88157142D01*
X208973342Y-88157142D02*
X209001914Y-88128571D01*
X209001914Y-88128571D02*
X209059057Y-88099999D01*
X209059057Y-88099999D02*
X209144771Y-88099999D01*
X209144771Y-88099999D02*
X209201914Y-88128571D01*
X209201914Y-88128571D02*
X209230485Y-88157142D01*
X209230485Y-88157142D02*
X209259057Y-88214285D01*
X209259057Y-88214285D02*
X209259057Y-88442856D01*
X209144771Y-87585714D02*
X209544771Y-87585714D01*
X208916200Y-87728571D02*
X209344771Y-87871428D01*
X209344771Y-87871428D02*
X209344771Y-87499999D01*
X193194771Y-76257142D02*
X193680485Y-76257142D01*
X193680485Y-76257142D02*
X193737628Y-76228571D01*
X193737628Y-76228571D02*
X193766200Y-76200000D01*
X193766200Y-76200000D02*
X193794771Y-76142857D01*
X193794771Y-76142857D02*
X193794771Y-76028571D01*
X193794771Y-76028571D02*
X193766200Y-75971428D01*
X193766200Y-75971428D02*
X193737628Y-75942857D01*
X193737628Y-75942857D02*
X193680485Y-75914285D01*
X193680485Y-75914285D02*
X193194771Y-75914285D01*
X193251914Y-75657143D02*
X193223342Y-75628571D01*
X193223342Y-75628571D02*
X193194771Y-75571429D01*
X193194771Y-75571429D02*
X193194771Y-75428571D01*
X193194771Y-75428571D02*
X193223342Y-75371429D01*
X193223342Y-75371429D02*
X193251914Y-75342857D01*
X193251914Y-75342857D02*
X193309057Y-75314286D01*
X193309057Y-75314286D02*
X193366200Y-75314286D01*
X193366200Y-75314286D02*
X193451914Y-75342857D01*
X193451914Y-75342857D02*
X193794771Y-75685714D01*
X193794771Y-75685714D02*
X193794771Y-75314286D01*
X190419104Y-88061905D02*
X190419104Y-87585715D01*
X190704819Y-88157143D02*
X189704819Y-87823810D01*
X189704819Y-87823810D02*
X190704819Y-87490477D01*
X190038152Y-87157143D02*
X190704819Y-87157143D01*
X190133390Y-87157143D02*
X190085771Y-87109524D01*
X190085771Y-87109524D02*
X190038152Y-87014286D01*
X190038152Y-87014286D02*
X190038152Y-86871429D01*
X190038152Y-86871429D02*
X190085771Y-86776191D01*
X190085771Y-86776191D02*
X190181009Y-86728572D01*
X190181009Y-86728572D02*
X190704819Y-86728572D01*
X190038152Y-86395238D02*
X190038152Y-86014286D01*
X189704819Y-86252381D02*
X190561961Y-86252381D01*
X190561961Y-86252381D02*
X190657200Y-86204762D01*
X190657200Y-86204762D02*
X190704819Y-86109524D01*
X190704819Y-86109524D02*
X190704819Y-86014286D01*
X190657200Y-85300000D02*
X190704819Y-85395238D01*
X190704819Y-85395238D02*
X190704819Y-85585714D01*
X190704819Y-85585714D02*
X190657200Y-85680952D01*
X190657200Y-85680952D02*
X190561961Y-85728571D01*
X190561961Y-85728571D02*
X190181009Y-85728571D01*
X190181009Y-85728571D02*
X190085771Y-85680952D01*
X190085771Y-85680952D02*
X190038152Y-85585714D01*
X190038152Y-85585714D02*
X190038152Y-85395238D01*
X190038152Y-85395238D02*
X190085771Y-85300000D01*
X190085771Y-85300000D02*
X190181009Y-85252381D01*
X190181009Y-85252381D02*
X190276247Y-85252381D01*
X190276247Y-85252381D02*
X190371485Y-85728571D01*
X190038152Y-84823809D02*
X190704819Y-84823809D01*
X190133390Y-84823809D02*
X190085771Y-84776190D01*
X190085771Y-84776190D02*
X190038152Y-84680952D01*
X190038152Y-84680952D02*
X190038152Y-84538095D01*
X190038152Y-84538095D02*
X190085771Y-84442857D01*
X190085771Y-84442857D02*
X190181009Y-84395238D01*
X190181009Y-84395238D02*
X190704819Y-84395238D01*
X190038152Y-83919047D02*
X190704819Y-83919047D01*
X190133390Y-83919047D02*
X190085771Y-83871428D01*
X190085771Y-83871428D02*
X190038152Y-83776190D01*
X190038152Y-83776190D02*
X190038152Y-83633333D01*
X190038152Y-83633333D02*
X190085771Y-83538095D01*
X190085771Y-83538095D02*
X190181009Y-83490476D01*
X190181009Y-83490476D02*
X190704819Y-83490476D01*
X190704819Y-82585714D02*
X190181009Y-82585714D01*
X190181009Y-82585714D02*
X190085771Y-82633333D01*
X190085771Y-82633333D02*
X190038152Y-82728571D01*
X190038152Y-82728571D02*
X190038152Y-82919047D01*
X190038152Y-82919047D02*
X190085771Y-83014285D01*
X190657200Y-82585714D02*
X190704819Y-82680952D01*
X190704819Y-82680952D02*
X190704819Y-82919047D01*
X190704819Y-82919047D02*
X190657200Y-83014285D01*
X190657200Y-83014285D02*
X190561961Y-83061904D01*
X190561961Y-83061904D02*
X190466723Y-83061904D01*
X190466723Y-83061904D02*
X190371485Y-83014285D01*
X190371485Y-83014285D02*
X190323866Y-82919047D01*
X190323866Y-82919047D02*
X190323866Y-82680952D01*
X190323866Y-82680952D02*
X190276247Y-82585714D01*
X190419104Y-81395237D02*
X190419104Y-80919047D01*
X190704819Y-81490475D02*
X189704819Y-81157142D01*
X189704819Y-81157142D02*
X190704819Y-80823809D01*
X190704819Y-80490475D02*
X190038152Y-80490475D01*
X190228628Y-80490475D02*
X190133390Y-80442856D01*
X190133390Y-80442856D02*
X190085771Y-80395237D01*
X190085771Y-80395237D02*
X190038152Y-80299999D01*
X190038152Y-80299999D02*
X190038152Y-80204761D01*
X190657200Y-79490475D02*
X190704819Y-79585713D01*
X190704819Y-79585713D02*
X190704819Y-79776189D01*
X190704819Y-79776189D02*
X190657200Y-79871427D01*
X190657200Y-79871427D02*
X190561961Y-79919046D01*
X190561961Y-79919046D02*
X190181009Y-79919046D01*
X190181009Y-79919046D02*
X190085771Y-79871427D01*
X190085771Y-79871427D02*
X190038152Y-79776189D01*
X190038152Y-79776189D02*
X190038152Y-79585713D01*
X190038152Y-79585713D02*
X190085771Y-79490475D01*
X190085771Y-79490475D02*
X190181009Y-79442856D01*
X190181009Y-79442856D02*
X190276247Y-79442856D01*
X190276247Y-79442856D02*
X190371485Y-79919046D01*
X190704819Y-78585713D02*
X190181009Y-78585713D01*
X190181009Y-78585713D02*
X190085771Y-78633332D01*
X190085771Y-78633332D02*
X190038152Y-78728570D01*
X190038152Y-78728570D02*
X190038152Y-78919046D01*
X190038152Y-78919046D02*
X190085771Y-79014284D01*
X190657200Y-78585713D02*
X190704819Y-78680951D01*
X190704819Y-78680951D02*
X190704819Y-78919046D01*
X190704819Y-78919046D02*
X190657200Y-79014284D01*
X190657200Y-79014284D02*
X190561961Y-79061903D01*
X190561961Y-79061903D02*
X190466723Y-79061903D01*
X190466723Y-79061903D02*
X190371485Y-79014284D01*
X190371485Y-79014284D02*
X190323866Y-78919046D01*
X190323866Y-78919046D02*
X190323866Y-78680951D01*
X190323866Y-78680951D02*
X190276247Y-78585713D01*
X206594771Y-83574999D02*
X206309057Y-83774999D01*
X206594771Y-83917856D02*
X205994771Y-83917856D01*
X205994771Y-83917856D02*
X205994771Y-83689285D01*
X205994771Y-83689285D02*
X206023342Y-83632142D01*
X206023342Y-83632142D02*
X206051914Y-83603571D01*
X206051914Y-83603571D02*
X206109057Y-83574999D01*
X206109057Y-83574999D02*
X206194771Y-83574999D01*
X206194771Y-83574999D02*
X206251914Y-83603571D01*
X206251914Y-83603571D02*
X206280485Y-83632142D01*
X206280485Y-83632142D02*
X206309057Y-83689285D01*
X206309057Y-83689285D02*
X206309057Y-83917856D01*
X206251914Y-83232142D02*
X206223342Y-83289285D01*
X206223342Y-83289285D02*
X206194771Y-83317856D01*
X206194771Y-83317856D02*
X206137628Y-83346428D01*
X206137628Y-83346428D02*
X206109057Y-83346428D01*
X206109057Y-83346428D02*
X206051914Y-83317856D01*
X206051914Y-83317856D02*
X206023342Y-83289285D01*
X206023342Y-83289285D02*
X205994771Y-83232142D01*
X205994771Y-83232142D02*
X205994771Y-83117856D01*
X205994771Y-83117856D02*
X206023342Y-83060714D01*
X206023342Y-83060714D02*
X206051914Y-83032142D01*
X206051914Y-83032142D02*
X206109057Y-83003571D01*
X206109057Y-83003571D02*
X206137628Y-83003571D01*
X206137628Y-83003571D02*
X206194771Y-83032142D01*
X206194771Y-83032142D02*
X206223342Y-83060714D01*
X206223342Y-83060714D02*
X206251914Y-83117856D01*
X206251914Y-83117856D02*
X206251914Y-83232142D01*
X206251914Y-83232142D02*
X206280485Y-83289285D01*
X206280485Y-83289285D02*
X206309057Y-83317856D01*
X206309057Y-83317856D02*
X206366200Y-83346428D01*
X206366200Y-83346428D02*
X206480485Y-83346428D01*
X206480485Y-83346428D02*
X206537628Y-83317856D01*
X206537628Y-83317856D02*
X206566200Y-83289285D01*
X206566200Y-83289285D02*
X206594771Y-83232142D01*
X206594771Y-83232142D02*
X206594771Y-83117856D01*
X206594771Y-83117856D02*
X206566200Y-83060714D01*
X206566200Y-83060714D02*
X206537628Y-83032142D01*
X206537628Y-83032142D02*
X206480485Y-83003571D01*
X206480485Y-83003571D02*
X206366200Y-83003571D01*
X206366200Y-83003571D02*
X206309057Y-83032142D01*
X206309057Y-83032142D02*
X206280485Y-83060714D01*
X206280485Y-83060714D02*
X206251914Y-83117856D01*
X206544771Y-65885714D02*
X206259057Y-66085714D01*
X206544771Y-66228571D02*
X205944771Y-66228571D01*
X205944771Y-66228571D02*
X205944771Y-66000000D01*
X205944771Y-66000000D02*
X205973342Y-65942857D01*
X205973342Y-65942857D02*
X206001914Y-65914286D01*
X206001914Y-65914286D02*
X206059057Y-65885714D01*
X206059057Y-65885714D02*
X206144771Y-65885714D01*
X206144771Y-65885714D02*
X206201914Y-65914286D01*
X206201914Y-65914286D02*
X206230485Y-65942857D01*
X206230485Y-65942857D02*
X206259057Y-66000000D01*
X206259057Y-66000000D02*
X206259057Y-66228571D01*
X206544771Y-65314286D02*
X206544771Y-65657143D01*
X206544771Y-65485714D02*
X205944771Y-65485714D01*
X205944771Y-65485714D02*
X206030485Y-65542857D01*
X206030485Y-65542857D02*
X206087628Y-65600000D01*
X206087628Y-65600000D02*
X206116200Y-65657143D01*
X205944771Y-64942857D02*
X205944771Y-64885714D01*
X205944771Y-64885714D02*
X205973342Y-64828571D01*
X205973342Y-64828571D02*
X206001914Y-64800000D01*
X206001914Y-64800000D02*
X206059057Y-64771428D01*
X206059057Y-64771428D02*
X206173342Y-64742857D01*
X206173342Y-64742857D02*
X206316200Y-64742857D01*
X206316200Y-64742857D02*
X206430485Y-64771428D01*
X206430485Y-64771428D02*
X206487628Y-64800000D01*
X206487628Y-64800000D02*
X206516200Y-64828571D01*
X206516200Y-64828571D02*
X206544771Y-64885714D01*
X206544771Y-64885714D02*
X206544771Y-64942857D01*
X206544771Y-64942857D02*
X206516200Y-65000000D01*
X206516200Y-65000000D02*
X206487628Y-65028571D01*
X206487628Y-65028571D02*
X206430485Y-65057142D01*
X206430485Y-65057142D02*
X206316200Y-65085714D01*
X206316200Y-65085714D02*
X206173342Y-65085714D01*
X206173342Y-65085714D02*
X206059057Y-65057142D01*
X206059057Y-65057142D02*
X206001914Y-65028571D01*
X206001914Y-65028571D02*
X205973342Y-65000000D01*
X205973342Y-65000000D02*
X205944771Y-64942857D01*
X209987628Y-76099999D02*
X210016200Y-76128571D01*
X210016200Y-76128571D02*
X210044771Y-76214285D01*
X210044771Y-76214285D02*
X210044771Y-76271428D01*
X210044771Y-76271428D02*
X210016200Y-76357142D01*
X210016200Y-76357142D02*
X209959057Y-76414285D01*
X209959057Y-76414285D02*
X209901914Y-76442856D01*
X209901914Y-76442856D02*
X209787628Y-76471428D01*
X209787628Y-76471428D02*
X209701914Y-76471428D01*
X209701914Y-76471428D02*
X209587628Y-76442856D01*
X209587628Y-76442856D02*
X209530485Y-76414285D01*
X209530485Y-76414285D02*
X209473342Y-76357142D01*
X209473342Y-76357142D02*
X209444771Y-76271428D01*
X209444771Y-76271428D02*
X209444771Y-76214285D01*
X209444771Y-76214285D02*
X209473342Y-76128571D01*
X209473342Y-76128571D02*
X209501914Y-76099999D01*
X209701914Y-75757142D02*
X209673342Y-75814285D01*
X209673342Y-75814285D02*
X209644771Y-75842856D01*
X209644771Y-75842856D02*
X209587628Y-75871428D01*
X209587628Y-75871428D02*
X209559057Y-75871428D01*
X209559057Y-75871428D02*
X209501914Y-75842856D01*
X209501914Y-75842856D02*
X209473342Y-75814285D01*
X209473342Y-75814285D02*
X209444771Y-75757142D01*
X209444771Y-75757142D02*
X209444771Y-75642856D01*
X209444771Y-75642856D02*
X209473342Y-75585714D01*
X209473342Y-75585714D02*
X209501914Y-75557142D01*
X209501914Y-75557142D02*
X209559057Y-75528571D01*
X209559057Y-75528571D02*
X209587628Y-75528571D01*
X209587628Y-75528571D02*
X209644771Y-75557142D01*
X209644771Y-75557142D02*
X209673342Y-75585714D01*
X209673342Y-75585714D02*
X209701914Y-75642856D01*
X209701914Y-75642856D02*
X209701914Y-75757142D01*
X209701914Y-75757142D02*
X209730485Y-75814285D01*
X209730485Y-75814285D02*
X209759057Y-75842856D01*
X209759057Y-75842856D02*
X209816200Y-75871428D01*
X209816200Y-75871428D02*
X209930485Y-75871428D01*
X209930485Y-75871428D02*
X209987628Y-75842856D01*
X209987628Y-75842856D02*
X210016200Y-75814285D01*
X210016200Y-75814285D02*
X210044771Y-75757142D01*
X210044771Y-75757142D02*
X210044771Y-75642856D01*
X210044771Y-75642856D02*
X210016200Y-75585714D01*
X210016200Y-75585714D02*
X209987628Y-75557142D01*
X209987628Y-75557142D02*
X209930485Y-75528571D01*
X209930485Y-75528571D02*
X209816200Y-75528571D01*
X209816200Y-75528571D02*
X209759057Y-75557142D01*
X209759057Y-75557142D02*
X209730485Y-75585714D01*
X209730485Y-75585714D02*
X209701914Y-75642856D01*
X206594771Y-79824999D02*
X206309057Y-80024999D01*
X206594771Y-80167856D02*
X205994771Y-80167856D01*
X205994771Y-80167856D02*
X205994771Y-79939285D01*
X205994771Y-79939285D02*
X206023342Y-79882142D01*
X206023342Y-79882142D02*
X206051914Y-79853571D01*
X206051914Y-79853571D02*
X206109057Y-79824999D01*
X206109057Y-79824999D02*
X206194771Y-79824999D01*
X206194771Y-79824999D02*
X206251914Y-79853571D01*
X206251914Y-79853571D02*
X206280485Y-79882142D01*
X206280485Y-79882142D02*
X206309057Y-79939285D01*
X206309057Y-79939285D02*
X206309057Y-80167856D01*
X205994771Y-79282142D02*
X205994771Y-79567856D01*
X205994771Y-79567856D02*
X206280485Y-79596428D01*
X206280485Y-79596428D02*
X206251914Y-79567856D01*
X206251914Y-79567856D02*
X206223342Y-79510714D01*
X206223342Y-79510714D02*
X206223342Y-79367856D01*
X206223342Y-79367856D02*
X206251914Y-79310714D01*
X206251914Y-79310714D02*
X206280485Y-79282142D01*
X206280485Y-79282142D02*
X206337628Y-79253571D01*
X206337628Y-79253571D02*
X206480485Y-79253571D01*
X206480485Y-79253571D02*
X206537628Y-79282142D01*
X206537628Y-79282142D02*
X206566200Y-79310714D01*
X206566200Y-79310714D02*
X206594771Y-79367856D01*
X206594771Y-79367856D02*
X206594771Y-79510714D01*
X206594771Y-79510714D02*
X206566200Y-79567856D01*
X206566200Y-79567856D02*
X206537628Y-79596428D01*
X208812628Y-64260714D02*
X208841200Y-64289286D01*
X208841200Y-64289286D02*
X208869771Y-64375000D01*
X208869771Y-64375000D02*
X208869771Y-64432143D01*
X208869771Y-64432143D02*
X208841200Y-64517857D01*
X208841200Y-64517857D02*
X208784057Y-64575000D01*
X208784057Y-64575000D02*
X208726914Y-64603571D01*
X208726914Y-64603571D02*
X208612628Y-64632143D01*
X208612628Y-64632143D02*
X208526914Y-64632143D01*
X208526914Y-64632143D02*
X208412628Y-64603571D01*
X208412628Y-64603571D02*
X208355485Y-64575000D01*
X208355485Y-64575000D02*
X208298342Y-64517857D01*
X208298342Y-64517857D02*
X208269771Y-64432143D01*
X208269771Y-64432143D02*
X208269771Y-64375000D01*
X208269771Y-64375000D02*
X208298342Y-64289286D01*
X208298342Y-64289286D02*
X208326914Y-64260714D01*
X208869771Y-63689286D02*
X208869771Y-64032143D01*
X208869771Y-63860714D02*
X208269771Y-63860714D01*
X208269771Y-63860714D02*
X208355485Y-63917857D01*
X208355485Y-63917857D02*
X208412628Y-63975000D01*
X208412628Y-63975000D02*
X208441200Y-64032143D01*
X208269771Y-63317857D02*
X208269771Y-63260714D01*
X208269771Y-63260714D02*
X208298342Y-63203571D01*
X208298342Y-63203571D02*
X208326914Y-63175000D01*
X208326914Y-63175000D02*
X208384057Y-63146428D01*
X208384057Y-63146428D02*
X208498342Y-63117857D01*
X208498342Y-63117857D02*
X208641200Y-63117857D01*
X208641200Y-63117857D02*
X208755485Y-63146428D01*
X208755485Y-63146428D02*
X208812628Y-63175000D01*
X208812628Y-63175000D02*
X208841200Y-63203571D01*
X208841200Y-63203571D02*
X208869771Y-63260714D01*
X208869771Y-63260714D02*
X208869771Y-63317857D01*
X208869771Y-63317857D02*
X208841200Y-63375000D01*
X208841200Y-63375000D02*
X208812628Y-63403571D01*
X208812628Y-63403571D02*
X208755485Y-63432142D01*
X208755485Y-63432142D02*
X208641200Y-63460714D01*
X208641200Y-63460714D02*
X208498342Y-63460714D01*
X208498342Y-63460714D02*
X208384057Y-63432142D01*
X208384057Y-63432142D02*
X208326914Y-63403571D01*
X208326914Y-63403571D02*
X208298342Y-63375000D01*
X208298342Y-63375000D02*
X208269771Y-63317857D01*
X212676914Y-90607142D02*
X212648342Y-90664285D01*
X212648342Y-90664285D02*
X212591200Y-90721428D01*
X212591200Y-90721428D02*
X212505485Y-90807142D01*
X212505485Y-90807142D02*
X212476914Y-90864285D01*
X212476914Y-90864285D02*
X212476914Y-90921428D01*
X212619771Y-90892857D02*
X212591200Y-90950000D01*
X212591200Y-90950000D02*
X212534057Y-91007142D01*
X212534057Y-91007142D02*
X212419771Y-91035714D01*
X212419771Y-91035714D02*
X212219771Y-91035714D01*
X212219771Y-91035714D02*
X212105485Y-91007142D01*
X212105485Y-91007142D02*
X212048342Y-90950000D01*
X212048342Y-90950000D02*
X212019771Y-90892857D01*
X212019771Y-90892857D02*
X212019771Y-90778571D01*
X212019771Y-90778571D02*
X212048342Y-90721428D01*
X212048342Y-90721428D02*
X212105485Y-90664285D01*
X212105485Y-90664285D02*
X212219771Y-90635714D01*
X212219771Y-90635714D02*
X212419771Y-90635714D01*
X212419771Y-90635714D02*
X212534057Y-90664285D01*
X212534057Y-90664285D02*
X212591200Y-90721428D01*
X212591200Y-90721428D02*
X212619771Y-90778571D01*
X212619771Y-90778571D02*
X212619771Y-90892857D01*
X212076914Y-90407143D02*
X212048342Y-90378571D01*
X212048342Y-90378571D02*
X212019771Y-90321429D01*
X212019771Y-90321429D02*
X212019771Y-90178571D01*
X212019771Y-90178571D02*
X212048342Y-90121429D01*
X212048342Y-90121429D02*
X212076914Y-90092857D01*
X212076914Y-90092857D02*
X212134057Y-90064286D01*
X212134057Y-90064286D02*
X212191200Y-90064286D01*
X212191200Y-90064286D02*
X212276914Y-90092857D01*
X212276914Y-90092857D02*
X212619771Y-90435714D01*
X212619771Y-90435714D02*
X212619771Y-90064286D01*
X191949771Y-93175000D02*
X192378342Y-93175000D01*
X192378342Y-93175000D02*
X192464057Y-93203571D01*
X192464057Y-93203571D02*
X192521200Y-93260714D01*
X192521200Y-93260714D02*
X192549771Y-93346428D01*
X192549771Y-93346428D02*
X192549771Y-93403571D01*
X192549771Y-92575000D02*
X192549771Y-92917857D01*
X192549771Y-92746428D02*
X191949771Y-92746428D01*
X191949771Y-92746428D02*
X192035485Y-92803571D01*
X192035485Y-92803571D02*
X192092628Y-92860714D01*
X192092628Y-92860714D02*
X192121200Y-92917857D01*
X212412628Y-76199999D02*
X212441200Y-76228571D01*
X212441200Y-76228571D02*
X212469771Y-76314285D01*
X212469771Y-76314285D02*
X212469771Y-76371428D01*
X212469771Y-76371428D02*
X212441200Y-76457142D01*
X212441200Y-76457142D02*
X212384057Y-76514285D01*
X212384057Y-76514285D02*
X212326914Y-76542856D01*
X212326914Y-76542856D02*
X212212628Y-76571428D01*
X212212628Y-76571428D02*
X212126914Y-76571428D01*
X212126914Y-76571428D02*
X212012628Y-76542856D01*
X212012628Y-76542856D02*
X211955485Y-76514285D01*
X211955485Y-76514285D02*
X211898342Y-76457142D01*
X211898342Y-76457142D02*
X211869771Y-76371428D01*
X211869771Y-76371428D02*
X211869771Y-76314285D01*
X211869771Y-76314285D02*
X211898342Y-76228571D01*
X211898342Y-76228571D02*
X211926914Y-76199999D01*
X212469771Y-75914285D02*
X212469771Y-75799999D01*
X212469771Y-75799999D02*
X212441200Y-75742856D01*
X212441200Y-75742856D02*
X212412628Y-75714285D01*
X212412628Y-75714285D02*
X212326914Y-75657142D01*
X212326914Y-75657142D02*
X212212628Y-75628571D01*
X212212628Y-75628571D02*
X211984057Y-75628571D01*
X211984057Y-75628571D02*
X211926914Y-75657142D01*
X211926914Y-75657142D02*
X211898342Y-75685714D01*
X211898342Y-75685714D02*
X211869771Y-75742856D01*
X211869771Y-75742856D02*
X211869771Y-75857142D01*
X211869771Y-75857142D02*
X211898342Y-75914285D01*
X211898342Y-75914285D02*
X211926914Y-75942856D01*
X211926914Y-75942856D02*
X211984057Y-75971428D01*
X211984057Y-75971428D02*
X212126914Y-75971428D01*
X212126914Y-75971428D02*
X212184057Y-75942856D01*
X212184057Y-75942856D02*
X212212628Y-75914285D01*
X212212628Y-75914285D02*
X212241200Y-75857142D01*
X212241200Y-75857142D02*
X212241200Y-75742856D01*
X212241200Y-75742856D02*
X212212628Y-75685714D01*
X212212628Y-75685714D02*
X212184057Y-75657142D01*
X212184057Y-75657142D02*
X212126914Y-75628571D01*
X212437628Y-80160714D02*
X212466200Y-80189286D01*
X212466200Y-80189286D02*
X212494771Y-80275000D01*
X212494771Y-80275000D02*
X212494771Y-80332143D01*
X212494771Y-80332143D02*
X212466200Y-80417857D01*
X212466200Y-80417857D02*
X212409057Y-80475000D01*
X212409057Y-80475000D02*
X212351914Y-80503571D01*
X212351914Y-80503571D02*
X212237628Y-80532143D01*
X212237628Y-80532143D02*
X212151914Y-80532143D01*
X212151914Y-80532143D02*
X212037628Y-80503571D01*
X212037628Y-80503571D02*
X211980485Y-80475000D01*
X211980485Y-80475000D02*
X211923342Y-80417857D01*
X211923342Y-80417857D02*
X211894771Y-80332143D01*
X211894771Y-80332143D02*
X211894771Y-80275000D01*
X211894771Y-80275000D02*
X211923342Y-80189286D01*
X211923342Y-80189286D02*
X211951914Y-80160714D01*
X212494771Y-79589286D02*
X212494771Y-79932143D01*
X212494771Y-79760714D02*
X211894771Y-79760714D01*
X211894771Y-79760714D02*
X211980485Y-79817857D01*
X211980485Y-79817857D02*
X212037628Y-79875000D01*
X212037628Y-79875000D02*
X212066200Y-79932143D01*
X212494771Y-79017857D02*
X212494771Y-79360714D01*
X212494771Y-79189285D02*
X211894771Y-79189285D01*
X211894771Y-79189285D02*
X211980485Y-79246428D01*
X211980485Y-79246428D02*
X212037628Y-79303571D01*
X212037628Y-79303571D02*
X212066200Y-79360714D01*
X209487628Y-86174999D02*
X209516200Y-86203571D01*
X209516200Y-86203571D02*
X209544771Y-86289285D01*
X209544771Y-86289285D02*
X209544771Y-86346428D01*
X209544771Y-86346428D02*
X209516200Y-86432142D01*
X209516200Y-86432142D02*
X209459057Y-86489285D01*
X209459057Y-86489285D02*
X209401914Y-86517856D01*
X209401914Y-86517856D02*
X209287628Y-86546428D01*
X209287628Y-86546428D02*
X209201914Y-86546428D01*
X209201914Y-86546428D02*
X209087628Y-86517856D01*
X209087628Y-86517856D02*
X209030485Y-86489285D01*
X209030485Y-86489285D02*
X208973342Y-86432142D01*
X208973342Y-86432142D02*
X208944771Y-86346428D01*
X208944771Y-86346428D02*
X208944771Y-86289285D01*
X208944771Y-86289285D02*
X208973342Y-86203571D01*
X208973342Y-86203571D02*
X209001914Y-86174999D01*
X208944771Y-85632142D02*
X208944771Y-85917856D01*
X208944771Y-85917856D02*
X209230485Y-85946428D01*
X209230485Y-85946428D02*
X209201914Y-85917856D01*
X209201914Y-85917856D02*
X209173342Y-85860714D01*
X209173342Y-85860714D02*
X209173342Y-85717856D01*
X209173342Y-85717856D02*
X209201914Y-85660714D01*
X209201914Y-85660714D02*
X209230485Y-85632142D01*
X209230485Y-85632142D02*
X209287628Y-85603571D01*
X209287628Y-85603571D02*
X209430485Y-85603571D01*
X209430485Y-85603571D02*
X209487628Y-85632142D01*
X209487628Y-85632142D02*
X209516200Y-85660714D01*
X209516200Y-85660714D02*
X209544771Y-85717856D01*
X209544771Y-85717856D02*
X209544771Y-85860714D01*
X209544771Y-85860714D02*
X209516200Y-85917856D01*
X209516200Y-85917856D02*
X209487628Y-85946428D01*
X205294771Y-65655356D02*
X204694771Y-65655356D01*
X204694771Y-65655356D02*
X204694771Y-65512499D01*
X204694771Y-65512499D02*
X204723342Y-65426785D01*
X204723342Y-65426785D02*
X204780485Y-65369642D01*
X204780485Y-65369642D02*
X204837628Y-65341071D01*
X204837628Y-65341071D02*
X204951914Y-65312499D01*
X204951914Y-65312499D02*
X205037628Y-65312499D01*
X205037628Y-65312499D02*
X205151914Y-65341071D01*
X205151914Y-65341071D02*
X205209057Y-65369642D01*
X205209057Y-65369642D02*
X205266200Y-65426785D01*
X205266200Y-65426785D02*
X205294771Y-65512499D01*
X205294771Y-65512499D02*
X205294771Y-65655356D01*
X204694771Y-64769642D02*
X204694771Y-65055356D01*
X204694771Y-65055356D02*
X204980485Y-65083928D01*
X204980485Y-65083928D02*
X204951914Y-65055356D01*
X204951914Y-65055356D02*
X204923342Y-64998214D01*
X204923342Y-64998214D02*
X204923342Y-64855356D01*
X204923342Y-64855356D02*
X204951914Y-64798214D01*
X204951914Y-64798214D02*
X204980485Y-64769642D01*
X204980485Y-64769642D02*
X205037628Y-64741071D01*
X205037628Y-64741071D02*
X205180485Y-64741071D01*
X205180485Y-64741071D02*
X205237628Y-64769642D01*
X205237628Y-64769642D02*
X205266200Y-64798214D01*
X205266200Y-64798214D02*
X205294771Y-64855356D01*
X205294771Y-64855356D02*
X205294771Y-64998214D01*
X205294771Y-64998214D02*
X205266200Y-65055356D01*
X205266200Y-65055356D02*
X205237628Y-65083928D01*
X205594771Y-89910714D02*
X205309057Y-90110714D01*
X205594771Y-90253571D02*
X204994771Y-90253571D01*
X204994771Y-90253571D02*
X204994771Y-90025000D01*
X204994771Y-90025000D02*
X205023342Y-89967857D01*
X205023342Y-89967857D02*
X205051914Y-89939286D01*
X205051914Y-89939286D02*
X205109057Y-89910714D01*
X205109057Y-89910714D02*
X205194771Y-89910714D01*
X205194771Y-89910714D02*
X205251914Y-89939286D01*
X205251914Y-89939286D02*
X205280485Y-89967857D01*
X205280485Y-89967857D02*
X205309057Y-90025000D01*
X205309057Y-90025000D02*
X205309057Y-90253571D01*
X205594771Y-89339286D02*
X205594771Y-89682143D01*
X205594771Y-89510714D02*
X204994771Y-89510714D01*
X204994771Y-89510714D02*
X205080485Y-89567857D01*
X205080485Y-89567857D02*
X205137628Y-89625000D01*
X205137628Y-89625000D02*
X205166200Y-89682143D01*
X204994771Y-89139285D02*
X204994771Y-88767857D01*
X204994771Y-88767857D02*
X205223342Y-88967857D01*
X205223342Y-88967857D02*
X205223342Y-88882142D01*
X205223342Y-88882142D02*
X205251914Y-88825000D01*
X205251914Y-88825000D02*
X205280485Y-88796428D01*
X205280485Y-88796428D02*
X205337628Y-88767857D01*
X205337628Y-88767857D02*
X205480485Y-88767857D01*
X205480485Y-88767857D02*
X205537628Y-88796428D01*
X205537628Y-88796428D02*
X205566200Y-88825000D01*
X205566200Y-88825000D02*
X205594771Y-88882142D01*
X205594771Y-88882142D02*
X205594771Y-89053571D01*
X205594771Y-89053571D02*
X205566200Y-89110714D01*
X205566200Y-89110714D02*
X205537628Y-89139285D01*
X211669771Y-81810714D02*
X211384057Y-82010714D01*
X211669771Y-82153571D02*
X211069771Y-82153571D01*
X211069771Y-82153571D02*
X211069771Y-81925000D01*
X211069771Y-81925000D02*
X211098342Y-81867857D01*
X211098342Y-81867857D02*
X211126914Y-81839286D01*
X211126914Y-81839286D02*
X211184057Y-81810714D01*
X211184057Y-81810714D02*
X211269771Y-81810714D01*
X211269771Y-81810714D02*
X211326914Y-81839286D01*
X211326914Y-81839286D02*
X211355485Y-81867857D01*
X211355485Y-81867857D02*
X211384057Y-81925000D01*
X211384057Y-81925000D02*
X211384057Y-82153571D01*
X211669771Y-81239286D02*
X211669771Y-81582143D01*
X211669771Y-81410714D02*
X211069771Y-81410714D01*
X211069771Y-81410714D02*
X211155485Y-81467857D01*
X211155485Y-81467857D02*
X211212628Y-81525000D01*
X211212628Y-81525000D02*
X211241200Y-81582143D01*
X211669771Y-80667857D02*
X211669771Y-81010714D01*
X211669771Y-80839285D02*
X211069771Y-80839285D01*
X211069771Y-80839285D02*
X211155485Y-80896428D01*
X211155485Y-80896428D02*
X211212628Y-80953571D01*
X211212628Y-80953571D02*
X211241200Y-81010714D01*
X204112628Y-90799999D02*
X204141200Y-90828571D01*
X204141200Y-90828571D02*
X204169771Y-90914285D01*
X204169771Y-90914285D02*
X204169771Y-90971428D01*
X204169771Y-90971428D02*
X204141200Y-91057142D01*
X204141200Y-91057142D02*
X204084057Y-91114285D01*
X204084057Y-91114285D02*
X204026914Y-91142856D01*
X204026914Y-91142856D02*
X203912628Y-91171428D01*
X203912628Y-91171428D02*
X203826914Y-91171428D01*
X203826914Y-91171428D02*
X203712628Y-91142856D01*
X203712628Y-91142856D02*
X203655485Y-91114285D01*
X203655485Y-91114285D02*
X203598342Y-91057142D01*
X203598342Y-91057142D02*
X203569771Y-90971428D01*
X203569771Y-90971428D02*
X203569771Y-90914285D01*
X203569771Y-90914285D02*
X203598342Y-90828571D01*
X203598342Y-90828571D02*
X203626914Y-90799999D01*
X203569771Y-90599999D02*
X203569771Y-90228571D01*
X203569771Y-90228571D02*
X203798342Y-90428571D01*
X203798342Y-90428571D02*
X203798342Y-90342856D01*
X203798342Y-90342856D02*
X203826914Y-90285714D01*
X203826914Y-90285714D02*
X203855485Y-90257142D01*
X203855485Y-90257142D02*
X203912628Y-90228571D01*
X203912628Y-90228571D02*
X204055485Y-90228571D01*
X204055485Y-90228571D02*
X204112628Y-90257142D01*
X204112628Y-90257142D02*
X204141200Y-90285714D01*
X204141200Y-90285714D02*
X204169771Y-90342856D01*
X204169771Y-90342856D02*
X204169771Y-90514285D01*
X204169771Y-90514285D02*
X204141200Y-90571428D01*
X204141200Y-90571428D02*
X204112628Y-90599999D01*
X206494771Y-78099999D02*
X206209057Y-78299999D01*
X206494771Y-78442856D02*
X205894771Y-78442856D01*
X205894771Y-78442856D02*
X205894771Y-78214285D01*
X205894771Y-78214285D02*
X205923342Y-78157142D01*
X205923342Y-78157142D02*
X205951914Y-78128571D01*
X205951914Y-78128571D02*
X206009057Y-78099999D01*
X206009057Y-78099999D02*
X206094771Y-78099999D01*
X206094771Y-78099999D02*
X206151914Y-78128571D01*
X206151914Y-78128571D02*
X206180485Y-78157142D01*
X206180485Y-78157142D02*
X206209057Y-78214285D01*
X206209057Y-78214285D02*
X206209057Y-78442856D01*
X205894771Y-77585714D02*
X205894771Y-77699999D01*
X205894771Y-77699999D02*
X205923342Y-77757142D01*
X205923342Y-77757142D02*
X205951914Y-77785714D01*
X205951914Y-77785714D02*
X206037628Y-77842856D01*
X206037628Y-77842856D02*
X206151914Y-77871428D01*
X206151914Y-77871428D02*
X206380485Y-77871428D01*
X206380485Y-77871428D02*
X206437628Y-77842856D01*
X206437628Y-77842856D02*
X206466200Y-77814285D01*
X206466200Y-77814285D02*
X206494771Y-77757142D01*
X206494771Y-77757142D02*
X206494771Y-77642856D01*
X206494771Y-77642856D02*
X206466200Y-77585714D01*
X206466200Y-77585714D02*
X206437628Y-77557142D01*
X206437628Y-77557142D02*
X206380485Y-77528571D01*
X206380485Y-77528571D02*
X206237628Y-77528571D01*
X206237628Y-77528571D02*
X206180485Y-77557142D01*
X206180485Y-77557142D02*
X206151914Y-77585714D01*
X206151914Y-77585714D02*
X206123342Y-77642856D01*
X206123342Y-77642856D02*
X206123342Y-77757142D01*
X206123342Y-77757142D02*
X206151914Y-77814285D01*
X206151914Y-77814285D02*
X206180485Y-77842856D01*
X206180485Y-77842856D02*
X206237628Y-77871428D01*
X212137628Y-64724999D02*
X212166200Y-64753571D01*
X212166200Y-64753571D02*
X212194771Y-64839285D01*
X212194771Y-64839285D02*
X212194771Y-64896428D01*
X212194771Y-64896428D02*
X212166200Y-64982142D01*
X212166200Y-64982142D02*
X212109057Y-65039285D01*
X212109057Y-65039285D02*
X212051914Y-65067856D01*
X212051914Y-65067856D02*
X211937628Y-65096428D01*
X211937628Y-65096428D02*
X211851914Y-65096428D01*
X211851914Y-65096428D02*
X211737628Y-65067856D01*
X211737628Y-65067856D02*
X211680485Y-65039285D01*
X211680485Y-65039285D02*
X211623342Y-64982142D01*
X211623342Y-64982142D02*
X211594771Y-64896428D01*
X211594771Y-64896428D02*
X211594771Y-64839285D01*
X211594771Y-64839285D02*
X211623342Y-64753571D01*
X211623342Y-64753571D02*
X211651914Y-64724999D01*
X211594771Y-64210714D02*
X211594771Y-64324999D01*
X211594771Y-64324999D02*
X211623342Y-64382142D01*
X211623342Y-64382142D02*
X211651914Y-64410714D01*
X211651914Y-64410714D02*
X211737628Y-64467856D01*
X211737628Y-64467856D02*
X211851914Y-64496428D01*
X211851914Y-64496428D02*
X212080485Y-64496428D01*
X212080485Y-64496428D02*
X212137628Y-64467856D01*
X212137628Y-64467856D02*
X212166200Y-64439285D01*
X212166200Y-64439285D02*
X212194771Y-64382142D01*
X212194771Y-64382142D02*
X212194771Y-64267856D01*
X212194771Y-64267856D02*
X212166200Y-64210714D01*
X212166200Y-64210714D02*
X212137628Y-64182142D01*
X212137628Y-64182142D02*
X212080485Y-64153571D01*
X212080485Y-64153571D02*
X211937628Y-64153571D01*
X211937628Y-64153571D02*
X211880485Y-64182142D01*
X211880485Y-64182142D02*
X211851914Y-64210714D01*
X211851914Y-64210714D02*
X211823342Y-64267856D01*
X211823342Y-64267856D02*
X211823342Y-64382142D01*
X211823342Y-64382142D02*
X211851914Y-64439285D01*
X211851914Y-64439285D02*
X211880485Y-64467856D01*
X211880485Y-64467856D02*
X211937628Y-64496428D01*
X213919771Y-89875000D02*
X214348342Y-89875000D01*
X214348342Y-89875000D02*
X214434057Y-89903571D01*
X214434057Y-89903571D02*
X214491200Y-89960714D01*
X214491200Y-89960714D02*
X214519771Y-90046428D01*
X214519771Y-90046428D02*
X214519771Y-90103571D01*
X214119771Y-89332143D02*
X214519771Y-89332143D01*
X213891200Y-89475000D02*
X214319771Y-89617857D01*
X214319771Y-89617857D02*
X214319771Y-89246428D01*
D12*
%TO.C,C4*%
X198065000Y-67577836D02*
X198065000Y-67362164D01*
X198785000Y-67577836D02*
X198785000Y-67362164D01*
%TO.C,R9*%
X206895000Y-67528641D02*
X206895000Y-67221359D01*
X207655000Y-67528641D02*
X207655000Y-67221359D01*
%TO.C,R7*%
X204720000Y-81471359D02*
X204720000Y-81778641D01*
X205480000Y-81471359D02*
X205480000Y-81778641D01*
%TO.C,Q1*%
X196012500Y-65740000D02*
X195362500Y-65740000D01*
X196012500Y-65740000D02*
X196662500Y-65740000D01*
X196012500Y-68860000D02*
X195362500Y-68860000D01*
X196012500Y-68860000D02*
X196662500Y-68860000D01*
X197415000Y-69140000D02*
X196935000Y-69140000D01*
X197175000Y-68810000D01*
X197415000Y-69140000D01*
G36*
X197415000Y-69140000D02*
G01*
X196935000Y-69140000D01*
X197175000Y-68810000D01*
X197415000Y-69140000D01*
G37*
%TO.C,D1*%
X206600000Y-85435000D02*
X208885000Y-85435000D01*
X208885000Y-83965000D02*
X206600000Y-83965000D01*
X208885000Y-85435000D02*
X208885000Y-83965000D01*
%TO.C,C2*%
X195712836Y-90340000D02*
X195497164Y-90340000D01*
X195712836Y-91060000D02*
X195497164Y-91060000D01*
%TO.C,R3*%
X205821359Y-85620000D02*
X206128641Y-85620000D01*
X205821359Y-86380000D02*
X206128641Y-86380000D01*
%TO.C,C12*%
X209715000Y-85488748D02*
X209715000Y-86911252D01*
X211535000Y-85488748D02*
X211535000Y-86911252D01*
%TO.C,C1*%
X193832836Y-90340000D02*
X193617164Y-90340000D01*
X193832836Y-91060000D02*
X193617164Y-91060000D01*
%TO.C,D3*%
X201090000Y-65902500D02*
X201090000Y-68187500D01*
X202560000Y-65902500D02*
X201090000Y-65902500D01*
X202560000Y-68187500D02*
X202560000Y-65902500D01*
D13*
%TO.C,U3*%
X204105000Y-70680000D02*
X204105000Y-74580000D01*
X204155000Y-70680000D02*
X204105000Y-70680000D01*
X204155000Y-74580000D02*
X204105000Y-74580000D01*
X209005000Y-70680000D02*
X208955000Y-70680000D01*
X209005000Y-70680000D02*
X209005000Y-74580000D01*
X209005000Y-74580000D02*
X208955000Y-74580000D01*
D14*
X209395000Y-69963000D02*
G75*
G02*
X209195000Y-69963000I-100000J0D01*
G01*
X209195000Y-69963000D02*
G75*
G02*
X209395000Y-69963000I100000J0D01*
G01*
D12*
%TO.C,C7*%
X210215000Y-69011252D02*
X210215000Y-67588748D01*
X212035000Y-69011252D02*
X212035000Y-67588748D01*
%TO.C,J3*%
X189975000Y-66275000D02*
X191675000Y-66275000D01*
X189975000Y-75615000D02*
X191675000Y-75615000D01*
%TO.C,U1*%
X196740000Y-69227500D02*
X196740000Y-70487500D01*
X196740000Y-76047500D02*
X196740000Y-74787500D01*
X200500000Y-69227500D02*
X196740000Y-69227500D01*
X200500000Y-76047500D02*
X196740000Y-76047500D01*
X202020000Y-76277500D02*
X201540000Y-76277500D01*
X201780000Y-75947500D01*
X202020000Y-76277500D01*
G36*
X202020000Y-76277500D02*
G01*
X201540000Y-76277500D01*
X201780000Y-75947500D01*
X202020000Y-76277500D01*
G37*
%TO.C,R12*%
X213062742Y-82702500D02*
X213537258Y-82702500D01*
X213062742Y-83747500D02*
X213537258Y-83747500D01*
%TO.C,R1*%
X197688641Y-90320000D02*
X197381359Y-90320000D01*
X197688641Y-91080000D02*
X197381359Y-91080000D01*
%TO.C,L1*%
X205740000Y-76715000D02*
X205740000Y-82935000D01*
X205740000Y-76715000D02*
X207190000Y-76715000D01*
X205740000Y-82935000D02*
X207190000Y-82935000D01*
X211660000Y-76715000D02*
X210210000Y-76715000D01*
X211660000Y-76715000D02*
X211660000Y-82935000D01*
X211660000Y-82935000D02*
X210210000Y-82935000D01*
%TO.C,J2*%
X197565000Y-62690000D02*
X197565000Y-64810000D01*
X201625000Y-62690000D02*
X197565000Y-62690000D01*
X201625000Y-62690000D02*
X201625000Y-64810000D01*
X201625000Y-64810000D02*
X197565000Y-64810000D01*
X202625000Y-62690000D02*
X203685000Y-62690000D01*
X203685000Y-62690000D02*
X203685000Y-63750000D01*
%TO.C,D2*%
X199490000Y-66562500D02*
X199490000Y-68847500D01*
X199490000Y-68847500D02*
X200960000Y-68847500D01*
X200960000Y-68847500D02*
X200960000Y-66562500D01*
%TO.C,D4*%
X202665000Y-66537500D02*
X202665000Y-68822500D01*
X202665000Y-68822500D02*
X204135000Y-68822500D01*
X204135000Y-68822500D02*
X204135000Y-66537500D01*
%TO.C,R2*%
X208113641Y-86645000D02*
X207806359Y-86645000D01*
X208113641Y-87405000D02*
X207806359Y-87405000D01*
%TO.C,R4*%
X207806359Y-87695000D02*
X208113641Y-87695000D01*
X207806359Y-88455000D02*
X208113641Y-88455000D01*
%TO.C,U2*%
X187600000Y-76500000D02*
X188200000Y-76500000D01*
X187600000Y-77250000D02*
X187600000Y-76500000D01*
X187600000Y-89225000D02*
X187600000Y-90075000D01*
X187800000Y-76700000D02*
X204400000Y-76700000D01*
X187800000Y-89900000D02*
X187800000Y-76700000D01*
X193200000Y-89900000D02*
X193200000Y-76700000D01*
X203800000Y-76500000D02*
X204600000Y-76500000D01*
X203800000Y-90100000D02*
X204600000Y-90100000D01*
X204400000Y-76700000D02*
X204400000Y-89900000D01*
X204400000Y-89900000D02*
X187800000Y-89900000D01*
X204600000Y-76500000D02*
X204600000Y-77300000D01*
X204600000Y-90100000D02*
X204600000Y-89300000D01*
%TO.C,R8*%
X204745000Y-83456359D02*
X204745000Y-83763641D01*
X205505000Y-83456359D02*
X205505000Y-83763641D01*
%TO.C,R10*%
X205895000Y-67528641D02*
X205895000Y-67221359D01*
X206655000Y-67528641D02*
X206655000Y-67221359D01*
%TO.C,C8*%
X210165000Y-72863748D02*
X210165000Y-74286252D01*
X211985000Y-72863748D02*
X211985000Y-74286252D01*
%TO.C,R5*%
X204695000Y-79778641D02*
X204695000Y-79471359D01*
X205455000Y-79778641D02*
X205455000Y-79471359D01*
%TO.C,C10*%
X208015000Y-67209420D02*
X208015000Y-67490580D01*
X209035000Y-67209420D02*
X209035000Y-67490580D01*
D10*
%TO.C,Q2*%
X207150000Y-88775000D02*
X207150000Y-88875000D01*
X207150000Y-90875000D02*
X207150000Y-90975000D01*
X207150000Y-90975000D02*
X207500000Y-90975000D01*
X207500000Y-88775000D02*
X207150000Y-88775000D01*
X211350000Y-88775000D02*
X210850000Y-88775000D01*
X211350000Y-88775000D02*
X211350000Y-89415000D01*
X211350000Y-89415000D02*
X211550000Y-89415000D01*
X211350000Y-90975000D02*
X210800000Y-90975000D01*
X211350000Y-90975000D02*
X211350000Y-90475000D01*
D12*
%TO.C,J1*%
X193280000Y-94305000D02*
X193280000Y-92975000D01*
X194610000Y-94305000D02*
X193280000Y-94305000D01*
X195880000Y-91645000D02*
X208640000Y-91645000D01*
X195880000Y-94305000D02*
X195880000Y-91645000D01*
X195880000Y-94305000D02*
X208640000Y-94305000D01*
X208640000Y-94305000D02*
X208640000Y-91645000D01*
%TO.C,C9*%
X212640000Y-72863748D02*
X212640000Y-74286252D01*
X214460000Y-72863748D02*
X214460000Y-74286252D01*
%TO.C,C11*%
X212590000Y-79036252D02*
X212590000Y-77613748D01*
X214410000Y-79036252D02*
X214410000Y-77613748D01*
%TO.C,C5*%
X208037836Y-85640000D02*
X207822164Y-85640000D01*
X208037836Y-86360000D02*
X207822164Y-86360000D01*
%TO.C,D5*%
X204240000Y-65902500D02*
X204240000Y-68187500D01*
X205710000Y-65902500D02*
X204240000Y-65902500D01*
X205710000Y-68187500D02*
X205710000Y-65902500D01*
%TO.C,R13*%
X205771359Y-87720000D02*
X206078641Y-87720000D01*
X205771359Y-88480000D02*
X206078641Y-88480000D01*
%TO.C,R11*%
X213062742Y-81102500D02*
X213537258Y-81102500D01*
X213062742Y-82147500D02*
X213537258Y-82147500D01*
%TO.C,C3*%
X199367164Y-90340000D02*
X199582836Y-90340000D01*
X199367164Y-91060000D02*
X199582836Y-91060000D01*
%TO.C,R6*%
X204720000Y-77728641D02*
X204720000Y-77421359D01*
X205480000Y-77728641D02*
X205480000Y-77421359D01*
%TO.C,C6*%
X212640000Y-69011252D02*
X212640000Y-67588748D01*
X214460000Y-69011252D02*
X214460000Y-67588748D01*
%TO.C,J4*%
X212365000Y-86675000D02*
X212365000Y-84615000D01*
X214485000Y-84615000D02*
X212365000Y-84615000D01*
X214485000Y-86675000D02*
X212365000Y-86675000D01*
X214485000Y-86675000D02*
X214485000Y-84615000D01*
X214485000Y-87675000D02*
X214485000Y-88735000D01*
X214485000Y-88735000D02*
X213425000Y-88735000D01*
%TD*%
M02*
