M48
; DRILL file {KiCad 8.0.4} date 2024-12-08T23:45:28+0800
; FORMAT={-:-/ absolute / metric / decimal}
; #@! TF.CreationDate,2024-12-08T23:45:28+08:00
; #@! TF.GenerationSoftware,Kicad,Pcbnew,8.0.4
; #@! TF.FileFunction,Plated,1,2,PTH
FMAT,2
METRIC
; #@! TA.AperFunction,Plated,PTH,ViaDrill
T1C0.300
; #@! TA.AperFunction,Plated,PTH,ComponentDrill
T2C0.600
; #@! TA.AperFunction,Plated,PTH,ComponentDrill
T3C0.800
; #@! TA.AperFunction,Plated,PTH,ComponentDrill
T4C1.000
%
G90
G05
T1
X189.25Y-69.55
X189.25Y-70.425
X189.275Y-71.65
X189.3Y-90.675
X189.35Y-73.45
X190.35Y-70.3
X190.375Y-71.3
X190.375Y-72.625
X190.4Y-69.525
X190.675Y-73.75
X190.8Y-90.725
X191.175Y-76.175
X191.25Y-92.575
X191.825Y-69.375
X192.025Y-63.7
X192.025Y-93.275
X192.05Y-90.725
X192.2Y-92.05
X192.25Y-64.775
X192.9Y-75.85
X193.6Y-76.925
X193.675Y-88.625
X193.825Y-63.625
X193.9Y-64.825
X194.125Y-89.5
X194.775Y-69.55
X195.475Y-63.675
X195.5Y-74.9
X196.025Y-66.3
X196.025Y-69.875
X196.3Y-78.875
X196.325Y-80.025
X196.35Y-87.65
X197.4Y-71.1
X197.425Y-65.125
X197.8Y-74.05
X198.0Y-76.4
X198.35Y-65.15
X198.375Y-71.625
X198.6Y-74.85
X198.8Y-76.375
X198.825Y-86.875
X198.95Y-79.95
X199.525Y-74.15
X199.575Y-87.65
X199.775Y-78.825
X200.675Y-90.15
X200.7Y-79.975
X200.7Y-87.175
X201.375Y-90.625
X201.825Y-87.675
X202.125Y-83.325
X202.125Y-85.875
X202.15Y-82.175
X202.175Y-84.675
X202.75Y-79.35
X202.8Y-75.55
X202.85Y-80.95
X203.05Y-76.45
X203.525Y-77.8
X203.775Y-89.825
X204.37Y-72.35
X205.6Y-89.6
X205.85Y-82.475
X205.875Y-90.575
X206.0Y-83.825
X206.325Y-89.8
X207.875Y-79.325
X207.95Y-84.9
X208.05Y-80.325
X208.068Y-66.21
X208.375Y-73.25
X208.486Y-72.441
X208.5Y-68.7
X208.675Y-89.375
X208.775Y-85.25
X208.9Y-79.25
X208.95Y-90.275
X209.1Y-84.6
X209.125Y-88.0
X209.38Y-71.48
X209.525Y-92.325
X209.55Y-89.375
X210.05Y-63.75
X210.05Y-88.3
X210.075Y-70.8
X210.075Y-93.225
X210.525Y-64.975
X210.65Y-83.45
X210.65Y-92.0
X210.675Y-81.1
X210.7Y-82.15
X210.75Y-77.325
X210.875Y-73.5
X211.025Y-68.275
X211.125Y-88.35
X211.35Y-93.35
X211.425Y-78.225
X211.475Y-63.95
X211.7Y-91.925
X211.95Y-73.525
X212.025Y-68.35
X212.575Y-70.85
X212.575Y-78.425
X212.625Y-89.65
X212.925Y-73.6
X213.25Y-90.7
X213.325Y-68.4
X213.725Y-89.65
X213.8Y-73.55
X213.825Y-78.5
X213.9Y-70.9
X214.075Y-68.4
T3
X198.625Y-63.75
X200.625Y-63.75
X202.625Y-63.75
X213.425Y-85.675
X213.425Y-87.675
T4
X194.61Y-92.975
X197.15Y-92.975
X199.69Y-92.975
X202.23Y-92.975
X204.77Y-92.975
X207.31Y-92.975
T2
G00X189.225Y-66.625
M15
G01X188.625Y-66.625
M16
G05
G00X189.225Y-75.265
M15
G01X188.625Y-75.265
M16
G05
G00X193.025Y-66.625
M15
G01X192.425Y-66.625
M16
G05
G00X193.025Y-75.265
M15
G01X192.425Y-75.265
M16
G05
M30
