%TF.GenerationSoftware,KiCad,Pcbnew,8.0.4*%
%TF.CreationDate,2024-12-08T23:45:12+08:00*%
%TF.ProjectId,funHomeSwitch,66756e48-6f6d-4655-9377-697463682e6b,rev?*%
%TF.SameCoordinates,Original*%
%TF.FileFunction,Copper,L2,Bot*%
%TF.FilePolarity,Positive*%
%FSLAX46Y46*%
G04 Gerber Fmt 4.6, Leading zero omitted, Abs format (unit mm)*
G04 Created by KiCad (PCBNEW 8.0.4) date 2024-12-08 23:45:12*
%MOMM*%
%LPD*%
G01*
G04 APERTURE LIST*
%TA.AperFunction,ComponentPad*%
%ADD10O,1.700000X1.100000*%
%TD*%
%TA.AperFunction,ComponentPad*%
%ADD11C,1.350000*%
%TD*%
%TA.AperFunction,ComponentPad*%
%ADD12O,1.350000X1.350000*%
%TD*%
%TA.AperFunction,ComponentPad*%
%ADD13R,1.700000X1.700000*%
%TD*%
%TA.AperFunction,ComponentPad*%
%ADD14O,1.700000X1.700000*%
%TD*%
%TA.AperFunction,ComponentPad*%
%ADD15R,1.350000X1.350000*%
%TD*%
%TA.AperFunction,ViaPad*%
%ADD16C,0.900000*%
%TD*%
%TA.AperFunction,ViaPad*%
%ADD17C,0.600000*%
%TD*%
%TA.AperFunction,Conductor*%
%ADD18C,1.000000*%
%TD*%
%TA.AperFunction,Conductor*%
%ADD19C,0.800000*%
%TD*%
%TA.AperFunction,Conductor*%
%ADD20C,0.200000*%
%TD*%
%TA.AperFunction,Conductor*%
%ADD21C,0.600000*%
%TD*%
G04 APERTURE END LIST*
D10*
%TO.P,J3,S1,SHIELD*%
%TO.N,GND*%
X192725000Y-66625000D03*
X188925000Y-66625000D03*
X192725000Y-75265000D03*
X188925000Y-75265000D03*
%TD*%
D11*
%TO.P,J2,1,Pin_1*%
%TO.N,/SG90_PWM*%
X202625000Y-63750000D03*
D12*
%TO.P,J2,2,Pin_2*%
%TO.N,+5V*%
X200625000Y-63750000D03*
%TO.P,J2,3,Pin_3*%
%TO.N,Net-(J2-Pin_3)*%
X198625000Y-63750000D03*
%TD*%
D13*
%TO.P,J1,1,Pin_1*%
%TO.N,+3V3*%
X194610000Y-92975000D03*
D14*
%TO.P,J1,2,Pin_2*%
%TO.N,/USB_SERIAL_RXI*%
X197150000Y-92975000D03*
%TO.P,J1,3,Pin_3*%
%TO.N,/USB_SERIAL_TXO*%
X199690000Y-92975000D03*
%TO.P,J1,4,Pin_4*%
%TO.N,/ESP32_EN*%
X202230000Y-92975000D03*
%TO.P,J1,5,Pin_5*%
%TO.N,/ESP32_BOOT*%
X204770000Y-92975000D03*
%TO.P,J1,6,Pin_6*%
%TO.N,GND*%
X207310000Y-92975000D03*
%TD*%
D15*
%TO.P,J4,1,Pin_1*%
%TO.N,GND*%
X213425000Y-87675000D03*
D12*
%TO.P,J4,2,Pin_2*%
%TO.N,/BAT+*%
X213425000Y-85675000D03*
%TD*%
D16*
%TO.N,+3V3*%
X195500000Y-74900000D03*
D17*
%TO.N,GND*%
X200700000Y-87175000D03*
X212025000Y-68350000D03*
X213250000Y-90700000D03*
X195475000Y-63675000D03*
X190350000Y-70300000D03*
X196025000Y-69875000D03*
X211025000Y-68275000D03*
X196325000Y-80025000D03*
X192025000Y-93275000D03*
X211475000Y-63950000D03*
X206000000Y-83825000D03*
X213325000Y-68400000D03*
X208775000Y-85250000D03*
X210075000Y-93225000D03*
X192200000Y-92050000D03*
X190375000Y-72625000D03*
X199525000Y-74150000D03*
X210650000Y-83450000D03*
X206325000Y-89800000D03*
X192025000Y-63700000D03*
X198600000Y-74850000D03*
X198375000Y-71625000D03*
X212925000Y-73600000D03*
X201375000Y-90625000D03*
X193675000Y-88625000D03*
X212575000Y-70850000D03*
X202175000Y-84675000D03*
X209525000Y-92325000D03*
X196300000Y-78875000D03*
X193600000Y-76925000D03*
X208068191Y-66210357D03*
X203525000Y-77800000D03*
X194775000Y-69550000D03*
X208900000Y-79250000D03*
X213825000Y-78500000D03*
X213900000Y-70900000D03*
X205875000Y-90575000D03*
X203050000Y-76450000D03*
X208950000Y-90275000D03*
X210700000Y-82150000D03*
X211700000Y-91925000D03*
X191250000Y-92575000D03*
X210525000Y-64975000D03*
X197400000Y-71100000D03*
X202150000Y-82175000D03*
X199775000Y-78825000D03*
X190375000Y-71300000D03*
X209100000Y-84600000D03*
X201825000Y-87675000D03*
X193900000Y-64825000D03*
X193825000Y-63625000D03*
X207875000Y-79325000D03*
X213725000Y-89650000D03*
X189250000Y-69550000D03*
X190675000Y-73750000D03*
X208050000Y-80325000D03*
X198350000Y-65150000D03*
X207950000Y-84900000D03*
X197800000Y-74050000D03*
X189275000Y-71650000D03*
X192250000Y-64775000D03*
X199575000Y-87650000D03*
X211350000Y-93350000D03*
X208675000Y-89375000D03*
X203775000Y-89825000D03*
X198825000Y-86875000D03*
X210675000Y-81100000D03*
X210050000Y-63750000D03*
X197425000Y-65125000D03*
X202800000Y-75550000D03*
X210875000Y-73500000D03*
X202125000Y-83325000D03*
X213800000Y-73550000D03*
X211950000Y-73525000D03*
X194125000Y-89500000D03*
X190400000Y-69525000D03*
X214075000Y-68400000D03*
X208486379Y-72441357D03*
X202125000Y-85875000D03*
X212575000Y-78425000D03*
X210075000Y-70800000D03*
X212625000Y-89650000D03*
X190800000Y-90725000D03*
X192900000Y-75850000D03*
X210650000Y-92000000D03*
X205600000Y-89600000D03*
X189250000Y-70425000D03*
X210750000Y-77325000D03*
X189300000Y-90675000D03*
X189350000Y-73450000D03*
X198950000Y-79950000D03*
X211425000Y-78225000D03*
X200700000Y-79975000D03*
X209380393Y-71480393D03*
X192050000Y-90725000D03*
X196350000Y-87650000D03*
X196025000Y-66300000D03*
X210050000Y-88300000D03*
X209125000Y-88000000D03*
X191175000Y-76175000D03*
X211125000Y-88350000D03*
X209550000Y-89375000D03*
X208375000Y-73250000D03*
%TO.N,/ESP32_EN*%
X200675000Y-90150000D03*
D16*
%TO.N,/VIN_5V*%
X208500000Y-68700000D03*
X191825000Y-69375000D03*
D17*
%TO.N,/ESP32_BOOT*%
X202750000Y-79350000D03*
%TO.N,/USB_SERIAL_TXO*%
X198000000Y-76400000D03*
%TO.N,/USB_SERIAL_RXI*%
X198800000Y-76375000D03*
D16*
%TO.N,/SG90_PWM*%
X202850000Y-80950000D03*
D17*
%TO.N,Net-(Q1-G)*%
X204369998Y-72350000D03*
X205850000Y-82475000D03*
%TD*%
D18*
%TO.N,/VIN_5V*%
X193275000Y-67925000D02*
X191825000Y-69375000D01*
X208500000Y-68700000D02*
X207725000Y-67925000D01*
X207725000Y-67925000D02*
X193275000Y-67925000D01*
D19*
%TO.N,+3V3*%
X195500000Y-74900000D02*
X195100000Y-75300000D01*
X195100000Y-92660000D02*
X194610000Y-93150000D01*
X195100000Y-75300000D02*
X195100000Y-92660000D01*
D20*
%TO.N,/ESP32_EN*%
X200675000Y-91595000D02*
X202230000Y-93150000D01*
X200675000Y-90150000D02*
X200675000Y-91595000D01*
%TO.N,/ESP32_BOOT*%
X202750000Y-79350000D02*
X204200000Y-79350000D01*
X204770000Y-79920000D02*
X204770000Y-93150000D01*
X204200000Y-79350000D02*
X204770000Y-79920000D01*
%TO.N,/USB_SERIAL_TXO*%
X198000000Y-76400000D02*
X198000000Y-91460000D01*
X198000000Y-91460000D02*
X199690000Y-93150000D01*
%TO.N,/USB_SERIAL_RXI*%
X198800000Y-76351471D02*
X198148529Y-75700000D01*
X198800000Y-76375000D02*
X198800000Y-76351471D01*
X197150000Y-75875000D02*
X197150000Y-93150000D01*
X197325000Y-75700000D02*
X197150000Y-75875000D01*
X198148529Y-75700000D02*
X197325000Y-75700000D01*
D21*
%TO.N,/SG90_PWM*%
X201800000Y-79900000D02*
X201800000Y-71450000D01*
X202850000Y-80950000D02*
X201800000Y-79900000D01*
X209875000Y-66475000D02*
X207150000Y-63750000D01*
X209875000Y-69725000D02*
X209875000Y-66475000D01*
X201800000Y-71450000D02*
X202900000Y-70350000D01*
X202900000Y-70350000D02*
X209250000Y-70350000D01*
X209250000Y-70350000D02*
X209875000Y-69725000D01*
X207150000Y-63750000D02*
X202625000Y-63750000D01*
D20*
%TO.N,Net-(Q1-G)*%
X204425000Y-72350000D02*
X205850000Y-73775000D01*
X204369998Y-72350000D02*
X204425000Y-72350000D01*
X205850000Y-73775000D02*
X205850000Y-82475000D01*
%TD*%
%TA.AperFunction,Conductor*%
%TO.N,GND*%
G36*
X197868057Y-62969407D02*
G01*
X197904021Y-63018907D01*
X197904021Y-63080093D01*
X197886394Y-63112304D01*
X197885561Y-63113320D01*
X197809976Y-63205420D01*
X197809969Y-63205430D01*
X197719397Y-63374880D01*
X197719395Y-63374885D01*
X197663614Y-63558768D01*
X197663613Y-63558773D01*
X197644780Y-63749996D01*
X197644780Y-63750003D01*
X197663613Y-63941226D01*
X197663614Y-63941231D01*
X197719395Y-64125114D01*
X197719397Y-64125119D01*
X197809969Y-64294569D01*
X197809975Y-64294578D01*
X197809977Y-64294581D01*
X197855869Y-64350500D01*
X197931875Y-64443115D01*
X197931884Y-64443124D01*
X197987637Y-64488879D01*
X198080419Y-64565023D01*
X198080423Y-64565025D01*
X198080430Y-64565030D01*
X198249880Y-64655602D01*
X198249886Y-64655605D01*
X198377988Y-64694464D01*
X198433768Y-64711385D01*
X198433773Y-64711386D01*
X198624997Y-64730220D01*
X198625000Y-64730220D01*
X198625003Y-64730220D01*
X198816226Y-64711386D01*
X198816231Y-64711385D01*
X199000114Y-64655605D01*
X199060870Y-64623129D01*
X199169569Y-64565030D01*
X199169572Y-64565027D01*
X199169581Y-64565023D01*
X199318120Y-64443120D01*
X199440023Y-64294581D01*
X199440027Y-64294572D01*
X199440030Y-64294569D01*
X199530602Y-64125119D01*
X199530605Y-64125114D01*
X199530607Y-64125105D01*
X199532464Y-64120625D01*
X199533793Y-64121175D01*
X199565244Y-64076046D01*
X199623051Y-64055997D01*
X199681603Y-64073755D01*
X199717193Y-64120766D01*
X199717536Y-64120625D01*
X199718079Y-64121938D01*
X199718534Y-64122538D01*
X199719284Y-64124847D01*
X199719397Y-64125119D01*
X199809969Y-64294569D01*
X199809975Y-64294578D01*
X199809977Y-64294581D01*
X199855869Y-64350500D01*
X199931875Y-64443115D01*
X199931884Y-64443124D01*
X199987637Y-64488879D01*
X200080419Y-64565023D01*
X200080423Y-64565025D01*
X200080430Y-64565030D01*
X200249880Y-64655602D01*
X200249886Y-64655605D01*
X200377988Y-64694464D01*
X200433768Y-64711385D01*
X200433773Y-64711386D01*
X200624997Y-64730220D01*
X200625000Y-64730220D01*
X200625003Y-64730220D01*
X200816226Y-64711386D01*
X200816231Y-64711385D01*
X201000114Y-64655605D01*
X201060870Y-64623129D01*
X201169569Y-64565030D01*
X201169572Y-64565027D01*
X201169581Y-64565023D01*
X201318120Y-64443120D01*
X201440023Y-64294581D01*
X201440027Y-64294572D01*
X201440030Y-64294569D01*
X201530602Y-64125119D01*
X201530605Y-64125114D01*
X201530607Y-64125105D01*
X201532464Y-64120625D01*
X201533793Y-64121175D01*
X201565244Y-64076046D01*
X201623051Y-64055997D01*
X201681603Y-64073755D01*
X201717193Y-64120766D01*
X201717536Y-64120625D01*
X201718079Y-64121938D01*
X201718534Y-64122538D01*
X201719284Y-64124847D01*
X201719397Y-64125119D01*
X201809969Y-64294569D01*
X201809975Y-64294578D01*
X201809977Y-64294581D01*
X201855869Y-64350500D01*
X201931875Y-64443115D01*
X201931884Y-64443124D01*
X201987637Y-64488879D01*
X202080419Y-64565023D01*
X202080423Y-64565025D01*
X202080430Y-64565030D01*
X202249880Y-64655602D01*
X202249886Y-64655605D01*
X202377988Y-64694464D01*
X202433768Y-64711385D01*
X202433773Y-64711386D01*
X202624997Y-64730220D01*
X202625000Y-64730220D01*
X202625003Y-64730220D01*
X202816226Y-64711386D01*
X202816231Y-64711385D01*
X203000114Y-64655605D01*
X203060870Y-64623129D01*
X203169569Y-64565030D01*
X203169572Y-64565027D01*
X203169581Y-64565023D01*
X203304423Y-64454361D01*
X203318118Y-64443122D01*
X203364427Y-64386695D01*
X203415959Y-64353708D01*
X203440955Y-64350500D01*
X206860257Y-64350500D01*
X206918448Y-64369407D01*
X206930261Y-64379496D01*
X209245504Y-66694739D01*
X209273281Y-66749256D01*
X209274500Y-66764743D01*
X209274500Y-68103414D01*
X209255593Y-68161605D01*
X209206093Y-68197569D01*
X209144907Y-68197569D01*
X209105496Y-68173418D01*
X208235292Y-67303214D01*
X208235289Y-67303211D01*
X208183059Y-67268312D01*
X208104185Y-67215609D01*
X208104174Y-67215603D01*
X207958497Y-67155263D01*
X207803844Y-67124500D01*
X207803842Y-67124500D01*
X193353843Y-67124500D01*
X193196158Y-67124500D01*
X193196155Y-67124500D01*
X193041504Y-67155261D01*
X192895821Y-67215605D01*
X192764711Y-67303211D01*
X192764707Y-67303214D01*
X191203214Y-68864707D01*
X191203211Y-68864711D01*
X191115609Y-68995814D01*
X191115603Y-68995825D01*
X191055263Y-69141501D01*
X191055263Y-69141503D01*
X191024500Y-69296155D01*
X191024500Y-69453844D01*
X191055263Y-69608496D01*
X191055263Y-69608498D01*
X191115603Y-69754174D01*
X191115609Y-69754185D01*
X191148933Y-69804057D01*
X191203211Y-69885289D01*
X191314711Y-69996789D01*
X191392876Y-70049017D01*
X191445814Y-70084390D01*
X191445825Y-70084396D01*
X191468324Y-70093715D01*
X191591503Y-70144737D01*
X191746158Y-70175500D01*
X191746159Y-70175500D01*
X191903841Y-70175500D01*
X191903842Y-70175500D01*
X192058497Y-70144737D01*
X192204179Y-70084394D01*
X192335289Y-69996789D01*
X193577582Y-68754496D01*
X193632099Y-68726719D01*
X193647586Y-68725500D01*
X207352414Y-68725500D01*
X207410605Y-68744407D01*
X207422418Y-68754496D01*
X207989711Y-69321789D01*
X208120821Y-69409394D01*
X208266503Y-69469738D01*
X208421158Y-69500500D01*
X208421160Y-69500500D01*
X208578841Y-69500500D01*
X208578843Y-69500500D01*
X208733498Y-69469738D01*
X208879179Y-69409394D01*
X209010290Y-69321789D01*
X209105498Y-69226580D01*
X209160013Y-69198805D01*
X209220445Y-69208376D01*
X209263710Y-69251641D01*
X209274500Y-69296586D01*
X209274500Y-69435257D01*
X209255593Y-69493448D01*
X209245504Y-69505261D01*
X209030261Y-69720504D01*
X208975744Y-69748281D01*
X208960257Y-69749500D01*
X202985136Y-69749500D01*
X202985120Y-69749499D01*
X202979057Y-69749499D01*
X202820943Y-69749499D01*
X202668215Y-69790423D01*
X202668213Y-69790423D01*
X202668209Y-69790425D01*
X202644599Y-69804057D01*
X202531284Y-69869479D01*
X202419479Y-69981283D01*
X202419480Y-69981284D01*
X202419478Y-69981286D01*
X201431286Y-70969478D01*
X201431284Y-70969480D01*
X201431283Y-70969479D01*
X201319479Y-71081284D01*
X201269359Y-71168095D01*
X201240425Y-71218209D01*
X201240423Y-71218213D01*
X201240423Y-71218215D01*
X201199499Y-71370943D01*
X201199499Y-71370945D01*
X201199499Y-71537031D01*
X201199500Y-71537044D01*
X201199500Y-79814863D01*
X201199499Y-79814881D01*
X201199499Y-79820943D01*
X201199499Y-79979057D01*
X201218070Y-80048363D01*
X201240424Y-80131788D01*
X201260126Y-80165911D01*
X201260127Y-80165914D01*
X201287709Y-80213687D01*
X201319480Y-80268716D01*
X201431284Y-80380520D01*
X201431286Y-80380521D01*
X202082190Y-81031425D01*
X202109967Y-81085942D01*
X202110563Y-81090342D01*
X202113686Y-81118059D01*
X202113686Y-81118060D01*
X202169544Y-81277690D01*
X202169544Y-81277691D01*
X202259520Y-81420886D01*
X202259523Y-81420890D01*
X202379110Y-81540477D01*
X202522310Y-81630456D01*
X202586232Y-81652823D01*
X202681934Y-81686311D01*
X202681938Y-81686312D01*
X202681941Y-81686313D01*
X202681942Y-81686313D01*
X202681946Y-81686314D01*
X202849996Y-81705249D01*
X202850000Y-81705249D01*
X202850004Y-81705249D01*
X203018053Y-81686314D01*
X203018055Y-81686313D01*
X203018059Y-81686313D01*
X203177690Y-81630456D01*
X203320890Y-81540477D01*
X203440477Y-81420890D01*
X203530456Y-81277690D01*
X203586313Y-81118059D01*
X203589932Y-81085942D01*
X203605249Y-80950004D01*
X203605249Y-80949995D01*
X203586314Y-80781946D01*
X203586311Y-80781934D01*
X203563480Y-80716690D01*
X203530456Y-80622310D01*
X203440477Y-80479110D01*
X203320890Y-80359523D01*
X203320887Y-80359521D01*
X203320886Y-80359520D01*
X203177691Y-80269544D01*
X203018059Y-80213686D01*
X202990342Y-80210563D01*
X202934635Y-80185258D01*
X202931425Y-80182190D01*
X202852115Y-80102880D01*
X202824338Y-80048363D01*
X202833909Y-79987931D01*
X202877174Y-79944666D01*
X202900667Y-79937372D01*
X202900494Y-79936723D01*
X202906755Y-79935044D01*
X202906762Y-79935044D01*
X203052841Y-79874536D01*
X203178282Y-79778282D01*
X203178281Y-79778282D01*
X203183430Y-79774332D01*
X203184490Y-79775713D01*
X203231584Y-79751719D01*
X203247071Y-79750500D01*
X203993100Y-79750500D01*
X204051291Y-79769407D01*
X204063103Y-79779496D01*
X204340503Y-80056895D01*
X204368281Y-80111412D01*
X204369500Y-80126899D01*
X204369500Y-91828520D01*
X204350593Y-91886711D01*
X204306264Y-91920834D01*
X204254986Y-91940699D01*
X204254975Y-91940705D01*
X204073699Y-92052946D01*
X204073692Y-92052952D01*
X203916135Y-92196586D01*
X203916131Y-92196589D01*
X203916128Y-92196593D01*
X203916125Y-92196597D01*
X203787635Y-92366743D01*
X203787630Y-92366752D01*
X203692596Y-92557608D01*
X203634244Y-92762688D01*
X203614571Y-92975000D01*
X203634244Y-93187311D01*
X203643559Y-93220050D01*
X203692595Y-93392389D01*
X203787634Y-93583255D01*
X203916128Y-93753407D01*
X203942381Y-93777340D01*
X203972646Y-93830514D01*
X203965875Y-93891323D01*
X203924655Y-93936540D01*
X203875684Y-93949500D01*
X203124316Y-93949500D01*
X203066125Y-93930593D01*
X203030161Y-93881093D01*
X203030161Y-93819907D01*
X203057618Y-93777340D01*
X203083872Y-93753407D01*
X203212366Y-93583255D01*
X203307405Y-93392389D01*
X203365756Y-93187310D01*
X203385429Y-92975000D01*
X203365756Y-92762690D01*
X203307405Y-92557611D01*
X203212366Y-92366745D01*
X203083872Y-92196593D01*
X202956125Y-92080135D01*
X202926307Y-92052952D01*
X202926300Y-92052946D01*
X202745024Y-91940705D01*
X202745019Y-91940702D01*
X202593960Y-91882182D01*
X202546198Y-91863679D01*
X202546197Y-91863678D01*
X202546195Y-91863678D01*
X202336610Y-91824500D01*
X202123390Y-91824500D01*
X201913802Y-91863678D01*
X201714986Y-91940699D01*
X201714976Y-91940704D01*
X201702664Y-91948327D01*
X201643235Y-91962881D01*
X201586601Y-91939724D01*
X201580549Y-91934156D01*
X201104496Y-91458103D01*
X201076719Y-91403586D01*
X201075500Y-91388099D01*
X201075500Y-90647071D01*
X201094407Y-90588880D01*
X201101715Y-90580324D01*
X201103282Y-90578282D01*
X201199536Y-90452841D01*
X201260044Y-90306762D01*
X201280682Y-90150000D01*
X201260044Y-89993238D01*
X201223430Y-89904845D01*
X201199537Y-89847161D01*
X201199537Y-89847160D01*
X201103286Y-89721723D01*
X201103285Y-89721722D01*
X201103282Y-89721718D01*
X201103277Y-89721714D01*
X201103276Y-89721713D01*
X200977838Y-89625462D01*
X200831766Y-89564957D01*
X200831758Y-89564955D01*
X200675001Y-89544318D01*
X200674999Y-89544318D01*
X200518241Y-89564955D01*
X200518233Y-89564957D01*
X200372161Y-89625462D01*
X200372160Y-89625462D01*
X200246723Y-89721713D01*
X200246713Y-89721723D01*
X200150462Y-89847160D01*
X200150462Y-89847161D01*
X200089957Y-89993233D01*
X200089955Y-89993241D01*
X200069318Y-90149999D01*
X200069318Y-90150000D01*
X200089955Y-90306758D01*
X200089957Y-90306766D01*
X200150462Y-90452838D01*
X200150462Y-90452839D01*
X200250668Y-90583431D01*
X200249283Y-90584493D01*
X200273279Y-90631569D01*
X200274500Y-90647071D01*
X200274500Y-91542273D01*
X200274500Y-91647727D01*
X200289075Y-91702122D01*
X200301794Y-91749592D01*
X200331381Y-91800837D01*
X200344103Y-91860685D01*
X200319217Y-91916581D01*
X200266229Y-91947174D01*
X200209721Y-91941234D01*
X200209287Y-91942356D01*
X200205021Y-91940703D01*
X200205019Y-91940702D01*
X200006198Y-91863679D01*
X200006197Y-91863678D01*
X200006195Y-91863678D01*
X199796610Y-91824500D01*
X199583390Y-91824500D01*
X199373802Y-91863678D01*
X199174986Y-91940699D01*
X199174976Y-91940704D01*
X199162664Y-91948327D01*
X199103235Y-91962881D01*
X199046601Y-91939724D01*
X199040549Y-91934156D01*
X198429496Y-91323103D01*
X198401719Y-91268586D01*
X198400500Y-91253099D01*
X198400500Y-77007662D01*
X198419407Y-76949471D01*
X198468907Y-76913507D01*
X198530093Y-76913507D01*
X198537372Y-76916193D01*
X198643238Y-76960044D01*
X198760809Y-76975522D01*
X198799999Y-76980682D01*
X198800000Y-76980682D01*
X198800001Y-76980682D01*
X198831352Y-76976554D01*
X198956762Y-76960044D01*
X199102841Y-76899536D01*
X199228282Y-76803282D01*
X199324536Y-76677841D01*
X199385044Y-76531762D01*
X199405682Y-76375000D01*
X199385044Y-76218238D01*
X199324537Y-76072161D01*
X199324537Y-76072160D01*
X199228286Y-75946723D01*
X199228285Y-75946722D01*
X199228282Y-75946718D01*
X199228277Y-75946714D01*
X199228276Y-75946713D01*
X199102838Y-75850462D01*
X198956766Y-75789957D01*
X198956759Y-75789955D01*
X198815168Y-75771314D01*
X198759943Y-75744973D01*
X198758088Y-75743165D01*
X198394442Y-75379520D01*
X198394437Y-75379516D01*
X198303120Y-75326794D01*
X198303122Y-75326794D01*
X198263599Y-75316204D01*
X198201256Y-75299500D01*
X197272273Y-75299500D01*
X197209931Y-75316204D01*
X197170408Y-75326794D01*
X197097320Y-75368993D01*
X197097317Y-75368995D01*
X197079090Y-75379517D01*
X196829516Y-75629091D01*
X196776794Y-75720408D01*
X196776793Y-75720410D01*
X196763688Y-75769316D01*
X196763689Y-75769317D01*
X196749500Y-75822273D01*
X196749500Y-91828520D01*
X196730593Y-91886711D01*
X196686264Y-91920834D01*
X196634986Y-91940699D01*
X196634975Y-91940705D01*
X196453699Y-92052946D01*
X196453692Y-92052952D01*
X196296135Y-92196586D01*
X196296131Y-92196589D01*
X196296128Y-92196593D01*
X196296125Y-92196597D01*
X196167635Y-92366743D01*
X196167630Y-92366752D01*
X196072596Y-92557608D01*
X196014244Y-92762688D01*
X195994571Y-92975000D01*
X196014244Y-93187311D01*
X196023559Y-93220050D01*
X196072595Y-93392389D01*
X196167634Y-93583255D01*
X196296128Y-93753407D01*
X196322381Y-93777340D01*
X196352646Y-93830514D01*
X196345875Y-93891323D01*
X196304655Y-93936540D01*
X196255684Y-93949500D01*
X195859500Y-93949500D01*
X195801309Y-93930593D01*
X195765345Y-93881093D01*
X195760500Y-93850500D01*
X195760499Y-92915600D01*
X195768034Y-92877715D01*
X195773580Y-92864328D01*
X195800500Y-92728994D01*
X195800500Y-92591006D01*
X195800500Y-75652255D01*
X195819407Y-75594064D01*
X195846825Y-75568432D01*
X195970890Y-75490477D01*
X196090477Y-75370890D01*
X196180456Y-75227690D01*
X196236313Y-75068059D01*
X196255249Y-74900000D01*
X196255249Y-74899995D01*
X196236314Y-74731946D01*
X196236311Y-74731934D01*
X196213480Y-74666690D01*
X196180456Y-74572310D01*
X196090477Y-74429110D01*
X195970890Y-74309523D01*
X195970887Y-74309521D01*
X195970886Y-74309520D01*
X195827691Y-74219544D01*
X195668065Y-74163688D01*
X195668053Y-74163685D01*
X195500004Y-74144751D01*
X195499996Y-74144751D01*
X195331946Y-74163685D01*
X195331934Y-74163688D01*
X195172309Y-74219544D01*
X195172308Y-74219544D01*
X195029113Y-74309520D01*
X194909520Y-74429113D01*
X194819543Y-74572311D01*
X194819542Y-74572314D01*
X194817592Y-74577887D01*
X194794153Y-74615188D01*
X194555885Y-74853457D01*
X194479223Y-74968191D01*
X194426422Y-75095665D01*
X194426419Y-75095675D01*
X194416397Y-75146062D01*
X194416397Y-75146063D01*
X194399500Y-75231006D01*
X194399500Y-91725500D01*
X194380593Y-91783691D01*
X194331093Y-91819655D01*
X194300500Y-91824500D01*
X193715139Y-91824500D01*
X193715136Y-91824501D01*
X193690009Y-91827414D01*
X193587235Y-91872794D01*
X193507794Y-91952235D01*
X193462414Y-92055011D01*
X193459500Y-92080130D01*
X193459500Y-92080132D01*
X193459501Y-93850500D01*
X193440594Y-93908691D01*
X193391094Y-93944655D01*
X193360501Y-93949500D01*
X190397286Y-93949500D01*
X190339095Y-93930593D01*
X190303131Y-93881093D01*
X190303131Y-93819907D01*
X190314404Y-93796355D01*
X190399173Y-93666607D01*
X190499063Y-93438881D01*
X190560108Y-93197821D01*
X190580643Y-92950000D01*
X190560108Y-92702179D01*
X190499063Y-92461119D01*
X190399173Y-92233393D01*
X190263164Y-92025215D01*
X190094744Y-91842262D01*
X189975677Y-91749588D01*
X189898512Y-91689528D01*
X189898509Y-91689526D01*
X189679813Y-91571173D01*
X189444611Y-91490428D01*
X189199335Y-91449500D01*
X188950665Y-91449500D01*
X188705388Y-91490428D01*
X188470186Y-91571173D01*
X188251490Y-91689526D01*
X188251481Y-91689532D01*
X188235306Y-91702122D01*
X188177772Y-91722943D01*
X188118988Y-91705969D01*
X188081408Y-91657685D01*
X188075500Y-91623997D01*
X188075500Y-89999000D01*
X188094407Y-89940809D01*
X188143907Y-89904845D01*
X188174500Y-89900000D01*
X193199999Y-89900000D01*
X193200000Y-89900000D01*
X193200000Y-76700000D01*
X193199999Y-76700000D01*
X188174500Y-76700000D01*
X188116309Y-76681093D01*
X188080345Y-76631593D01*
X188075500Y-76601000D01*
X188075500Y-65326002D01*
X188094407Y-65267811D01*
X188143907Y-65231847D01*
X188205093Y-65231847D01*
X188235305Y-65247875D01*
X188251491Y-65260474D01*
X188470190Y-65378828D01*
X188705386Y-65459571D01*
X188950665Y-65500500D01*
X189199335Y-65500500D01*
X189444614Y-65459571D01*
X189679810Y-65378828D01*
X189898509Y-65260474D01*
X190094744Y-65107738D01*
X190263164Y-64924785D01*
X190399173Y-64716607D01*
X190499063Y-64488881D01*
X190560108Y-64247821D01*
X190580643Y-64000000D01*
X190560108Y-63752179D01*
X190499063Y-63511119D01*
X190399173Y-63283393D01*
X190281739Y-63103647D01*
X190265742Y-63044591D01*
X190287511Y-62987409D01*
X190338734Y-62953944D01*
X190364620Y-62950500D01*
X197809866Y-62950500D01*
X197868057Y-62969407D01*
G37*
%TD.AperFunction*%
%TA.AperFunction,Conductor*%
G36*
X212343571Y-62969407D02*
G01*
X212379535Y-63018907D01*
X212379535Y-63080093D01*
X212368260Y-63103647D01*
X212250827Y-63283393D01*
X212180378Y-63444002D01*
X212150937Y-63511120D01*
X212089891Y-63752180D01*
X212069357Y-64000000D01*
X212089891Y-64247819D01*
X212101733Y-64294581D01*
X212150937Y-64488881D01*
X212250827Y-64716607D01*
X212386836Y-64924785D01*
X212555256Y-65107738D01*
X212751491Y-65260474D01*
X212970190Y-65378828D01*
X213205386Y-65459571D01*
X213450665Y-65500500D01*
X213699335Y-65500500D01*
X213944614Y-65459571D01*
X214179810Y-65378828D01*
X214398509Y-65260474D01*
X214414693Y-65247877D01*
X214472225Y-65227056D01*
X214531009Y-65244028D01*
X214568591Y-65292311D01*
X214574500Y-65326002D01*
X214574500Y-85436497D01*
X214555593Y-85494688D01*
X214506093Y-85530652D01*
X214444907Y-85530652D01*
X214395407Y-85494688D01*
X214380763Y-85465235D01*
X214369689Y-85428730D01*
X214330605Y-85299886D01*
X214330602Y-85299880D01*
X214240030Y-85130430D01*
X214240025Y-85130423D01*
X214240023Y-85130419D01*
X214174975Y-85051158D01*
X214118124Y-84981884D01*
X214118115Y-84981875D01*
X214031521Y-84910810D01*
X213969581Y-84859977D01*
X213969578Y-84859975D01*
X213969569Y-84859969D01*
X213800119Y-84769397D01*
X213800114Y-84769395D01*
X213616231Y-84713614D01*
X213616226Y-84713613D01*
X213425003Y-84694780D01*
X213424997Y-84694780D01*
X213233773Y-84713613D01*
X213233768Y-84713614D01*
X213049885Y-84769395D01*
X213049880Y-84769397D01*
X212880430Y-84859969D01*
X212880420Y-84859976D01*
X212731884Y-84981875D01*
X212731875Y-84981884D01*
X212609976Y-85130420D01*
X212609969Y-85130430D01*
X212519397Y-85299880D01*
X212519395Y-85299885D01*
X212463614Y-85483768D01*
X212463613Y-85483773D01*
X212444780Y-85674996D01*
X212444780Y-85675003D01*
X212463613Y-85866226D01*
X212463614Y-85866231D01*
X212519395Y-86050114D01*
X212519397Y-86050119D01*
X212609969Y-86219569D01*
X212609975Y-86219578D01*
X212609977Y-86219581D01*
X212660810Y-86281521D01*
X212731875Y-86368115D01*
X212731884Y-86368124D01*
X212801158Y-86424975D01*
X212880419Y-86490023D01*
X212880423Y-86490025D01*
X212880430Y-86490030D01*
X213049880Y-86580602D01*
X213049886Y-86580605D01*
X213177988Y-86619464D01*
X213233768Y-86636385D01*
X213233773Y-86636386D01*
X213424997Y-86655220D01*
X213425000Y-86655220D01*
X213425003Y-86655220D01*
X213616226Y-86636386D01*
X213616231Y-86636385D01*
X213800114Y-86580605D01*
X213860870Y-86548129D01*
X213969569Y-86490030D01*
X213969572Y-86490027D01*
X213969581Y-86490023D01*
X214118120Y-86368120D01*
X214240023Y-86219581D01*
X214240027Y-86219572D01*
X214240030Y-86219569D01*
X214330602Y-86050119D01*
X214330605Y-86050114D01*
X214380763Y-85884763D01*
X214415748Y-85834567D01*
X214473556Y-85814521D01*
X214532107Y-85832282D01*
X214569036Y-85881067D01*
X214574500Y-85913502D01*
X214574500Y-91623997D01*
X214555593Y-91682188D01*
X214506093Y-91718152D01*
X214444907Y-91718152D01*
X214414694Y-91702122D01*
X214398518Y-91689532D01*
X214398509Y-91689526D01*
X214179813Y-91571173D01*
X213944611Y-91490428D01*
X213699335Y-91449500D01*
X213450665Y-91449500D01*
X213205388Y-91490428D01*
X212970186Y-91571173D01*
X212751490Y-91689526D01*
X212751487Y-91689528D01*
X212555259Y-91842259D01*
X212555256Y-91842261D01*
X212555256Y-91842262D01*
X212470662Y-91934156D01*
X212386835Y-92025216D01*
X212367369Y-92055011D01*
X212250827Y-92233393D01*
X212162292Y-92435234D01*
X212150937Y-92461120D01*
X212089891Y-92702180D01*
X212069357Y-92950000D01*
X212089891Y-93197819D01*
X212089892Y-93197821D01*
X212150937Y-93438881D01*
X212250827Y-93666607D01*
X212335594Y-93796353D01*
X212351592Y-93855409D01*
X212329823Y-93912591D01*
X212278600Y-93946056D01*
X212252714Y-93949500D01*
X205664316Y-93949500D01*
X205606125Y-93930593D01*
X205570161Y-93881093D01*
X205570161Y-93819907D01*
X205597618Y-93777340D01*
X205623872Y-93753407D01*
X205752366Y-93583255D01*
X205847405Y-93392389D01*
X205905756Y-93187310D01*
X205925429Y-92975000D01*
X205905756Y-92762690D01*
X205847405Y-92557611D01*
X205752366Y-92366745D01*
X205623872Y-92196593D01*
X205496125Y-92080135D01*
X205466307Y-92052952D01*
X205466300Y-92052946D01*
X205285024Y-91940705D01*
X205285022Y-91940704D01*
X205285019Y-91940702D01*
X205285017Y-91940701D01*
X205285013Y-91940699D01*
X205233736Y-91920834D01*
X205186305Y-91882182D01*
X205170500Y-91828520D01*
X205170500Y-82867532D01*
X205189407Y-82809341D01*
X205238907Y-82773377D01*
X205300093Y-82773377D01*
X205348041Y-82807264D01*
X205421718Y-82903282D01*
X205547159Y-82999536D01*
X205693238Y-83060044D01*
X205810809Y-83075522D01*
X205849999Y-83080682D01*
X205850000Y-83080682D01*
X205850001Y-83080682D01*
X205881352Y-83076554D01*
X206006762Y-83060044D01*
X206152841Y-82999536D01*
X206278282Y-82903282D01*
X206374536Y-82777841D01*
X206435044Y-82631762D01*
X206455682Y-82475000D01*
X206435044Y-82318238D01*
X206374537Y-82172161D01*
X206374537Y-82172160D01*
X206274332Y-82041570D01*
X206275713Y-82040509D01*
X206251719Y-81993416D01*
X206250500Y-81977929D01*
X206250500Y-73722274D01*
X206250500Y-73722273D01*
X206223207Y-73620413D01*
X206170480Y-73529087D01*
X206095913Y-73454519D01*
X206095913Y-73454520D01*
X204997059Y-72355666D01*
X204969282Y-72301149D01*
X204968910Y-72298583D01*
X204955042Y-72193241D01*
X204955042Y-72193238D01*
X204894535Y-72047161D01*
X204894535Y-72047160D01*
X204798284Y-71921723D01*
X204798283Y-71921722D01*
X204798280Y-71921718D01*
X204798275Y-71921714D01*
X204798274Y-71921713D01*
X204672836Y-71825462D01*
X204526764Y-71764957D01*
X204526756Y-71764955D01*
X204369999Y-71744318D01*
X204369997Y-71744318D01*
X204213239Y-71764955D01*
X204213231Y-71764957D01*
X204067159Y-71825462D01*
X204067158Y-71825462D01*
X203941721Y-71921713D01*
X203941711Y-71921723D01*
X203845460Y-72047160D01*
X203845460Y-72047161D01*
X203784955Y-72193233D01*
X203784953Y-72193241D01*
X203764316Y-72349999D01*
X203764316Y-72350000D01*
X203784953Y-72506758D01*
X203784955Y-72506766D01*
X203845460Y-72652838D01*
X203845460Y-72652839D01*
X203845462Y-72652841D01*
X203941716Y-72778282D01*
X204067157Y-72874536D01*
X204213236Y-72935044D01*
X204369998Y-72955682D01*
X204404915Y-72951084D01*
X204465072Y-72962233D01*
X204487840Y-72979233D01*
X205420504Y-73911897D01*
X205448281Y-73966414D01*
X205449500Y-73981901D01*
X205449500Y-81977929D01*
X205430593Y-82036120D01*
X205423275Y-82044687D01*
X205348042Y-82142734D01*
X205297617Y-82177390D01*
X205236453Y-82175788D01*
X205187911Y-82138541D01*
X205170500Y-82082467D01*
X205170500Y-79980714D01*
X205170501Y-79980701D01*
X205170501Y-79867272D01*
X205170500Y-79867270D01*
X205158086Y-79820943D01*
X205143207Y-79765413D01*
X205118839Y-79723207D01*
X205090480Y-79674087D01*
X205015913Y-79599520D01*
X205015910Y-79599518D01*
X204445913Y-79029520D01*
X204445910Y-79029518D01*
X204445908Y-79029516D01*
X204354591Y-78976794D01*
X204354593Y-78976794D01*
X204315070Y-78966204D01*
X204252727Y-78949500D01*
X204252725Y-78949500D01*
X203247071Y-78949500D01*
X203188880Y-78930593D01*
X203180312Y-78923276D01*
X203052838Y-78825462D01*
X202906766Y-78764957D01*
X202906758Y-78764955D01*
X202750001Y-78744318D01*
X202749999Y-78744318D01*
X202593241Y-78764955D01*
X202593239Y-78764955D01*
X202593238Y-78764956D01*
X202548867Y-78783334D01*
X202537385Y-78788091D01*
X202476388Y-78792890D01*
X202424219Y-78760920D01*
X202400805Y-78704392D01*
X202400500Y-78696626D01*
X202400500Y-71739743D01*
X202419407Y-71681552D01*
X202429496Y-71669739D01*
X203119739Y-70979496D01*
X203174256Y-70951719D01*
X203189743Y-70950500D01*
X209164864Y-70950500D01*
X209164880Y-70950501D01*
X209170943Y-70950501D01*
X209329056Y-70950501D01*
X209329057Y-70950501D01*
X209481785Y-70909577D01*
X209531904Y-70880639D01*
X209618716Y-70830520D01*
X209730520Y-70718716D01*
X209730521Y-70718713D01*
X210243713Y-70205521D01*
X210243716Y-70205520D01*
X210355520Y-70093716D01*
X210434577Y-69956784D01*
X210464534Y-69844981D01*
X210475500Y-69804058D01*
X210475500Y-69645943D01*
X210475500Y-66562044D01*
X210475501Y-66562031D01*
X210475501Y-66395943D01*
X210434577Y-66243215D01*
X210434576Y-66243214D01*
X210405639Y-66193094D01*
X210405639Y-66193093D01*
X210405637Y-66193091D01*
X210355524Y-66106289D01*
X210355521Y-66106286D01*
X210355520Y-66106284D01*
X210243716Y-65994480D01*
X210243713Y-65994478D01*
X207630521Y-63381286D01*
X207630520Y-63381284D01*
X207518716Y-63269480D01*
X207518713Y-63269478D01*
X207408569Y-63205886D01*
X207408565Y-63205885D01*
X207381785Y-63190423D01*
X207229057Y-63149499D01*
X207070943Y-63149499D01*
X207064880Y-63149499D01*
X207064864Y-63149500D01*
X203440955Y-63149500D01*
X203382764Y-63130593D01*
X203364439Y-63113320D01*
X203363618Y-63112320D01*
X203341307Y-63055347D01*
X203356744Y-62996141D01*
X203404034Y-62957317D01*
X203440134Y-62950500D01*
X212285380Y-62950500D01*
X212343571Y-62969407D01*
G37*
%TD.AperFunction*%
%TD*%
M02*
