%TF.GenerationSoftware,KiCad,Pcbnew,8.0.4*%
%TF.CreationDate,2024-12-08T23:45:12+08:00*%
%TF.ProjectId,funHomeSwitch,66756e48-6f6d-4655-9377-697463682e6b,rev?*%
%TF.SameCoordinates,Original*%
%TF.FileFunction,Copper,L1,Top*%
%TF.FilePolarity,Positive*%
%FSLAX46Y46*%
G04 Gerber Fmt 4.6, Leading zero omitted, Abs format (unit mm)*
G04 Created by KiCad (PCBNEW 8.0.4) date 2024-12-08 23:45:12*
%MOMM*%
%LPD*%
G01*
G04 APERTURE LIST*
G04 Aperture macros list*
%AMRoundRect*
0 Rectangle with rounded corners*
0 $1 Rounding radius*
0 $2 $3 $4 $5 $6 $7 $8 $9 X,Y pos of 4 corners*
0 Add a 4 corners polygon primitive as box body*
4,1,4,$2,$3,$4,$5,$6,$7,$8,$9,$2,$3,0*
0 Add four circle primitives for the rounded corners*
1,1,$1+$1,$2,$3*
1,1,$1+$1,$4,$5*
1,1,$1+$1,$6,$7*
1,1,$1+$1,$8,$9*
0 Add four rect primitives between the rounded corners*
20,1,$1+$1,$2,$3,$4,$5,0*
20,1,$1+$1,$4,$5,$6,$7,0*
20,1,$1+$1,$6,$7,$8,$9,0*
20,1,$1+$1,$8,$9,$2,$3,0*%
%AMFreePoly0*
4,1,6,0.725000,-0.725000,-0.725000,-0.725000,-0.725000,0.125000,-0.125000,0.725000,0.725000,0.725000,0.725000,-0.725000,0.725000,-0.725000,$1*%
G04 Aperture macros list end*
%TA.AperFunction,SMDPad,CuDef*%
%ADD10RoundRect,0.140000X0.170000X-0.140000X0.170000X0.140000X-0.170000X0.140000X-0.170000X-0.140000X0*%
%TD*%
%TA.AperFunction,SMDPad,CuDef*%
%ADD11RoundRect,0.135000X0.185000X-0.135000X0.185000X0.135000X-0.185000X0.135000X-0.185000X-0.135000X0*%
%TD*%
%TA.AperFunction,SMDPad,CuDef*%
%ADD12RoundRect,0.135000X-0.185000X0.135000X-0.185000X-0.135000X0.185000X-0.135000X0.185000X0.135000X0*%
%TD*%
%TA.AperFunction,SMDPad,CuDef*%
%ADD13RoundRect,0.150000X0.587500X0.150000X-0.587500X0.150000X-0.587500X-0.150000X0.587500X-0.150000X0*%
%TD*%
%TA.AperFunction,SMDPad,CuDef*%
%ADD14RoundRect,0.218750X0.218750X0.256250X-0.218750X0.256250X-0.218750X-0.256250X0.218750X-0.256250X0*%
%TD*%
%TA.AperFunction,SMDPad,CuDef*%
%ADD15RoundRect,0.140000X0.140000X0.170000X-0.140000X0.170000X-0.140000X-0.170000X0.140000X-0.170000X0*%
%TD*%
%TA.AperFunction,SMDPad,CuDef*%
%ADD16RoundRect,0.135000X-0.135000X-0.185000X0.135000X-0.185000X0.135000X0.185000X-0.135000X0.185000X0*%
%TD*%
%TA.AperFunction,SMDPad,CuDef*%
%ADD17RoundRect,0.250000X-0.650000X0.325000X-0.650000X-0.325000X0.650000X-0.325000X0.650000X0.325000X0*%
%TD*%
%TA.AperFunction,SMDPad,CuDef*%
%ADD18RoundRect,0.218750X-0.256250X0.218750X-0.256250X-0.218750X0.256250X-0.218750X0.256250X0.218750X0*%
%TD*%
%TA.AperFunction,SMDPad,CuDef*%
%ADD19RoundRect,0.178200X-0.151800X0.721800X-0.151800X-0.721800X0.151800X-0.721800X0.151800X0.721800X0*%
%TD*%
%TA.AperFunction,SMDPad,CuDef*%
%ADD20R,3.300000X2.410000*%
%TD*%
%TA.AperFunction,SMDPad,CuDef*%
%ADD21RoundRect,0.250000X0.650000X-0.325000X0.650000X0.325000X-0.650000X0.325000X-0.650000X-0.325000X0*%
%TD*%
%TA.AperFunction,SMDPad,CuDef*%
%ADD22RoundRect,0.175000X-0.425000X0.175000X-0.425000X-0.175000X0.425000X-0.175000X0.425000X0.175000X0*%
%TD*%
%TA.AperFunction,SMDPad,CuDef*%
%ADD23RoundRect,0.190000X0.410000X-0.190000X0.410000X0.190000X-0.410000X0.190000X-0.410000X-0.190000X0*%
%TD*%
%TA.AperFunction,SMDPad,CuDef*%
%ADD24RoundRect,0.200000X0.400000X-0.200000X0.400000X0.200000X-0.400000X0.200000X-0.400000X-0.200000X0*%
%TD*%
%TA.AperFunction,SMDPad,CuDef*%
%ADD25RoundRect,0.175000X0.425000X-0.175000X0.425000X0.175000X-0.425000X0.175000X-0.425000X-0.175000X0*%
%TD*%
%TA.AperFunction,SMDPad,CuDef*%
%ADD26RoundRect,0.190000X-0.410000X0.190000X-0.410000X-0.190000X0.410000X-0.190000X0.410000X0.190000X0*%
%TD*%
%TA.AperFunction,SMDPad,CuDef*%
%ADD27RoundRect,0.200000X-0.400000X0.200000X-0.400000X-0.200000X0.400000X-0.200000X0.400000X0.200000X0*%
%TD*%
%TA.AperFunction,ComponentPad*%
%ADD28O,1.700000X1.100000*%
%TD*%
%TA.AperFunction,SMDPad,CuDef*%
%ADD29RoundRect,0.375000X0.625000X0.375000X-0.625000X0.375000X-0.625000X-0.375000X0.625000X-0.375000X0*%
%TD*%
%TA.AperFunction,SMDPad,CuDef*%
%ADD30RoundRect,0.500000X0.500000X1.400000X-0.500000X1.400000X-0.500000X-1.400000X0.500000X-1.400000X0*%
%TD*%
%TA.AperFunction,SMDPad,CuDef*%
%ADD31RoundRect,0.200000X-0.200000X-0.275000X0.200000X-0.275000X0.200000X0.275000X-0.200000X0.275000X0*%
%TD*%
%TA.AperFunction,SMDPad,CuDef*%
%ADD32RoundRect,0.135000X0.135000X0.185000X-0.135000X0.185000X-0.135000X-0.185000X0.135000X-0.185000X0*%
%TD*%
%TA.AperFunction,SMDPad,CuDef*%
%ADD33R,2.500000X1.900000*%
%TD*%
%TA.AperFunction,ComponentPad*%
%ADD34C,1.350000*%
%TD*%
%TA.AperFunction,ComponentPad*%
%ADD35O,1.350000X1.350000*%
%TD*%
%TA.AperFunction,SMDPad,CuDef*%
%ADD36RoundRect,0.218750X0.256250X-0.218750X0.256250X0.218750X-0.256250X0.218750X-0.256250X-0.218750X0*%
%TD*%
%TA.AperFunction,SMDPad,CuDef*%
%ADD37R,0.400000X0.800000*%
%TD*%
%TA.AperFunction,SMDPad,CuDef*%
%ADD38R,0.800000X0.400000*%
%TD*%
%TA.AperFunction,SMDPad,CuDef*%
%ADD39FreePoly0,90.000000*%
%TD*%
%TA.AperFunction,SMDPad,CuDef*%
%ADD40R,1.450000X1.450000*%
%TD*%
%TA.AperFunction,SMDPad,CuDef*%
%ADD41R,0.700000X0.700000*%
%TD*%
%TA.AperFunction,SMDPad,CuDef*%
%ADD42RoundRect,0.225000X-0.250000X0.225000X-0.250000X-0.225000X0.250000X-0.225000X0.250000X0.225000X0*%
%TD*%
%TA.AperFunction,SMDPad,CuDef*%
%ADD43R,1.100000X0.800000*%
%TD*%
%TA.AperFunction,ComponentPad*%
%ADD44R,1.700000X1.700000*%
%TD*%
%TA.AperFunction,ComponentPad*%
%ADD45O,1.700000X1.700000*%
%TD*%
%TA.AperFunction,SMDPad,CuDef*%
%ADD46RoundRect,0.140000X-0.140000X-0.170000X0.140000X-0.170000X0.140000X0.170000X-0.140000X0.170000X0*%
%TD*%
%TA.AperFunction,ComponentPad*%
%ADD47R,1.350000X1.350000*%
%TD*%
%TA.AperFunction,ViaPad*%
%ADD48C,0.900000*%
%TD*%
%TA.AperFunction,ViaPad*%
%ADD49C,0.600000*%
%TD*%
%TA.AperFunction,Conductor*%
%ADD50C,0.600000*%
%TD*%
%TA.AperFunction,Conductor*%
%ADD51C,0.400000*%
%TD*%
%TA.AperFunction,Conductor*%
%ADD52C,0.200000*%
%TD*%
%TA.AperFunction,Conductor*%
%ADD53C,0.800000*%
%TD*%
%TA.AperFunction,Conductor*%
%ADD54C,1.000000*%
%TD*%
G04 APERTURE END LIST*
D10*
%TO.P,C4,1*%
%TO.N,+5V*%
X198425000Y-67950000D03*
%TO.P,C4,2*%
%TO.N,GND*%
X198425000Y-66990000D03*
%TD*%
D11*
%TO.P,R9,1*%
%TO.N,Net-(U3-LED1)*%
X207275000Y-67885000D03*
%TO.P,R9,2*%
%TO.N,Net-(D2-A)*%
X207275000Y-66865000D03*
%TD*%
D12*
%TO.P,R7,1*%
%TO.N,/SG90_POWER*%
X205100000Y-81115000D03*
%TO.P,R7,2*%
%TO.N,Net-(Q1-G)*%
X205100000Y-82135000D03*
%TD*%
D13*
%TO.P,Q1,1,G*%
%TO.N,Net-(Q1-G)*%
X196950000Y-68250000D03*
%TO.P,Q1,2,S*%
%TO.N,GND*%
X196950000Y-66350000D03*
%TO.P,Q1,3,D*%
%TO.N,Net-(J2-Pin_3)*%
X195075000Y-67300000D03*
%TD*%
D14*
%TO.P,D1,1,K*%
%TO.N,GND*%
X208187500Y-84700000D03*
%TO.P,D1,2,A*%
%TO.N,Net-(D1-A)*%
X206612500Y-84700000D03*
%TD*%
D15*
%TO.P,C2,1*%
%TO.N,+3V3*%
X196085000Y-90700000D03*
%TO.P,C2,2*%
%TO.N,GND*%
X195125000Y-90700000D03*
%TD*%
D16*
%TO.P,R3,1*%
%TO.N,/LED_CTRL*%
X205465000Y-86000000D03*
%TO.P,R3,2*%
%TO.N,Net-(D1-A)*%
X206485000Y-86000000D03*
%TD*%
D17*
%TO.P,C12,1*%
%TO.N,Net-(U3-BAT)*%
X210625000Y-84725000D03*
%TO.P,C12,2*%
%TO.N,GND*%
X210625000Y-87675000D03*
%TD*%
D15*
%TO.P,C1,1*%
%TO.N,+3V3*%
X194205000Y-90700000D03*
%TO.P,C1,2*%
%TO.N,GND*%
X193245000Y-90700000D03*
%TD*%
D18*
%TO.P,D3,1,K*%
%TO.N,Net-(D2-A)*%
X201825000Y-66600000D03*
%TO.P,D3,2,A*%
%TO.N,Net-(D2-K)*%
X201825000Y-68175000D03*
%TD*%
D19*
%TO.P,U3,1,VCC*%
%TO.N,/VIN_5V*%
X208460000Y-70025000D03*
%TO.P,U3,2,LED1*%
%TO.N,Net-(U3-LED1)*%
X207190000Y-70025000D03*
%TO.P,U3,3,LED2*%
%TO.N,Net-(U3-LED2)*%
X205920000Y-70025000D03*
%TO.P,U3,4,LED3*%
%TO.N,Net-(D2-K)*%
X204650000Y-70025000D03*
%TO.P,U3,5,KEY*%
%TO.N,unconnected-(U3-KEY-Pad5)*%
X204650000Y-75235000D03*
%TO.P,U3,6,BAT*%
%TO.N,Net-(U3-BAT)*%
X205920000Y-75235000D03*
%TO.P,U3,7,SW*%
%TO.N,Net-(U3-SW)*%
X207190000Y-75235000D03*
%TO.P,U3,8,VOUT*%
%TO.N,+5V*%
X208460000Y-75235000D03*
D20*
%TO.P,U3,9,GND*%
%TO.N,GND*%
X206555000Y-72630000D03*
%TD*%
D21*
%TO.P,C7,1*%
%TO.N,+5V*%
X211125000Y-69775000D03*
%TO.P,C7,2*%
%TO.N,GND*%
X211125000Y-66825000D03*
%TD*%
D22*
%TO.P,J3,A5,CC1*%
%TO.N,unconnected-(J3-CC1-PadA5)*%
X192805000Y-70445000D03*
D23*
%TO.P,J3,A9,VBUS*%
%TO.N,/VIN_5V*%
X192805000Y-72465000D03*
D24*
%TO.P,J3,A12,GND*%
%TO.N,GND*%
X192805000Y-73695000D03*
D25*
%TO.P,J3,B5,CC2*%
%TO.N,unconnected-(J3-CC2-PadB5)*%
X192805000Y-71445000D03*
D26*
%TO.P,J3,B9,VBUS*%
%TO.N,/VIN_5V*%
X192805000Y-69425000D03*
D27*
%TO.P,J3,B12,GND*%
%TO.N,GND*%
X192805000Y-68195000D03*
D28*
%TO.P,J3,S1,SHIELD*%
X192725000Y-66625000D03*
X188925000Y-66625000D03*
X192725000Y-75265000D03*
X188925000Y-75265000D03*
%TD*%
D29*
%TO.P,U1,1,GND*%
%TO.N,GND*%
X201800000Y-74937500D03*
%TO.P,U1,2,Output*%
%TO.N,+3V3*%
X201800000Y-72637500D03*
D30*
X195500000Y-72637500D03*
D29*
%TO.P,U1,3,Input*%
%TO.N,+5V*%
X201800000Y-70337500D03*
%TD*%
D31*
%TO.P,R12,1*%
%TO.N,Net-(U3-BAT)*%
X212475000Y-83225000D03*
%TO.P,R12,2*%
%TO.N,/BAT+*%
X214125000Y-83225000D03*
%TD*%
D32*
%TO.P,R1,1*%
%TO.N,/ESP32_EN*%
X198045000Y-90700000D03*
%TO.P,R1,2*%
%TO.N,+3V3*%
X197025000Y-90700000D03*
%TD*%
D33*
%TO.P,L1,1,1*%
%TO.N,Net-(U3-SW)*%
X208700000Y-77775000D03*
%TO.P,L1,2,2*%
%TO.N,/BAT+*%
X208700000Y-81875000D03*
%TD*%
D34*
%TO.P,J2,1,Pin_1*%
%TO.N,/SG90_PWM*%
X202625000Y-63750000D03*
D35*
%TO.P,J2,2,Pin_2*%
%TO.N,+5V*%
X200625000Y-63750000D03*
%TO.P,J2,3,Pin_3*%
%TO.N,Net-(J2-Pin_3)*%
X198625000Y-63750000D03*
%TD*%
D36*
%TO.P,D2,1,K*%
%TO.N,Net-(D2-K)*%
X200225000Y-68150000D03*
%TO.P,D2,2,A*%
%TO.N,Net-(D2-A)*%
X200225000Y-66575000D03*
%TD*%
%TO.P,D4,1,K*%
%TO.N,Net-(D2-K)*%
X203400000Y-68125000D03*
%TO.P,D4,2,A*%
%TO.N,Net-(D4-A)*%
X203400000Y-66550000D03*
%TD*%
D32*
%TO.P,R2,1*%
%TO.N,/BAT+*%
X208470000Y-87025000D03*
%TO.P,R2,2*%
%TO.N,Net-(U2-GPIO1{slash}ADC1_CH1{slash}XTAL_32K_N)*%
X207450000Y-87025000D03*
%TD*%
D16*
%TO.P,R4,1*%
%TO.N,Net-(U2-GPIO1{slash}ADC1_CH1{slash}XTAL_32K_N)*%
X207450000Y-88075000D03*
%TO.P,R4,2*%
%TO.N,GND*%
X208470000Y-88075000D03*
%TD*%
D37*
%TO.P,U2,1,GND*%
%TO.N,GND*%
X194800000Y-89200000D03*
%TO.P,U2,2,GND*%
X195600000Y-89200000D03*
%TO.P,U2,3,3V3*%
%TO.N,+3V3*%
X196400000Y-89200000D03*
%TO.P,U2,4,NC*%
%TO.N,unconnected-(U2-NC-Pad4)*%
X197200000Y-89200000D03*
%TO.P,U2,5,GPIO2/ADC1_CH2*%
%TO.N,unconnected-(U2-GPIO2{slash}ADC1_CH2-Pad5)*%
X198000000Y-89200000D03*
%TO.P,U2,6,GPIO3/ADC1_CH3*%
%TO.N,unconnected-(U2-GPIO3{slash}ADC1_CH3-Pad6)*%
X198800000Y-89200000D03*
%TO.P,U2,7,NC*%
%TO.N,unconnected-(U2-NC-Pad7)*%
X199600000Y-89200000D03*
%TO.P,U2,8,EN/CHIP_PU*%
%TO.N,/ESP32_EN*%
X200400000Y-89200000D03*
%TO.P,U2,9,NC*%
%TO.N,unconnected-(U2-NC-Pad9)*%
X201200000Y-89200000D03*
%TO.P,U2,10,NC*%
%TO.N,unconnected-(U2-NC-Pad10)*%
X202000000Y-89200000D03*
%TO.P,U2,11,GND*%
%TO.N,GND*%
X202800000Y-89200000D03*
D38*
%TO.P,U2,12,GPIO0/ADC1_CH0/XTAL_32K_P*%
%TO.N,/LSensorIO*%
X203700000Y-88100000D03*
%TO.P,U2,13,GPIO1/ADC1_CH1/XTAL_32K_N*%
%TO.N,Net-(U2-GPIO1{slash}ADC1_CH1{slash}XTAL_32K_N)*%
X203700000Y-87300000D03*
%TO.P,U2,14,GND*%
%TO.N,GND*%
X203700000Y-86500000D03*
%TO.P,U2,15,NC*%
%TO.N,unconnected-(U2-NC-Pad15)*%
X203700000Y-85700000D03*
%TO.P,U2,16,GPIO10*%
%TO.N,/LED_CTRL*%
X203700000Y-84900000D03*
%TO.P,U2,17,NC*%
%TO.N,unconnected-(U2-NC-Pad17)*%
X203700000Y-84100000D03*
%TO.P,U2,18,GPIO4/ADC1_CH4*%
%TO.N,unconnected-(U2-GPIO4{slash}ADC1_CH4-Pad18)*%
X203700000Y-83300000D03*
%TO.P,U2,19,GPIO5/ADC2_CH0*%
%TO.N,unconnected-(U2-GPIO5{slash}ADC2_CH0-Pad19)*%
X203700000Y-82500000D03*
%TO.P,U2,20,GPIO6*%
%TO.N,/SG90_POWER*%
X203700000Y-81700000D03*
%TO.P,U2,21,GPIO7*%
%TO.N,/SG90_PWM*%
X203700000Y-80900000D03*
%TO.P,U2,22,GPIO8*%
%TO.N,Net-(U2-GPIO8)*%
X203700000Y-80100000D03*
%TO.P,U2,23,GPIO9*%
%TO.N,/ESP32_BOOT*%
X203700000Y-79300000D03*
%TO.P,U2,24,NC*%
%TO.N,unconnected-(U2-NC-Pad24)*%
X203700000Y-78500000D03*
D37*
%TO.P,U2,25,NC*%
%TO.N,unconnected-(U2-NC-Pad25)*%
X202800000Y-77400000D03*
%TO.P,U2,26,GPIO18/USB_D-*%
%TO.N,unconnected-(U2-GPIO18{slash}USB_D--Pad26)*%
X202000000Y-77400000D03*
%TO.P,U2,27,GPIO19/USB_D+*%
%TO.N,unconnected-(U2-GPIO19{slash}USB_D+-Pad27)*%
X201200000Y-77400000D03*
%TO.P,U2,28,NC*%
%TO.N,unconnected-(U2-NC-Pad28)*%
X200400000Y-77400000D03*
%TO.P,U2,29,NC*%
%TO.N,unconnected-(U2-NC-Pad29)*%
X199600000Y-77400000D03*
%TO.P,U2,30,GPIO20/U0RXD*%
%TO.N,/USB_SERIAL_RXI*%
X198800000Y-77400000D03*
%TO.P,U2,31,GPIO21/U0TXD*%
%TO.N,/USB_SERIAL_TXO*%
X198000000Y-77400000D03*
%TO.P,U2,32,NC*%
%TO.N,unconnected-(U2-NC-Pad32)*%
X197200000Y-77400000D03*
%TO.P,U2,33,NC*%
%TO.N,unconnected-(U2-NC-Pad33)*%
X196400000Y-77400000D03*
%TO.P,U2,34,NC*%
%TO.N,unconnected-(U2-NC-Pad34)*%
X195600000Y-77400000D03*
%TO.P,U2,35,NC*%
%TO.N,unconnected-(U2-NC-Pad35)*%
X194800000Y-77400000D03*
D38*
%TO.P,U2,36,GND*%
%TO.N,GND*%
X193900000Y-78500000D03*
%TO.P,U2,37,GND*%
X193900000Y-79300000D03*
%TO.P,U2,38,GND*%
X193900000Y-80100000D03*
%TO.P,U2,39,GND*%
X193900000Y-80900000D03*
%TO.P,U2,40,GND*%
X193900000Y-81700000D03*
%TO.P,U2,41,GND*%
X193900000Y-82500000D03*
%TO.P,U2,42,GND*%
X193900000Y-83300000D03*
%TO.P,U2,43,GND*%
X193900000Y-84100000D03*
%TO.P,U2,44,GND*%
X193900000Y-84900000D03*
%TO.P,U2,45,GND*%
X193900000Y-85700000D03*
%TO.P,U2,46,GND*%
X193900000Y-86500000D03*
%TO.P,U2,47,GND*%
X193900000Y-87300000D03*
%TO.P,U2,48,GND*%
X193900000Y-88100000D03*
D39*
%TO.P,U2,49,GND*%
X196825000Y-85275000D03*
D40*
X198800000Y-85275000D03*
X200775000Y-85275000D03*
X196825000Y-83300000D03*
X198800000Y-83300000D03*
X200775000Y-83300000D03*
X196825000Y-81325000D03*
X198800000Y-81325000D03*
X200775000Y-81325000D03*
D41*
%TO.P,U2,50,GND*%
X193850000Y-77350000D03*
%TO.P,U2,51,GND*%
X203750000Y-77350000D03*
%TO.P,U2,52,GND*%
X203750000Y-89250000D03*
%TO.P,U2,53,GND*%
X193850000Y-89250000D03*
%TD*%
D12*
%TO.P,R8,1*%
%TO.N,Net-(Q1-G)*%
X205125000Y-83100000D03*
%TO.P,R8,2*%
%TO.N,GND*%
X205125000Y-84120000D03*
%TD*%
D11*
%TO.P,R10,1*%
%TO.N,Net-(U3-LED2)*%
X206275000Y-67885000D03*
%TO.P,R10,2*%
%TO.N,Net-(D4-A)*%
X206275000Y-66865000D03*
%TD*%
D17*
%TO.P,C8,1*%
%TO.N,+5V*%
X211075000Y-72100000D03*
%TO.P,C8,2*%
%TO.N,GND*%
X211075000Y-75050000D03*
%TD*%
D11*
%TO.P,R5,1*%
%TO.N,Net-(U2-GPIO8)*%
X205075000Y-80135000D03*
%TO.P,R5,2*%
%TO.N,+3V3*%
X205075000Y-79115000D03*
%TD*%
D42*
%TO.P,C10,1*%
%TO.N,GND*%
X208525000Y-66575000D03*
%TO.P,C10,2*%
%TO.N,/VIN_5V*%
X208525000Y-68125000D03*
%TD*%
D43*
%TO.P,Q2,1,C*%
%TO.N,+3V3*%
X211025000Y-89875000D03*
%TO.P,Q2,2,E*%
%TO.N,Net-(Q2-E)*%
X207475000Y-89325000D03*
%TO.P,Q2,3,NC*%
%TO.N,unconnected-(Q2-NC-Pad3)*%
X207475000Y-90425000D03*
%TD*%
D44*
%TO.P,J1,1,Pin_1*%
%TO.N,+3V3*%
X194610000Y-92975000D03*
D45*
%TO.P,J1,2,Pin_2*%
%TO.N,/USB_SERIAL_RXI*%
X197150000Y-92975000D03*
%TO.P,J1,3,Pin_3*%
%TO.N,/USB_SERIAL_TXO*%
X199690000Y-92975000D03*
%TO.P,J1,4,Pin_4*%
%TO.N,/ESP32_EN*%
X202230000Y-92975000D03*
%TO.P,J1,5,Pin_5*%
%TO.N,/ESP32_BOOT*%
X204770000Y-92975000D03*
%TO.P,J1,6,Pin_6*%
%TO.N,GND*%
X207310000Y-92975000D03*
%TD*%
D17*
%TO.P,C9,1*%
%TO.N,+5V*%
X213550000Y-72100000D03*
%TO.P,C9,2*%
%TO.N,GND*%
X213550000Y-75050000D03*
%TD*%
D21*
%TO.P,C11,1*%
%TO.N,/BAT+*%
X213500000Y-79800000D03*
%TO.P,C11,2*%
%TO.N,GND*%
X213500000Y-76850000D03*
%TD*%
D15*
%TO.P,C5,1*%
%TO.N,GND*%
X208410000Y-86000000D03*
%TO.P,C5,2*%
%TO.N,Net-(U2-GPIO1{slash}ADC1_CH1{slash}XTAL_32K_N)*%
X207450000Y-86000000D03*
%TD*%
D18*
%TO.P,D5,1,K*%
%TO.N,Net-(D4-A)*%
X204975000Y-66600000D03*
%TO.P,D5,2,A*%
%TO.N,Net-(D2-K)*%
X204975000Y-68175000D03*
%TD*%
D16*
%TO.P,R13,1*%
%TO.N,/LSensorIO*%
X205415000Y-88100000D03*
%TO.P,R13,2*%
%TO.N,Net-(Q2-E)*%
X206435000Y-88100000D03*
%TD*%
D31*
%TO.P,R11,1*%
%TO.N,Net-(U3-BAT)*%
X212475000Y-81625000D03*
%TO.P,R11,2*%
%TO.N,/BAT+*%
X214125000Y-81625000D03*
%TD*%
D46*
%TO.P,C3,1*%
%TO.N,/ESP32_EN*%
X198995000Y-90700000D03*
%TO.P,C3,2*%
%TO.N,GND*%
X199955000Y-90700000D03*
%TD*%
D11*
%TO.P,R6,1*%
%TO.N,/ESP32_BOOT*%
X205100000Y-78085000D03*
%TO.P,R6,2*%
%TO.N,+3V3*%
X205100000Y-77065000D03*
%TD*%
D21*
%TO.P,C6,1*%
%TO.N,+5V*%
X213550000Y-69775000D03*
%TO.P,C6,2*%
%TO.N,GND*%
X213550000Y-66825000D03*
%TD*%
D47*
%TO.P,J4,1,Pin_1*%
%TO.N,GND*%
X213425000Y-87675000D03*
D35*
%TO.P,J4,2,Pin_2*%
%TO.N,/BAT+*%
X213425000Y-85675000D03*
%TD*%
D48*
%TO.N,+3V3*%
X195500000Y-74900000D03*
D49*
%TO.N,GND*%
X200700000Y-87175000D03*
X212025000Y-68350000D03*
X213250000Y-90700000D03*
X195475000Y-63675000D03*
X190350000Y-70300000D03*
X196025000Y-69875000D03*
X211025000Y-68275000D03*
X196325000Y-80025000D03*
X192025000Y-93275000D03*
X211475000Y-63950000D03*
X206000000Y-83825000D03*
X213325000Y-68400000D03*
X208775000Y-85250000D03*
X210075000Y-93225000D03*
X192200000Y-92050000D03*
X190375000Y-72625000D03*
X199525000Y-74150000D03*
X210650000Y-83450000D03*
X206325000Y-89800000D03*
X192025000Y-63700000D03*
X198600000Y-74850000D03*
X198375000Y-71625000D03*
X212925000Y-73600000D03*
X201375000Y-90625000D03*
X193675000Y-88625000D03*
X212575000Y-70850000D03*
X202175000Y-84675000D03*
X209525000Y-92325000D03*
X196300000Y-78875000D03*
X193600000Y-76925000D03*
X208068191Y-66210357D03*
X203525000Y-77800000D03*
X194775000Y-69550000D03*
X208900000Y-79250000D03*
X213825000Y-78500000D03*
X213900000Y-70900000D03*
X205875000Y-90575000D03*
X203050000Y-76450000D03*
X208950000Y-90275000D03*
X210700000Y-82150000D03*
X211700000Y-91925000D03*
X191250000Y-92575000D03*
X210525000Y-64975000D03*
X197400000Y-71100000D03*
X202150000Y-82175000D03*
X199775000Y-78825000D03*
X190375000Y-71300000D03*
X209100000Y-84600000D03*
X201825000Y-87675000D03*
X193900000Y-64825000D03*
X193825000Y-63625000D03*
X207875000Y-79325000D03*
X213725000Y-89650000D03*
X189250000Y-69550000D03*
X190675000Y-73750000D03*
X208050000Y-80325000D03*
X198350000Y-65150000D03*
X207950000Y-84900000D03*
X197800000Y-74050000D03*
X189275000Y-71650000D03*
X192250000Y-64775000D03*
X199575000Y-87650000D03*
X211350000Y-93350000D03*
X208675000Y-89375000D03*
X203775000Y-89825000D03*
X198825000Y-86875000D03*
X210675000Y-81100000D03*
X210050000Y-63750000D03*
X197425000Y-65125000D03*
X202800000Y-75550000D03*
X210875000Y-73500000D03*
X202125000Y-83325000D03*
X213800000Y-73550000D03*
X211950000Y-73525000D03*
X194125000Y-89500000D03*
X190400000Y-69525000D03*
X214075000Y-68400000D03*
X208486379Y-72441357D03*
X202125000Y-85875000D03*
X212575000Y-78425000D03*
X210075000Y-70800000D03*
X212625000Y-89650000D03*
X190800000Y-90725000D03*
X192900000Y-75850000D03*
X210650000Y-92000000D03*
X205600000Y-89600000D03*
X189250000Y-70425000D03*
X210750000Y-77325000D03*
X189300000Y-90675000D03*
X189350000Y-73450000D03*
X198950000Y-79950000D03*
X211425000Y-78225000D03*
X200700000Y-79975000D03*
X209380393Y-71480393D03*
X192050000Y-90725000D03*
X196350000Y-87650000D03*
X196025000Y-66300000D03*
X210050000Y-88300000D03*
X209125000Y-88000000D03*
X191175000Y-76175000D03*
X211125000Y-88350000D03*
X209550000Y-89375000D03*
X208375000Y-73250000D03*
%TO.N,/ESP32_EN*%
X200675000Y-90150000D03*
D48*
%TO.N,/VIN_5V*%
X208500000Y-68700000D03*
X191825000Y-69375000D03*
D49*
%TO.N,/ESP32_BOOT*%
X202750000Y-79350000D03*
%TO.N,/USB_SERIAL_TXO*%
X198000000Y-76400000D03*
%TO.N,/USB_SERIAL_RXI*%
X198800000Y-76375000D03*
D48*
%TO.N,/SG90_PWM*%
X202850000Y-80950000D03*
D49*
%TO.N,Net-(Q1-G)*%
X204369998Y-72350000D03*
X205850000Y-82475000D03*
%TD*%
D50*
%TO.N,+3V3*%
X196085000Y-90958976D02*
X195518976Y-91525000D01*
D51*
X203625000Y-75906236D02*
X204783764Y-77065000D01*
D52*
X194205000Y-92745000D02*
X194610000Y-93150000D01*
D53*
X194205000Y-90700000D02*
X194205000Y-91525000D01*
D51*
X205410000Y-79115000D02*
X205075000Y-79115000D01*
X205100000Y-77065000D02*
X205419999Y-77065000D01*
X203625000Y-74150000D02*
X203625000Y-75906236D01*
D50*
X196085000Y-90700000D02*
X196085000Y-90958976D01*
D51*
X204783764Y-77065000D02*
X205100000Y-77065000D01*
D53*
X194205000Y-91525000D02*
X194205000Y-92745000D01*
D50*
X197025000Y-90901768D02*
X197648232Y-91525000D01*
D51*
X201800000Y-72637500D02*
X202112500Y-72637500D01*
D50*
X196400000Y-90385000D02*
X196400000Y-89200000D01*
X195125000Y-91525000D02*
X194205000Y-91525000D01*
D53*
X195500000Y-72637500D02*
X195500000Y-74900000D01*
D51*
X202112500Y-72637500D02*
X203625000Y-74150000D01*
D50*
X196085000Y-90700000D02*
X196400000Y-90385000D01*
X195150000Y-91550000D02*
X195125000Y-91525000D01*
D51*
X205820000Y-78705000D02*
X205410000Y-79115000D01*
D50*
X197025000Y-90700000D02*
X197025000Y-90901768D01*
D51*
X205419999Y-77065000D02*
X205820000Y-77465001D01*
D50*
X209450000Y-91525000D02*
X211000000Y-89975000D01*
X196085000Y-90700000D02*
X197025000Y-90700000D01*
D51*
X205820000Y-77465001D02*
X205820000Y-78705000D01*
D50*
X195518976Y-91525000D02*
X195175000Y-91525000D01*
D54*
X201825000Y-72737500D02*
X195525000Y-72737500D01*
D50*
X195175000Y-91525000D02*
X195150000Y-91550000D01*
X197648232Y-91525000D02*
X209450000Y-91525000D01*
D52*
%TO.N,GND*%
X201975000Y-90625000D02*
X202800000Y-89800000D01*
X197785000Y-66350000D02*
X198425000Y-66990000D01*
X208475000Y-84987500D02*
X208187500Y-84700000D01*
X192805000Y-68195000D02*
X195558052Y-68195000D01*
X192805000Y-66705000D02*
X192725000Y-66625000D01*
X195558052Y-68195000D02*
X196950000Y-66803052D01*
X195125000Y-89525000D02*
X195125000Y-90700000D01*
X194800000Y-89200000D02*
X195125000Y-89525000D01*
X201100000Y-90900000D02*
X201375000Y-90625000D01*
X200155000Y-90900000D02*
X201100000Y-90900000D01*
X208475000Y-85975000D02*
X208475000Y-84987500D01*
X199955000Y-90700000D02*
X200155000Y-90900000D01*
X205977814Y-84120000D02*
X206172814Y-83925000D01*
X207412500Y-83925000D02*
X208187500Y-84700000D01*
X202800000Y-89800000D02*
X202800000Y-89200000D01*
X192805000Y-68195000D02*
X192805000Y-66705000D01*
X205125000Y-84120000D02*
X205977814Y-84120000D01*
D54*
X213525000Y-75050000D02*
X213550000Y-75025000D01*
D52*
X196950000Y-66803052D02*
X196950000Y-66350000D01*
X201375000Y-90625000D02*
X201975000Y-90625000D01*
X206172814Y-83925000D02*
X207412500Y-83925000D01*
X196950000Y-66350000D02*
X197785000Y-66350000D01*
D50*
%TO.N,+5V*%
X199250000Y-65225000D02*
X199250000Y-67525000D01*
X209525001Y-68175001D02*
X211125000Y-69775000D01*
D54*
X210175000Y-72100000D02*
X209375000Y-72900000D01*
X209375000Y-72900000D02*
X209375000Y-74185000D01*
X211075000Y-72100000D02*
X210175000Y-72100000D01*
D50*
X200625000Y-63775000D02*
X201800000Y-64950000D01*
D54*
X209375000Y-74185000D02*
X208425000Y-75135000D01*
D50*
X208900000Y-64950000D02*
X209525001Y-65575001D01*
D54*
X198525000Y-69775000D02*
X198525000Y-68250000D01*
X199187500Y-70437500D02*
X198525000Y-69775000D01*
X201825000Y-70437500D02*
X199187500Y-70437500D01*
X211075000Y-72100000D02*
X211075000Y-69825000D01*
D50*
X199250000Y-67525000D02*
X199200000Y-67575000D01*
D52*
X213525000Y-69800000D02*
X213550000Y-69775000D01*
D50*
X200625000Y-63750000D02*
X199200000Y-65175000D01*
X209525001Y-65575001D02*
X209525001Y-68175001D01*
D54*
X211075000Y-69825000D02*
X211125000Y-69775000D01*
D50*
X199200000Y-67575000D02*
X198525000Y-68250000D01*
D54*
X213525000Y-69800000D02*
X210999570Y-69800000D01*
X211075000Y-72100000D02*
X213575000Y-72100000D01*
D50*
X201800000Y-64950000D02*
X208900000Y-64950000D01*
D52*
%TO.N,/ESP32_EN*%
X200675000Y-90150000D02*
X200400000Y-89875000D01*
X200400000Y-89200000D02*
X200500000Y-88900000D01*
X200500000Y-88900000D02*
X200400000Y-89800000D01*
X200125000Y-90075000D02*
X199620000Y-90075000D01*
X198045000Y-90700000D02*
X198995000Y-90700000D01*
X200400000Y-89875000D02*
X200400000Y-89200000D01*
X199620000Y-90075000D02*
X198995000Y-90700000D01*
X200400000Y-89800000D02*
X200125000Y-90075000D01*
D51*
%TO.N,Net-(J2-Pin_3)*%
X196875000Y-63750000D02*
X198171948Y-63750000D01*
X195075000Y-67300000D02*
X195075000Y-65550000D01*
D52*
X198171948Y-63750000D02*
X198625000Y-63750000D01*
D51*
X195075000Y-65550000D02*
X196875000Y-63750000D01*
%TO.N,Net-(U2-GPIO1{slash}ADC1_CH1{slash}XTAL_32K_N)*%
X203700000Y-87300000D02*
X207140000Y-87300000D01*
X207500000Y-85990000D02*
X207500000Y-87870000D01*
X207140000Y-87300000D02*
X207490000Y-86950000D01*
X207515000Y-85975000D02*
X207500000Y-85990000D01*
D53*
%TO.N,/VIN_5V*%
X192805000Y-69425000D02*
X191725000Y-69425000D01*
X191665000Y-72465000D02*
X192805000Y-72465000D01*
D54*
X208500000Y-70200000D02*
X208425000Y-70275000D01*
D53*
X191725000Y-69425000D02*
X191275000Y-69875000D01*
X191275000Y-69875000D02*
X191275000Y-72075000D01*
D54*
X208525000Y-68125000D02*
X208500000Y-68150000D01*
X208500000Y-68150000D02*
X208500000Y-70200000D01*
D53*
X191275000Y-72075000D02*
X191665000Y-72465000D01*
D54*
%TO.N,/BAT+*%
X214075000Y-85025000D02*
X213100000Y-86000000D01*
X210075000Y-79800000D02*
X207975000Y-81900000D01*
X209390000Y-86521820D02*
X208886820Y-87025000D01*
X209550000Y-86000000D02*
X209390000Y-86160000D01*
X208886820Y-87025000D02*
X208525000Y-87025000D01*
X214075000Y-80375000D02*
X214075000Y-85025000D01*
X213100000Y-86000000D02*
X209550000Y-86000000D01*
X209390000Y-86160000D02*
X209390000Y-86521820D01*
X213500000Y-79800000D02*
X214075000Y-80375000D01*
X213500000Y-79800000D02*
X210075000Y-79800000D01*
%TO.N,Net-(U3-BAT)*%
X212475000Y-84150000D02*
X211900000Y-84725000D01*
D50*
X207050000Y-83325000D02*
X209050000Y-83325000D01*
D54*
X211900000Y-84725000D02*
X210450000Y-84725000D01*
D50*
X205885000Y-76324214D02*
X206900000Y-77339214D01*
D54*
X212475000Y-81625000D02*
X212475000Y-83225000D01*
D50*
X206900000Y-83175000D02*
X207050000Y-83325000D01*
X206900000Y-77339214D02*
X206900000Y-83175000D01*
X205885000Y-75135000D02*
X205885000Y-76324214D01*
X209050000Y-83325000D02*
X210450000Y-84725000D01*
D54*
X212475000Y-83225000D02*
X212475000Y-84150000D01*
D51*
%TO.N,Net-(D1-A)*%
X206485000Y-84665000D02*
X206600000Y-84550000D01*
X206485000Y-85775000D02*
X206485000Y-84665000D01*
D50*
%TO.N,Net-(D2-K)*%
X204975000Y-69915000D02*
X204625000Y-70265000D01*
X204887500Y-68087500D02*
X204975000Y-68175000D01*
X199875000Y-68087500D02*
X204887500Y-68087500D01*
X204975000Y-68175000D02*
X204975000Y-69915000D01*
D52*
X204625000Y-70265000D02*
X204615000Y-70275000D01*
%TO.N,Net-(D2-A)*%
X201575000Y-66475000D02*
X201600000Y-66500000D01*
D51*
X202712500Y-65712500D02*
X206202846Y-65712500D01*
X200050000Y-66475000D02*
X201575000Y-66475000D01*
X206202846Y-65712500D02*
X207275000Y-66784654D01*
X207275000Y-66784654D02*
X207275000Y-66865000D01*
X201825000Y-66600000D02*
X202712500Y-65712500D01*
%TO.N,Net-(D4-A)*%
X205672500Y-66462500D02*
X206025000Y-66815000D01*
D52*
X204575000Y-66462500D02*
X205082500Y-66462500D01*
D51*
X203187500Y-66462500D02*
X204575000Y-66462500D01*
D52*
X204575000Y-66462500D02*
X204625000Y-66512500D01*
D51*
X203175000Y-66450000D02*
X203187500Y-66462500D01*
X205082500Y-66462500D02*
X205672500Y-66462500D01*
D52*
%TO.N,/ESP32_BOOT*%
X205100000Y-78151076D02*
X205100000Y-78085000D01*
X203700000Y-79300000D02*
X203951076Y-79300000D01*
X203951076Y-79300000D02*
X205100000Y-78151076D01*
X202800000Y-79300000D02*
X202750000Y-79350000D01*
X203700000Y-79300000D02*
X202800000Y-79300000D01*
%TO.N,/USB_SERIAL_TXO*%
X198000000Y-77400000D02*
X198000000Y-76400000D01*
%TO.N,/USB_SERIAL_RXI*%
X198800000Y-77400000D02*
X198800000Y-76375000D01*
%TO.N,/SG90_PWM*%
X202900000Y-80900000D02*
X202850000Y-80950000D01*
D50*
X203700000Y-80900000D02*
X202900000Y-80900000D01*
D52*
%TO.N,Net-(U3-SW)*%
X208275000Y-77750000D02*
X207975000Y-78050000D01*
D54*
X207155000Y-76180000D02*
X208725000Y-77750000D01*
D52*
X208725000Y-77750000D02*
X208275000Y-77750000D01*
D54*
X207155000Y-75135000D02*
X207155000Y-76180000D01*
D52*
%TO.N,Net-(Q1-G)*%
X205100000Y-82135000D02*
X205100000Y-83075000D01*
X205510000Y-82135000D02*
X205850000Y-82475000D01*
X203419998Y-71400000D02*
X199018629Y-71400000D01*
X205100000Y-83075000D02*
X205125000Y-83100000D01*
X204369998Y-72350000D02*
X203419998Y-71400000D01*
X196950000Y-69331371D02*
X196950000Y-68250000D01*
X199018629Y-71400000D02*
X196950000Y-69331371D01*
X205100000Y-82135000D02*
X205510000Y-82135000D01*
D51*
%TO.N,/LED_CTRL*%
X204590000Y-84900000D02*
X205465000Y-85775000D01*
X203700000Y-84900000D02*
X204590000Y-84900000D01*
D52*
%TO.N,Net-(U2-GPIO8)*%
X205075000Y-80135000D02*
X203735000Y-80135000D01*
X203735000Y-80135000D02*
X203700000Y-80100000D01*
%TO.N,/SG90_POWER*%
X204515000Y-81700000D02*
X205100000Y-81115000D01*
X203700000Y-81700000D02*
X204515000Y-81700000D01*
D50*
%TO.N,Net-(U3-LED1)*%
X207155000Y-70275000D02*
X207275000Y-70155000D01*
X207275000Y-70155000D02*
X207275000Y-67885000D01*
%TO.N,Net-(U3-LED2)*%
X205885000Y-70275000D02*
X206275000Y-69885000D01*
X206275000Y-69885000D02*
X206275000Y-67885000D01*
D51*
%TO.N,Net-(Q2-E)*%
X206435000Y-88610000D02*
X207225000Y-89400000D01*
X206435000Y-88100000D02*
X206435000Y-88610000D01*
%TO.N,/LSensorIO*%
X203700000Y-88100000D02*
X205415000Y-88100000D01*
%TD*%
%TA.AperFunction,Conductor*%
%TO.N,GND*%
G36*
X197868057Y-62969407D02*
G01*
X197904021Y-63018907D01*
X197904021Y-63080093D01*
X197886394Y-63112305D01*
X197809979Y-63205416D01*
X197809922Y-63205503D01*
X197809884Y-63205532D01*
X197806892Y-63209179D01*
X197806091Y-63208522D01*
X197761871Y-63243381D01*
X197727607Y-63249500D01*
X196940892Y-63249500D01*
X196809107Y-63249500D01*
X196734537Y-63269481D01*
X196734536Y-63269480D01*
X196681814Y-63283607D01*
X196681810Y-63283609D01*
X196567690Y-63349496D01*
X196567684Y-63349500D01*
X196567685Y-63349501D01*
X194767686Y-65149500D01*
X194767685Y-65149499D01*
X194674500Y-65242685D01*
X194674496Y-65242690D01*
X194608609Y-65356809D01*
X194574500Y-65484109D01*
X194574500Y-66600500D01*
X194555593Y-66658691D01*
X194506093Y-66694655D01*
X194475500Y-66699500D01*
X194433225Y-66699500D01*
X194402805Y-66702353D01*
X194402796Y-66702355D01*
X194274616Y-66747207D01*
X194165355Y-66827845D01*
X194165345Y-66827855D01*
X194084707Y-66937116D01*
X194039855Y-67065296D01*
X194039853Y-67065305D01*
X194037000Y-67095725D01*
X194037000Y-67504274D01*
X194039853Y-67534694D01*
X194039855Y-67534703D01*
X194084707Y-67662883D01*
X194165345Y-67772144D01*
X194165347Y-67772146D01*
X194165350Y-67772150D01*
X194165353Y-67772152D01*
X194165355Y-67772154D01*
X194274616Y-67852792D01*
X194274617Y-67852792D01*
X194274618Y-67852793D01*
X194402801Y-67897646D01*
X194433225Y-67900499D01*
X194433227Y-67900500D01*
X194433234Y-67900500D01*
X195716773Y-67900500D01*
X195716773Y-67900499D01*
X195747199Y-67897646D01*
X195791121Y-67882276D01*
X195852287Y-67880903D01*
X195902583Y-67915746D01*
X195922792Y-67973498D01*
X195917263Y-68008414D01*
X195914855Y-68015296D01*
X195914853Y-68015305D01*
X195912000Y-68045725D01*
X195912000Y-68454274D01*
X195914853Y-68484694D01*
X195914855Y-68484703D01*
X195959707Y-68612883D01*
X196040345Y-68722144D01*
X196040347Y-68722146D01*
X196040350Y-68722150D01*
X196040353Y-68722152D01*
X196040355Y-68722154D01*
X196149616Y-68802792D01*
X196149617Y-68802792D01*
X196149618Y-68802793D01*
X196277801Y-68847646D01*
X196308225Y-68850499D01*
X196308227Y-68850500D01*
X196308234Y-68850500D01*
X196450500Y-68850500D01*
X196508691Y-68869407D01*
X196544655Y-68918907D01*
X196549500Y-68949500D01*
X196549500Y-69278644D01*
X196549500Y-69384098D01*
X196566959Y-69449256D01*
X196576794Y-69485963D01*
X196629516Y-69577279D01*
X196629518Y-69577281D01*
X196629520Y-69577284D01*
X198772716Y-71720480D01*
X198772718Y-71720481D01*
X198772720Y-71720483D01*
X198827766Y-71752264D01*
X198868707Y-71797733D01*
X198875103Y-71858583D01*
X198844510Y-71911571D01*
X198788614Y-71936458D01*
X198778266Y-71937000D01*
X196899500Y-71937000D01*
X196841309Y-71918093D01*
X196805345Y-71868593D01*
X196800500Y-71838000D01*
X196800500Y-71192546D01*
X196800499Y-71192529D01*
X196785369Y-71058250D01*
X196785366Y-71058238D01*
X196754746Y-70970733D01*
X196725789Y-70887978D01*
X196724339Y-70885671D01*
X196629818Y-70735241D01*
X196629817Y-70735240D01*
X196629816Y-70735238D01*
X196502262Y-70607684D01*
X196502259Y-70607682D01*
X196502258Y-70607681D01*
X196349523Y-70511711D01*
X196179261Y-70452133D01*
X196179249Y-70452130D01*
X196044970Y-70437000D01*
X196044954Y-70437000D01*
X194955046Y-70437000D01*
X194955029Y-70437000D01*
X194820750Y-70452130D01*
X194820738Y-70452133D01*
X194650477Y-70511711D01*
X194650476Y-70511711D01*
X194497741Y-70607681D01*
X194370181Y-70735241D01*
X194274211Y-70887976D01*
X194274211Y-70887977D01*
X194214633Y-71058238D01*
X194214630Y-71058250D01*
X194199500Y-71192529D01*
X194199500Y-74082470D01*
X194214630Y-74216749D01*
X194214633Y-74216761D01*
X194274211Y-74387022D01*
X194274211Y-74387023D01*
X194370181Y-74539758D01*
X194370184Y-74539762D01*
X194497738Y-74667316D01*
X194650478Y-74763289D01*
X194681475Y-74774135D01*
X194730155Y-74811199D01*
X194747752Y-74869800D01*
X194747155Y-74878661D01*
X194744751Y-74900001D01*
X194744751Y-74900004D01*
X194763685Y-75068053D01*
X194763688Y-75068065D01*
X194819544Y-75227690D01*
X194819544Y-75227691D01*
X194909520Y-75370886D01*
X194909523Y-75370890D01*
X195029110Y-75490477D01*
X195029112Y-75490478D01*
X195029113Y-75490479D01*
X195159778Y-75572582D01*
X195172310Y-75580456D01*
X195232674Y-75601578D01*
X195331934Y-75636311D01*
X195331938Y-75636312D01*
X195331941Y-75636313D01*
X195331942Y-75636313D01*
X195331946Y-75636314D01*
X195499996Y-75655249D01*
X195500000Y-75655249D01*
X195500004Y-75655249D01*
X195668053Y-75636314D01*
X195668055Y-75636313D01*
X195668059Y-75636313D01*
X195827690Y-75580456D01*
X195970890Y-75490477D01*
X196090477Y-75370890D01*
X196180456Y-75227690D01*
X196236313Y-75068059D01*
X196255249Y-74900000D01*
X196252845Y-74878664D01*
X196265117Y-74818723D01*
X196310278Y-74777442D01*
X196318512Y-74774139D01*
X196349522Y-74763289D01*
X196502262Y-74667316D01*
X196629816Y-74539762D01*
X196725789Y-74387022D01*
X196785368Y-74216755D01*
X196785873Y-74212273D01*
X196800499Y-74082470D01*
X196800500Y-74082453D01*
X196800500Y-73637000D01*
X196819407Y-73578809D01*
X196868907Y-73542845D01*
X196899500Y-73538000D01*
X200710963Y-73538000D01*
X200762179Y-73552278D01*
X200895724Y-73633009D01*
X200895727Y-73633010D01*
X200895730Y-73633012D01*
X200895734Y-73633013D01*
X200895736Y-73633014D01*
X200974036Y-73657413D01*
X201052343Y-73681815D01*
X201120406Y-73688000D01*
X202414178Y-73688000D01*
X202472369Y-73706907D01*
X202484182Y-73716996D01*
X203095504Y-74328318D01*
X203123281Y-74382835D01*
X203124500Y-74398322D01*
X203124500Y-75840344D01*
X203124500Y-75972128D01*
X203151303Y-76072159D01*
X203158609Y-76099426D01*
X203224496Y-76213545D01*
X203224497Y-76213546D01*
X203224498Y-76213547D01*
X203224500Y-76213550D01*
X204383264Y-77372314D01*
X204383263Y-77372314D01*
X204476449Y-77465499D01*
X204476450Y-77465500D01*
X204559223Y-77513289D01*
X204600164Y-77558758D01*
X204606560Y-77619608D01*
X204589379Y-77657812D01*
X204525619Y-77744205D01*
X204482260Y-77868116D01*
X204482258Y-77868125D01*
X204479500Y-77897532D01*
X204479500Y-78015522D01*
X204460593Y-78073713D01*
X204411093Y-78109677D01*
X204349907Y-78109677D01*
X204310498Y-78085527D01*
X204272765Y-78047794D01*
X204169991Y-78002415D01*
X204169990Y-78002414D01*
X204169988Y-78002414D01*
X204144869Y-77999500D01*
X203391882Y-77999500D01*
X203333691Y-77980593D01*
X203297727Y-77931093D01*
X203296356Y-77874502D01*
X203297580Y-77870001D01*
X203297585Y-77869991D01*
X203300500Y-77844865D01*
X203300499Y-76955136D01*
X203297585Y-76930009D01*
X203252206Y-76827235D01*
X203172765Y-76747794D01*
X203069991Y-76702415D01*
X203069990Y-76702414D01*
X203069988Y-76702414D01*
X203044868Y-76699500D01*
X202555139Y-76699500D01*
X202555136Y-76699501D01*
X202530009Y-76702414D01*
X202439987Y-76742163D01*
X202379117Y-76748371D01*
X202360014Y-76742164D01*
X202269991Y-76702415D01*
X202269990Y-76702414D01*
X202269988Y-76702414D01*
X202244868Y-76699500D01*
X201755139Y-76699500D01*
X201755136Y-76699501D01*
X201730009Y-76702414D01*
X201639987Y-76742163D01*
X201579117Y-76748371D01*
X201560014Y-76742164D01*
X201469991Y-76702415D01*
X201469990Y-76702414D01*
X201469988Y-76702414D01*
X201444868Y-76699500D01*
X200955139Y-76699500D01*
X200955136Y-76699501D01*
X200930009Y-76702414D01*
X200839987Y-76742163D01*
X200779117Y-76748371D01*
X200760014Y-76742164D01*
X200669991Y-76702415D01*
X200669990Y-76702414D01*
X200669988Y-76702414D01*
X200644868Y-76699500D01*
X200155139Y-76699500D01*
X200155136Y-76699501D01*
X200130009Y-76702414D01*
X200039987Y-76742163D01*
X199979117Y-76748371D01*
X199960014Y-76742164D01*
X199869991Y-76702415D01*
X199869990Y-76702414D01*
X199869988Y-76702414D01*
X199844869Y-76699500D01*
X199463728Y-76699500D01*
X199405537Y-76680593D01*
X199369573Y-76631093D01*
X199369573Y-76569907D01*
X199372255Y-76562636D01*
X199385044Y-76531762D01*
X199405682Y-76375000D01*
X199385044Y-76218238D01*
X199372757Y-76188574D01*
X199324537Y-76072161D01*
X199324537Y-76072160D01*
X199228286Y-75946723D01*
X199228285Y-75946722D01*
X199228282Y-75946718D01*
X199228277Y-75946714D01*
X199228276Y-75946713D01*
X199102838Y-75850462D01*
X198956766Y-75789957D01*
X198956758Y-75789955D01*
X198800001Y-75769318D01*
X198799999Y-75769318D01*
X198643241Y-75789955D01*
X198643238Y-75789955D01*
X198643238Y-75789956D01*
X198582885Y-75814955D01*
X198497164Y-75850462D01*
X198497159Y-75850464D01*
X198443973Y-75891273D01*
X198386300Y-75911696D01*
X198327634Y-75894318D01*
X198323468Y-75891291D01*
X198302841Y-75875464D01*
X198302838Y-75875463D01*
X198302836Y-75875461D01*
X198156766Y-75814957D01*
X198156758Y-75814955D01*
X198000001Y-75794318D01*
X197999999Y-75794318D01*
X197843241Y-75814955D01*
X197843233Y-75814957D01*
X197697161Y-75875462D01*
X197697160Y-75875462D01*
X197571723Y-75971713D01*
X197571713Y-75971723D01*
X197475462Y-76097160D01*
X197475462Y-76097161D01*
X197414957Y-76243233D01*
X197414955Y-76243241D01*
X197394318Y-76399999D01*
X197394318Y-76400000D01*
X197414955Y-76556758D01*
X197414956Y-76556763D01*
X197417381Y-76562616D01*
X197422180Y-76623612D01*
X197390210Y-76675781D01*
X197333682Y-76699195D01*
X197325916Y-76699500D01*
X196955139Y-76699500D01*
X196955136Y-76699501D01*
X196930009Y-76702414D01*
X196839987Y-76742163D01*
X196779117Y-76748371D01*
X196760014Y-76742164D01*
X196669991Y-76702415D01*
X196669990Y-76702414D01*
X196669988Y-76702414D01*
X196644868Y-76699500D01*
X196155139Y-76699500D01*
X196155136Y-76699501D01*
X196130009Y-76702414D01*
X196039987Y-76742163D01*
X195979117Y-76748371D01*
X195960014Y-76742164D01*
X195869991Y-76702415D01*
X195869990Y-76702414D01*
X195869988Y-76702414D01*
X195844868Y-76699500D01*
X195355139Y-76699500D01*
X195355136Y-76699501D01*
X195330009Y-76702414D01*
X195239987Y-76742163D01*
X195179117Y-76748371D01*
X195160014Y-76742164D01*
X195069991Y-76702415D01*
X195069990Y-76702414D01*
X195069988Y-76702414D01*
X195044868Y-76699500D01*
X194555139Y-76699500D01*
X194555136Y-76699501D01*
X194530009Y-76702414D01*
X194427235Y-76747794D01*
X194347794Y-76827235D01*
X194302414Y-76930011D01*
X194299500Y-76955130D01*
X194299500Y-77844860D01*
X194299501Y-77844863D01*
X194302414Y-77869990D01*
X194314575Y-77897532D01*
X194347794Y-77972765D01*
X194427235Y-78052206D01*
X194530009Y-78097585D01*
X194555135Y-78100500D01*
X195044864Y-78100499D01*
X195069991Y-78097585D01*
X195160012Y-78057836D01*
X195220881Y-78051628D01*
X195239979Y-78057833D01*
X195330009Y-78097585D01*
X195355135Y-78100500D01*
X195844864Y-78100499D01*
X195869991Y-78097585D01*
X195960012Y-78057836D01*
X196020881Y-78051628D01*
X196039979Y-78057833D01*
X196130009Y-78097585D01*
X196155135Y-78100500D01*
X196644864Y-78100499D01*
X196669991Y-78097585D01*
X196760012Y-78057836D01*
X196820881Y-78051628D01*
X196839979Y-78057833D01*
X196930009Y-78097585D01*
X196955135Y-78100500D01*
X197444864Y-78100499D01*
X197469991Y-78097585D01*
X197560012Y-78057836D01*
X197620881Y-78051628D01*
X197639979Y-78057833D01*
X197730009Y-78097585D01*
X197755135Y-78100500D01*
X198244864Y-78100499D01*
X198269991Y-78097585D01*
X198360012Y-78057836D01*
X198420881Y-78051628D01*
X198439979Y-78057833D01*
X198530009Y-78097585D01*
X198555135Y-78100500D01*
X199044864Y-78100499D01*
X199069991Y-78097585D01*
X199160012Y-78057836D01*
X199220881Y-78051628D01*
X199239979Y-78057833D01*
X199330009Y-78097585D01*
X199355135Y-78100500D01*
X199844864Y-78100499D01*
X199869991Y-78097585D01*
X199960012Y-78057836D01*
X200020881Y-78051628D01*
X200039979Y-78057833D01*
X200130009Y-78097585D01*
X200155135Y-78100500D01*
X200644864Y-78100499D01*
X200669991Y-78097585D01*
X200760012Y-78057836D01*
X200820881Y-78051628D01*
X200839979Y-78057833D01*
X200930009Y-78097585D01*
X200955135Y-78100500D01*
X201444864Y-78100499D01*
X201469991Y-78097585D01*
X201560012Y-78057836D01*
X201620881Y-78051628D01*
X201639979Y-78057833D01*
X201730009Y-78097585D01*
X201755135Y-78100500D01*
X202244864Y-78100499D01*
X202269991Y-78097585D01*
X202360012Y-78057836D01*
X202420881Y-78051628D01*
X202439979Y-78057833D01*
X202530009Y-78097585D01*
X202555135Y-78100500D01*
X202908117Y-78100499D01*
X202966308Y-78119406D01*
X203002272Y-78168906D01*
X203003645Y-78225487D01*
X203002414Y-78230008D01*
X202999500Y-78255130D01*
X202999500Y-78664277D01*
X202980593Y-78722468D01*
X202931093Y-78758432D01*
X202887578Y-78762430D01*
X202750001Y-78744318D01*
X202749999Y-78744318D01*
X202593241Y-78764955D01*
X202593233Y-78764957D01*
X202447161Y-78825462D01*
X202447160Y-78825462D01*
X202321723Y-78921713D01*
X202321713Y-78921723D01*
X202225462Y-79047160D01*
X202225462Y-79047161D01*
X202164957Y-79193233D01*
X202164955Y-79193241D01*
X202144318Y-79349999D01*
X202144318Y-79350000D01*
X202164955Y-79506758D01*
X202164957Y-79506766D01*
X202225462Y-79652838D01*
X202225462Y-79652839D01*
X202282548Y-79727235D01*
X202321718Y-79778282D01*
X202447159Y-79874536D01*
X202447160Y-79874536D01*
X202447161Y-79874537D01*
X202593233Y-79935042D01*
X202593238Y-79935044D01*
X202710809Y-79950522D01*
X202749999Y-79955682D01*
X202750000Y-79955682D01*
X202887579Y-79937569D01*
X202947738Y-79948719D01*
X202989856Y-79993101D01*
X202999500Y-80035722D01*
X202999500Y-80100814D01*
X202980593Y-80159005D01*
X202931093Y-80194969D01*
X202889417Y-80199192D01*
X202882662Y-80198431D01*
X202850000Y-80194751D01*
X202849998Y-80194751D01*
X202849997Y-80194751D01*
X202849996Y-80194751D01*
X202681946Y-80213685D01*
X202681934Y-80213688D01*
X202522309Y-80269544D01*
X202522308Y-80269544D01*
X202379113Y-80359520D01*
X202259520Y-80479113D01*
X202169544Y-80622308D01*
X202169544Y-80622309D01*
X202113688Y-80781934D01*
X202113685Y-80781946D01*
X202094751Y-80949995D01*
X202094751Y-80950004D01*
X202113685Y-81118053D01*
X202113688Y-81118065D01*
X202169544Y-81277690D01*
X202169544Y-81277691D01*
X202259520Y-81420886D01*
X202259523Y-81420890D01*
X202379110Y-81540477D01*
X202379112Y-81540478D01*
X202379113Y-81540479D01*
X202514804Y-81625740D01*
X202522310Y-81630456D01*
X202586232Y-81652823D01*
X202681934Y-81686311D01*
X202681938Y-81686312D01*
X202681941Y-81686313D01*
X202681942Y-81686313D01*
X202681946Y-81686314D01*
X202849996Y-81705249D01*
X202850000Y-81705249D01*
X202850003Y-81705249D01*
X202889414Y-81700808D01*
X202949356Y-81713080D01*
X202990637Y-81758242D01*
X202999500Y-81799184D01*
X202999500Y-81944859D01*
X202999501Y-81944864D01*
X203002414Y-81969990D01*
X203042163Y-82060012D01*
X203048371Y-82120882D01*
X203042163Y-82139987D01*
X203002415Y-82230009D01*
X203002414Y-82230011D01*
X202999500Y-82255130D01*
X202999500Y-82744860D01*
X202999501Y-82744863D01*
X203002414Y-82769990D01*
X203042163Y-82860012D01*
X203048371Y-82920882D01*
X203042163Y-82939987D01*
X203002415Y-83030009D01*
X203002414Y-83030011D01*
X202999500Y-83055130D01*
X202999500Y-83544860D01*
X202999501Y-83544863D01*
X203002414Y-83569990D01*
X203042163Y-83660012D01*
X203048371Y-83720882D01*
X203042163Y-83739987D01*
X203002415Y-83830009D01*
X203002414Y-83830011D01*
X202999500Y-83855130D01*
X202999500Y-84344860D01*
X202999501Y-84344863D01*
X203002414Y-84369990D01*
X203042163Y-84460012D01*
X203048371Y-84520882D01*
X203042163Y-84539987D01*
X203002415Y-84630009D01*
X203002414Y-84630011D01*
X202999500Y-84655130D01*
X202999500Y-85144860D01*
X202999501Y-85144863D01*
X203002414Y-85169990D01*
X203042163Y-85260012D01*
X203048371Y-85320882D01*
X203042163Y-85339987D01*
X203002415Y-85430009D01*
X203002414Y-85430011D01*
X202999500Y-85455130D01*
X202999500Y-85944860D01*
X202999501Y-85944863D01*
X203002414Y-85969990D01*
X203027756Y-86027385D01*
X203047794Y-86072765D01*
X203127235Y-86152206D01*
X203230009Y-86197585D01*
X203255135Y-86200500D01*
X204144864Y-86200499D01*
X204169991Y-86197585D01*
X204272765Y-86152206D01*
X204352206Y-86072765D01*
X204397585Y-85969991D01*
X204400500Y-85944865D01*
X204400499Y-85657319D01*
X204419406Y-85599131D01*
X204468906Y-85563167D01*
X204530091Y-85563166D01*
X204569503Y-85587317D01*
X204865504Y-85883318D01*
X204893281Y-85937835D01*
X204894500Y-85953322D01*
X204894500Y-86237457D01*
X204897258Y-86266875D01*
X204897259Y-86266880D01*
X204940619Y-86390795D01*
X205018572Y-86496418D01*
X205018581Y-86496427D01*
X205124204Y-86574380D01*
X205124205Y-86574380D01*
X205124206Y-86574381D01*
X205162907Y-86587923D01*
X205217584Y-86607056D01*
X205266264Y-86644121D01*
X205283861Y-86702722D01*
X205263653Y-86760474D01*
X205213358Y-86795317D01*
X205184886Y-86799500D01*
X203255140Y-86799500D01*
X203255135Y-86799501D01*
X203230009Y-86802414D01*
X203127235Y-86847794D01*
X203047794Y-86927235D01*
X203002414Y-87030011D01*
X202999500Y-87055130D01*
X202999500Y-87544860D01*
X202999501Y-87544863D01*
X203002414Y-87569990D01*
X203042163Y-87660012D01*
X203048371Y-87720882D01*
X203042163Y-87739987D01*
X203002415Y-87830009D01*
X203002414Y-87830011D01*
X202999500Y-87855130D01*
X202999500Y-88344860D01*
X202999501Y-88344863D01*
X203002414Y-88369990D01*
X203027756Y-88427385D01*
X203047794Y-88472765D01*
X203127235Y-88552206D01*
X203230009Y-88597585D01*
X203255135Y-88600500D01*
X203622576Y-88600499D01*
X203622586Y-88600500D01*
X203634108Y-88600500D01*
X204941524Y-88600500D01*
X204999715Y-88619407D01*
X205000312Y-88619845D01*
X205074204Y-88674380D01*
X205074205Y-88674380D01*
X205074206Y-88674381D01*
X205198121Y-88717741D01*
X205227543Y-88720500D01*
X205602456Y-88720499D01*
X205602457Y-88720499D01*
X205608340Y-88719947D01*
X205631879Y-88717741D01*
X205755794Y-88674381D01*
X205787824Y-88650741D01*
X205845871Y-88631400D01*
X205904201Y-88649871D01*
X205940535Y-88699100D01*
X205942237Y-88704768D01*
X205949001Y-88730011D01*
X205968609Y-88803190D01*
X206034496Y-88917309D01*
X206034497Y-88917310D01*
X206034498Y-88917311D01*
X206034500Y-88917314D01*
X206339980Y-89222794D01*
X206595504Y-89478318D01*
X206623281Y-89532835D01*
X206624500Y-89548322D01*
X206624500Y-89769859D01*
X206624501Y-89769864D01*
X206627415Y-89794991D01*
X206645086Y-89835012D01*
X206651294Y-89895882D01*
X206645086Y-89914987D01*
X206627415Y-89955008D01*
X206627414Y-89955011D01*
X206624500Y-89980130D01*
X206624500Y-89980132D01*
X206624501Y-90825500D01*
X206605594Y-90883691D01*
X206556094Y-90919655D01*
X206525501Y-90924500D01*
X200872081Y-90924500D01*
X200813890Y-90905593D01*
X200777926Y-90856093D01*
X200777926Y-90794907D01*
X200813890Y-90745407D01*
X200834196Y-90734036D01*
X200898637Y-90707343D01*
X200977841Y-90674536D01*
X201103282Y-90578282D01*
X201199536Y-90452841D01*
X201260044Y-90306762D01*
X201280682Y-90150000D01*
X201278858Y-90136149D01*
X201271764Y-90082259D01*
X201262569Y-90012419D01*
X201273719Y-89952261D01*
X201318101Y-89910143D01*
X201360722Y-89900499D01*
X201444861Y-89900499D01*
X201444864Y-89900499D01*
X201469991Y-89897585D01*
X201560012Y-89857836D01*
X201620881Y-89851628D01*
X201639979Y-89857833D01*
X201730009Y-89897585D01*
X201755135Y-89900500D01*
X202244864Y-89900499D01*
X202269991Y-89897585D01*
X202372765Y-89852206D01*
X202452206Y-89772765D01*
X202497585Y-89669991D01*
X202500500Y-89644865D01*
X202500499Y-88755136D01*
X202497585Y-88730009D01*
X202452206Y-88627235D01*
X202372765Y-88547794D01*
X202269991Y-88502415D01*
X202269990Y-88502414D01*
X202269988Y-88502414D01*
X202244868Y-88499500D01*
X201755139Y-88499500D01*
X201755136Y-88499501D01*
X201730009Y-88502414D01*
X201639987Y-88542163D01*
X201579117Y-88548371D01*
X201560014Y-88542164D01*
X201469991Y-88502415D01*
X201469990Y-88502414D01*
X201469988Y-88502414D01*
X201444868Y-88499500D01*
X200955139Y-88499500D01*
X200955136Y-88499501D01*
X200930009Y-88502414D01*
X200839987Y-88542163D01*
X200779117Y-88548371D01*
X200760014Y-88542164D01*
X200669991Y-88502415D01*
X200669990Y-88502414D01*
X200669988Y-88502414D01*
X200644869Y-88499500D01*
X200644865Y-88499500D01*
X200527669Y-88499500D01*
X200516735Y-88498894D01*
X200491826Y-88496125D01*
X200491090Y-88496140D01*
X200472102Y-88497007D01*
X200471361Y-88497060D01*
X200469256Y-88497491D01*
X200449413Y-88499500D01*
X200155140Y-88499500D01*
X200155135Y-88499501D01*
X200130009Y-88502414D01*
X200039987Y-88542163D01*
X199979117Y-88548371D01*
X199960014Y-88542164D01*
X199869991Y-88502415D01*
X199869990Y-88502414D01*
X199869988Y-88502414D01*
X199844868Y-88499500D01*
X199355139Y-88499500D01*
X199355136Y-88499501D01*
X199330009Y-88502414D01*
X199239987Y-88542163D01*
X199179117Y-88548371D01*
X199160014Y-88542164D01*
X199069991Y-88502415D01*
X199069990Y-88502414D01*
X199069988Y-88502414D01*
X199044868Y-88499500D01*
X198555139Y-88499500D01*
X198555136Y-88499501D01*
X198530009Y-88502414D01*
X198439987Y-88542163D01*
X198379117Y-88548371D01*
X198360014Y-88542164D01*
X198269991Y-88502415D01*
X198269990Y-88502414D01*
X198269988Y-88502414D01*
X198244868Y-88499500D01*
X197755139Y-88499500D01*
X197755136Y-88499501D01*
X197730009Y-88502414D01*
X197639987Y-88542163D01*
X197579117Y-88548371D01*
X197560014Y-88542164D01*
X197469991Y-88502415D01*
X197469990Y-88502414D01*
X197469988Y-88502414D01*
X197444868Y-88499500D01*
X196955139Y-88499500D01*
X196955136Y-88499501D01*
X196930009Y-88502414D01*
X196839987Y-88542163D01*
X196779117Y-88548371D01*
X196760014Y-88542164D01*
X196669991Y-88502415D01*
X196669990Y-88502414D01*
X196669988Y-88502414D01*
X196644868Y-88499500D01*
X196155139Y-88499500D01*
X196155136Y-88499501D01*
X196130009Y-88502414D01*
X196027235Y-88547794D01*
X195947794Y-88627235D01*
X195902414Y-88730011D01*
X195899500Y-88755130D01*
X195899500Y-88839363D01*
X195886237Y-88888862D01*
X195840423Y-88968214D01*
X195799500Y-89120944D01*
X195799500Y-90043978D01*
X195780593Y-90102169D01*
X195742323Y-90130642D01*
X195743401Y-90132682D01*
X195736839Y-90136149D01*
X195630004Y-90214997D01*
X195629997Y-90215004D01*
X195551148Y-90321841D01*
X195507291Y-90447176D01*
X195507289Y-90447185D01*
X195504500Y-90476923D01*
X195504500Y-90533264D01*
X195501127Y-90558887D01*
X195484499Y-90620943D01*
X195484499Y-90669234D01*
X195465592Y-90727425D01*
X195455503Y-90739238D01*
X195299237Y-90895504D01*
X195244720Y-90923281D01*
X195229233Y-90924500D01*
X195210136Y-90924500D01*
X195210120Y-90924499D01*
X195204057Y-90924499D01*
X195045943Y-90924499D01*
X195039880Y-90924499D01*
X195039864Y-90924500D01*
X195004500Y-90924500D01*
X194946309Y-90905593D01*
X194910345Y-90856093D01*
X194905500Y-90825500D01*
X194905500Y-90631008D01*
X194905499Y-90631004D01*
X194900226Y-90604495D01*
X194878580Y-90495672D01*
X194825775Y-90368189D01*
X194825774Y-90368187D01*
X194825771Y-90368182D01*
X194749114Y-90253458D01*
X194651541Y-90155885D01*
X194536817Y-90079228D01*
X194536806Y-90079222D01*
X194409328Y-90026420D01*
X194273995Y-89999500D01*
X194273993Y-89999500D01*
X194136007Y-89999500D01*
X194136004Y-89999500D01*
X194000672Y-90026420D01*
X194000670Y-90026420D01*
X193873193Y-90079222D01*
X193873182Y-90079228D01*
X193758458Y-90155885D01*
X193660885Y-90253458D01*
X193584228Y-90368182D01*
X193584222Y-90368193D01*
X193531420Y-90495670D01*
X193531420Y-90495672D01*
X193504500Y-90631004D01*
X193504500Y-91938810D01*
X193496065Y-91978797D01*
X193462415Y-92055008D01*
X193462415Y-92055010D01*
X193459500Y-92080130D01*
X193459500Y-92080132D01*
X193459501Y-93850500D01*
X193440594Y-93908691D01*
X193391094Y-93944655D01*
X193360501Y-93949500D01*
X190397286Y-93949500D01*
X190339095Y-93930593D01*
X190303131Y-93881093D01*
X190303131Y-93819907D01*
X190314404Y-93796355D01*
X190399173Y-93666607D01*
X190499063Y-93438881D01*
X190560108Y-93197821D01*
X190580643Y-92950000D01*
X190560108Y-92702179D01*
X190499063Y-92461119D01*
X190399173Y-92233393D01*
X190263164Y-92025215D01*
X190094744Y-91842262D01*
X189919635Y-91705969D01*
X189898512Y-91689528D01*
X189898509Y-91689526D01*
X189679813Y-91571173D01*
X189444611Y-91490428D01*
X189199335Y-91449500D01*
X188950665Y-91449500D01*
X188705388Y-91490428D01*
X188470186Y-91571173D01*
X188251490Y-91689526D01*
X188251481Y-91689532D01*
X188235306Y-91702122D01*
X188177772Y-91722943D01*
X188118988Y-91705969D01*
X188081408Y-91657685D01*
X188075500Y-91623997D01*
X188075500Y-89999000D01*
X188094407Y-89940809D01*
X188143907Y-89904845D01*
X188174500Y-89900000D01*
X193199999Y-89900000D01*
X193200000Y-89900000D01*
X193200000Y-76700000D01*
X193199999Y-76700000D01*
X188174500Y-76700000D01*
X188116309Y-76681093D01*
X188080345Y-76631593D01*
X188075500Y-76601000D01*
X188075500Y-69806004D01*
X190574500Y-69806004D01*
X190574500Y-72143996D01*
X190601420Y-72279327D01*
X190601420Y-72279329D01*
X190654223Y-72406808D01*
X190730403Y-72520821D01*
X190730886Y-72521543D01*
X191218457Y-73009114D01*
X191218460Y-73009116D01*
X191218462Y-73009118D01*
X191261688Y-73038000D01*
X191261690Y-73038001D01*
X191333181Y-73085771D01*
X191333193Y-73085777D01*
X191423332Y-73123113D01*
X191460671Y-73138580D01*
X191463880Y-73139218D01*
X191463883Y-73139220D01*
X191463884Y-73139219D01*
X191596007Y-73165500D01*
X191596008Y-73165500D01*
X192873992Y-73165500D01*
X192873993Y-73165500D01*
X192964981Y-73147400D01*
X192984294Y-73145499D01*
X193261909Y-73145499D01*
X193261914Y-73145499D01*
X193320335Y-73139219D01*
X193320338Y-73139218D01*
X193320339Y-73139218D01*
X193395498Y-73111184D01*
X193452489Y-73089929D01*
X193565403Y-73005403D01*
X193649929Y-72892489D01*
X193672531Y-72831891D01*
X193699217Y-72760340D01*
X193699216Y-72760340D01*
X193699219Y-72760335D01*
X193705500Y-72701915D01*
X193705499Y-72228086D01*
X193699219Y-72169665D01*
X193699218Y-72169662D01*
X193699218Y-72169660D01*
X193649929Y-72037511D01*
X193625090Y-72004331D01*
X193605354Y-71946418D01*
X193623428Y-71887963D01*
X193625054Y-71885723D01*
X193651628Y-71850226D01*
X193699412Y-71722114D01*
X193705500Y-71665485D01*
X193705499Y-71224516D01*
X193699412Y-71167886D01*
X193651628Y-71039774D01*
X193625093Y-71004328D01*
X193605357Y-70946414D01*
X193623431Y-70887959D01*
X193625094Y-70885671D01*
X193634500Y-70873106D01*
X193651628Y-70850226D01*
X193699412Y-70722114D01*
X193705500Y-70665485D01*
X193705499Y-70224516D01*
X193699412Y-70167886D01*
X193651628Y-70039774D01*
X193639151Y-70023107D01*
X193625091Y-70004324D01*
X193605355Y-69946409D01*
X193623430Y-69887954D01*
X193625093Y-69885666D01*
X193649928Y-69852491D01*
X193649929Y-69852488D01*
X193654646Y-69839843D01*
X193699219Y-69720335D01*
X193705500Y-69661915D01*
X193705499Y-69188086D01*
X193699219Y-69129665D01*
X193699218Y-69129662D01*
X193699218Y-69129660D01*
X193649929Y-68997511D01*
X193626070Y-68965639D01*
X193565403Y-68884597D01*
X193520008Y-68850615D01*
X193452487Y-68800069D01*
X193320340Y-68750782D01*
X193320335Y-68750781D01*
X193320333Y-68750780D01*
X193320329Y-68750780D01*
X193289724Y-68747489D01*
X193261915Y-68744500D01*
X193261912Y-68744500D01*
X192984292Y-68744500D01*
X192964978Y-68742598D01*
X192873995Y-68724500D01*
X192873993Y-68724500D01*
X192228885Y-68724500D01*
X192176213Y-68709325D01*
X192152693Y-68694546D01*
X192152694Y-68694546D01*
X192152690Y-68694544D01*
X192152688Y-68694543D01*
X192152684Y-68694541D01*
X191993065Y-68638688D01*
X191993053Y-68638685D01*
X191825004Y-68619751D01*
X191824996Y-68619751D01*
X191656946Y-68638685D01*
X191656934Y-68638688D01*
X191497309Y-68694544D01*
X191497308Y-68694544D01*
X191354113Y-68784520D01*
X191234522Y-68904111D01*
X191205442Y-68950390D01*
X191191622Y-68967719D01*
X190730883Y-69428459D01*
X190692466Y-69485957D01*
X190692465Y-69485958D01*
X190654226Y-69543185D01*
X190654223Y-69543191D01*
X190601420Y-69670670D01*
X190601420Y-69670672D01*
X190574500Y-69806004D01*
X188075500Y-69806004D01*
X188075500Y-65326002D01*
X188094407Y-65267811D01*
X188143907Y-65231847D01*
X188205093Y-65231847D01*
X188235305Y-65247875D01*
X188251487Y-65260471D01*
X188251491Y-65260474D01*
X188429511Y-65356814D01*
X188470190Y-65378828D01*
X188705386Y-65459571D01*
X188950665Y-65500500D01*
X189199335Y-65500500D01*
X189444614Y-65459571D01*
X189679810Y-65378828D01*
X189898509Y-65260474D01*
X190094744Y-65107738D01*
X190263164Y-64924785D01*
X190399173Y-64716607D01*
X190499063Y-64488881D01*
X190560108Y-64247821D01*
X190580643Y-64000000D01*
X190560108Y-63752179D01*
X190499063Y-63511119D01*
X190399173Y-63283393D01*
X190281739Y-63103647D01*
X190265742Y-63044591D01*
X190287511Y-62987409D01*
X190338734Y-62953944D01*
X190364620Y-62950500D01*
X197809866Y-62950500D01*
X197868057Y-62969407D01*
G37*
%TD.AperFunction*%
%TA.AperFunction,Conductor*%
G36*
X214532107Y-85832282D02*
G01*
X214569036Y-85881067D01*
X214574500Y-85913502D01*
X214574500Y-91623997D01*
X214555593Y-91682188D01*
X214506093Y-91718152D01*
X214444907Y-91718152D01*
X214414694Y-91702122D01*
X214398518Y-91689532D01*
X214398509Y-91689526D01*
X214179813Y-91571173D01*
X213944611Y-91490428D01*
X213699335Y-91449500D01*
X213450665Y-91449500D01*
X213205388Y-91490428D01*
X212970186Y-91571173D01*
X212751490Y-91689526D01*
X212751487Y-91689528D01*
X212555259Y-91842259D01*
X212386835Y-92025216D01*
X212351678Y-92079028D01*
X212250827Y-92233393D01*
X212192334Y-92366745D01*
X212150937Y-92461120D01*
X212089891Y-92702180D01*
X212069357Y-92950000D01*
X212089891Y-93197819D01*
X212089892Y-93197821D01*
X212150937Y-93438881D01*
X212250827Y-93666607D01*
X212335594Y-93796353D01*
X212351592Y-93855409D01*
X212329823Y-93912591D01*
X212278600Y-93946056D01*
X212252714Y-93949500D01*
X205664316Y-93949500D01*
X205606125Y-93930593D01*
X205570161Y-93881093D01*
X205570161Y-93819907D01*
X205597618Y-93777340D01*
X205623872Y-93753407D01*
X205752366Y-93583255D01*
X205847405Y-93392389D01*
X205905756Y-93187310D01*
X205925429Y-92975000D01*
X205905756Y-92762690D01*
X205847405Y-92557611D01*
X205752366Y-92366745D01*
X205690001Y-92284161D01*
X205670021Y-92226330D01*
X205687849Y-92167800D01*
X205736676Y-92130927D01*
X205769004Y-92125500D01*
X209364864Y-92125500D01*
X209364880Y-92125501D01*
X209370943Y-92125501D01*
X209529055Y-92125501D01*
X209529057Y-92125501D01*
X209681785Y-92084577D01*
X209681787Y-92084575D01*
X209681789Y-92084575D01*
X209697001Y-92075791D01*
X209732998Y-92055009D01*
X209818716Y-92005520D01*
X209930520Y-91893716D01*
X209930521Y-91893713D01*
X211219739Y-90604495D01*
X211274256Y-90576718D01*
X211289743Y-90575499D01*
X211619861Y-90575499D01*
X211619864Y-90575499D01*
X211644991Y-90572585D01*
X211747765Y-90527206D01*
X211827206Y-90447765D01*
X211872585Y-90344991D01*
X211875500Y-90319865D01*
X211875499Y-89430136D01*
X211872585Y-89405009D01*
X211827206Y-89302235D01*
X211747765Y-89222794D01*
X211644991Y-89177415D01*
X211644990Y-89177414D01*
X211644988Y-89177414D01*
X211619868Y-89174500D01*
X210430139Y-89174500D01*
X210430136Y-89174501D01*
X210405009Y-89177414D01*
X210302235Y-89222794D01*
X210222794Y-89302235D01*
X210177414Y-89405011D01*
X210174500Y-89430130D01*
X210174500Y-89910256D01*
X210155593Y-89968447D01*
X210145504Y-89980260D01*
X209230261Y-90895504D01*
X209175744Y-90923281D01*
X209160257Y-90924500D01*
X208424500Y-90924500D01*
X208366309Y-90905593D01*
X208330345Y-90856093D01*
X208325500Y-90825500D01*
X208325499Y-89980139D01*
X208325499Y-89980136D01*
X208322585Y-89955009D01*
X208312193Y-89931473D01*
X208304914Y-89914988D01*
X208298705Y-89854119D01*
X208304911Y-89835017D01*
X208322585Y-89794991D01*
X208325500Y-89769865D01*
X208325499Y-88880136D01*
X208322585Y-88855009D01*
X208277206Y-88752235D01*
X208197765Y-88672794D01*
X208094991Y-88627415D01*
X208094990Y-88627414D01*
X208094988Y-88627414D01*
X208069869Y-88624500D01*
X208069865Y-88624500D01*
X208053359Y-88624500D01*
X207995168Y-88605593D01*
X207959204Y-88556093D01*
X207959204Y-88494907D01*
X207973705Y-88466711D01*
X207974380Y-88465796D01*
X207974380Y-88465795D01*
X207974379Y-88465795D01*
X207974381Y-88465794D01*
X208017741Y-88341879D01*
X208020500Y-88312457D01*
X208020499Y-87837544D01*
X208020499Y-87837541D01*
X208020391Y-87835230D01*
X208021812Y-87835163D01*
X208033983Y-87780298D01*
X208079814Y-87739762D01*
X208140718Y-87733906D01*
X208157163Y-87739092D01*
X208291503Y-87794737D01*
X208446158Y-87825500D01*
X208446159Y-87825500D01*
X208965661Y-87825500D01*
X208965662Y-87825500D01*
X209120317Y-87794737D01*
X209265999Y-87734394D01*
X209397109Y-87646789D01*
X210011789Y-87032109D01*
X210099394Y-86900999D01*
X210115708Y-86861614D01*
X210155445Y-86815088D01*
X210207172Y-86800500D01*
X213178841Y-86800500D01*
X213178842Y-86800500D01*
X213333497Y-86769737D01*
X213479179Y-86709394D01*
X213563022Y-86653370D01*
X213608323Y-86637163D01*
X213616231Y-86636385D01*
X213800114Y-86580605D01*
X213887117Y-86534101D01*
X213969569Y-86490030D01*
X213969572Y-86490027D01*
X213969581Y-86490023D01*
X214118120Y-86368120D01*
X214240023Y-86219581D01*
X214240027Y-86219572D01*
X214240030Y-86219569D01*
X214298129Y-86110870D01*
X214330605Y-86050114D01*
X214380763Y-85884763D01*
X214415748Y-85834567D01*
X214473556Y-85814521D01*
X214532107Y-85832282D01*
G37*
%TD.AperFunction*%
%TA.AperFunction,Conductor*%
G36*
X200177221Y-90494407D02*
G01*
X200197570Y-90514231D01*
X200207526Y-90527206D01*
X200244582Y-90575499D01*
X200246718Y-90578282D01*
X200372159Y-90674536D01*
X200372160Y-90674536D01*
X200372161Y-90674537D01*
X200515804Y-90734036D01*
X200562330Y-90773772D01*
X200576614Y-90833267D01*
X200553199Y-90889795D01*
X200501030Y-90921765D01*
X200477919Y-90924500D01*
X199674500Y-90924500D01*
X199616309Y-90905593D01*
X199580345Y-90856093D01*
X199575500Y-90825500D01*
X199575500Y-90726901D01*
X199594407Y-90668710D01*
X199604496Y-90656897D01*
X199756897Y-90504496D01*
X199811414Y-90476719D01*
X199826901Y-90475500D01*
X200072273Y-90475500D01*
X200119030Y-90475500D01*
X200177221Y-90494407D01*
G37*
%TD.AperFunction*%
%TA.AperFunction,Conductor*%
G36*
X208818448Y-83944407D02*
G01*
X208830261Y-83954496D01*
X209395504Y-84519739D01*
X209423281Y-84574256D01*
X209424500Y-84589743D01*
X209424500Y-85093109D01*
X209427137Y-85115065D01*
X209415302Y-85175095D01*
X209370443Y-85216704D01*
X209348158Y-85223965D01*
X209325577Y-85228456D01*
X209325578Y-85228457D01*
X209316509Y-85230261D01*
X209316503Y-85230262D01*
X209170825Y-85290603D01*
X209170814Y-85290609D01*
X209039711Y-85378211D01*
X209039707Y-85378214D01*
X208768214Y-85649707D01*
X208768211Y-85649711D01*
X208680609Y-85780814D01*
X208680603Y-85780825D01*
X208620263Y-85926501D01*
X208620263Y-85926503D01*
X208589500Y-86081155D01*
X208589500Y-86125500D01*
X208570593Y-86183691D01*
X208521093Y-86219655D01*
X208490500Y-86224500D01*
X208446155Y-86224500D01*
X208291503Y-86255263D01*
X208291501Y-86255263D01*
X208167385Y-86306673D01*
X208106388Y-86311473D01*
X208054219Y-86279504D01*
X208030805Y-86222976D01*
X208030500Y-86215209D01*
X208030500Y-85776928D01*
X208030499Y-85776923D01*
X208027710Y-85747185D01*
X208027710Y-85747181D01*
X207983852Y-85621843D01*
X207967090Y-85599131D01*
X207905002Y-85515004D01*
X207904995Y-85514997D01*
X207798158Y-85436148D01*
X207672823Y-85392291D01*
X207672814Y-85392289D01*
X207643076Y-85389500D01*
X207643066Y-85389500D01*
X207353691Y-85389500D01*
X207295500Y-85370593D01*
X207259536Y-85321093D01*
X207259536Y-85259907D01*
X207274807Y-85230681D01*
X207275125Y-85230262D01*
X207288115Y-85213132D01*
X207340479Y-85080346D01*
X207350500Y-84996902D01*
X207350500Y-84403098D01*
X207340479Y-84319654D01*
X207288115Y-84186868D01*
X207210350Y-84084319D01*
X207190255Y-84026528D01*
X207207966Y-83967962D01*
X207256719Y-83930992D01*
X207289234Y-83925500D01*
X208760257Y-83925500D01*
X208818448Y-83944407D01*
G37*
%TD.AperFunction*%
%TA.AperFunction,Conductor*%
G36*
X206266733Y-83012754D02*
G01*
X206297333Y-83065737D01*
X206299500Y-83086335D01*
X206299500Y-83089863D01*
X206299499Y-83089881D01*
X206299499Y-83095943D01*
X206299499Y-83254057D01*
X206340423Y-83406785D01*
X206361965Y-83444096D01*
X206364338Y-83448207D01*
X206364337Y-83448207D01*
X206416328Y-83538257D01*
X206419480Y-83543716D01*
X206531284Y-83655520D01*
X206531286Y-83655521D01*
X206569478Y-83693713D01*
X206569480Y-83693716D01*
X206631262Y-83755498D01*
X206659038Y-83810013D01*
X206649467Y-83870445D01*
X206606202Y-83913710D01*
X206561257Y-83924500D01*
X206353095Y-83924500D01*
X206269651Y-83934521D01*
X206136870Y-83986883D01*
X206136866Y-83986886D01*
X206023136Y-84073130D01*
X206023130Y-84073136D01*
X205936886Y-84186866D01*
X205936883Y-84186870D01*
X205884521Y-84319651D01*
X205874500Y-84403095D01*
X205874500Y-84996904D01*
X205884521Y-85080348D01*
X205936883Y-85213129D01*
X205936886Y-85213134D01*
X205964383Y-85249393D01*
X205984479Y-85307184D01*
X205984500Y-85309213D01*
X205984500Y-85347679D01*
X205965593Y-85405870D01*
X205916093Y-85441834D01*
X205854907Y-85441834D01*
X205815498Y-85417684D01*
X204897314Y-84499500D01*
X204897311Y-84499498D01*
X204897309Y-84499496D01*
X204783189Y-84433609D01*
X204783191Y-84433609D01*
X204733799Y-84420375D01*
X204655892Y-84399500D01*
X204655890Y-84399500D01*
X204499500Y-84399500D01*
X204441309Y-84380593D01*
X204405345Y-84331093D01*
X204400500Y-84300500D01*
X204400499Y-83855139D01*
X204400499Y-83855136D01*
X204397585Y-83830009D01*
X204357835Y-83739985D01*
X204351628Y-83679118D01*
X204357834Y-83660017D01*
X204397585Y-83569991D01*
X204400500Y-83544865D01*
X204400499Y-83538253D01*
X204419400Y-83480065D01*
X204468896Y-83444096D01*
X204530082Y-83444089D01*
X204579154Y-83479459D01*
X204628572Y-83546418D01*
X204628581Y-83546427D01*
X204734204Y-83624380D01*
X204734205Y-83624380D01*
X204734206Y-83624381D01*
X204858121Y-83667741D01*
X204887543Y-83670500D01*
X205362456Y-83670499D01*
X205362457Y-83670499D01*
X205368340Y-83669947D01*
X205391879Y-83667741D01*
X205515794Y-83624381D01*
X205621423Y-83546423D01*
X205622575Y-83544863D01*
X205699380Y-83440795D01*
X205699379Y-83440795D01*
X205699381Y-83440794D01*
X205742741Y-83316879D01*
X205745499Y-83287465D01*
X205745500Y-83287463D01*
X205745500Y-83179682D01*
X205764407Y-83121491D01*
X205813907Y-83085527D01*
X205844500Y-83080682D01*
X205850001Y-83080682D01*
X205881352Y-83076554D01*
X206006762Y-83060044D01*
X206079273Y-83030009D01*
X206158837Y-82997053D01*
X206159553Y-82998783D01*
X206210833Y-82987876D01*
X206266733Y-83012754D01*
G37*
%TD.AperFunction*%
%TA.AperFunction,Conductor*%
G36*
X212572693Y-80607402D02*
G01*
X212577655Y-80609358D01*
X212577658Y-80609361D01*
X212678023Y-80648940D01*
X212725218Y-80687875D01*
X212740515Y-80747117D01*
X212718069Y-80804037D01*
X212666453Y-80836892D01*
X212622389Y-80838134D01*
X212553847Y-80824500D01*
X212553842Y-80824500D01*
X212396158Y-80824500D01*
X212396153Y-80824500D01*
X212280031Y-80847598D01*
X212260721Y-80849500D01*
X212227133Y-80849500D01*
X212227128Y-80849501D01*
X212167519Y-80855908D01*
X212167514Y-80855909D01*
X212032670Y-80906202D01*
X211917458Y-80992450D01*
X211917450Y-80992458D01*
X211831204Y-81107667D01*
X211801486Y-81187345D01*
X211791044Y-81207748D01*
X211765606Y-81245819D01*
X211765605Y-81245820D01*
X211705263Y-81391501D01*
X211705263Y-81391503D01*
X211674500Y-81546155D01*
X211674500Y-83777414D01*
X211655593Y-83835605D01*
X211645502Y-83847419D01*
X211614728Y-83878192D01*
X211560211Y-83905968D01*
X211508408Y-83900285D01*
X211462552Y-83882202D01*
X211406564Y-83860123D01*
X211388871Y-83857998D01*
X211318106Y-83849500D01*
X211318102Y-83849500D01*
X210464743Y-83849500D01*
X210406552Y-83830593D01*
X210394739Y-83820504D01*
X209868738Y-83294503D01*
X209840961Y-83239986D01*
X209850532Y-83179554D01*
X209893797Y-83136289D01*
X209938742Y-83125499D01*
X209994861Y-83125499D01*
X209994864Y-83125499D01*
X210019991Y-83122585D01*
X210122765Y-83077206D01*
X210202206Y-82997765D01*
X210247585Y-82894991D01*
X210250500Y-82869865D01*
X210250499Y-80880136D01*
X210247585Y-80855009D01*
X210245721Y-80850789D01*
X210239511Y-80789921D01*
X210266280Y-80740796D01*
X210377582Y-80629496D01*
X210432099Y-80601719D01*
X210447585Y-80600500D01*
X212536374Y-80600500D01*
X212572693Y-80607402D01*
G37*
%TD.AperFunction*%
%TA.AperFunction,Conductor*%
G36*
X209536606Y-79044406D02*
G01*
X209572570Y-79093906D01*
X209572570Y-79155092D01*
X209548419Y-79194503D01*
X208147417Y-80595504D01*
X208092900Y-80623281D01*
X208077413Y-80624500D01*
X207599500Y-80624500D01*
X207541309Y-80605593D01*
X207505345Y-80556093D01*
X207500500Y-80525500D01*
X207500500Y-79124499D01*
X207519407Y-79066308D01*
X207568907Y-79030344D01*
X207599500Y-79025499D01*
X209478415Y-79025499D01*
X209536606Y-79044406D01*
G37*
%TD.AperFunction*%
%TA.AperFunction,Conductor*%
G36*
X212622693Y-72907403D02*
G01*
X212627657Y-72909360D01*
X212627658Y-72909361D01*
X212768436Y-72964877D01*
X212856898Y-72975500D01*
X212856900Y-72975500D01*
X214243100Y-72975500D01*
X214243102Y-72975500D01*
X214331564Y-72964877D01*
X214439181Y-72922437D01*
X214500251Y-72918679D01*
X214551867Y-72951534D01*
X214574313Y-73008453D01*
X214574500Y-73014535D01*
X214574500Y-78906952D01*
X214555593Y-78965143D01*
X214506093Y-79001107D01*
X214444907Y-79001107D01*
X214426981Y-78993248D01*
X214422346Y-78990642D01*
X214422342Y-78990639D01*
X214396867Y-78980593D01*
X214281565Y-78935123D01*
X214193106Y-78924500D01*
X214193102Y-78924500D01*
X212806898Y-78924500D01*
X212806893Y-78924500D01*
X212718434Y-78935123D01*
X212572693Y-78992597D01*
X212536374Y-78999500D01*
X210309219Y-78999500D01*
X210251028Y-78980593D01*
X210215064Y-78931093D01*
X210215064Y-78869907D01*
X210218649Y-78860524D01*
X210247585Y-78794991D01*
X210250500Y-78769865D01*
X210250499Y-76780136D01*
X210247585Y-76755009D01*
X210202206Y-76652235D01*
X210122765Y-76572794D01*
X210019991Y-76527415D01*
X210019990Y-76527414D01*
X210019988Y-76527414D01*
X209994869Y-76524500D01*
X209994865Y-76524500D01*
X208949685Y-76524500D01*
X208891494Y-76505593D01*
X208855530Y-76456093D01*
X208855530Y-76394907D01*
X208890356Y-76346247D01*
X208908883Y-76332376D01*
X208953773Y-76298773D01*
X209036266Y-76188576D01*
X209084371Y-76059601D01*
X209090500Y-76002592D01*
X209090500Y-75642586D01*
X209109407Y-75584395D01*
X209119496Y-75572582D01*
X209464388Y-75227690D01*
X209996789Y-74695289D01*
X210084394Y-74564179D01*
X210144737Y-74418497D01*
X210175500Y-74263842D01*
X210175500Y-74106158D01*
X210175500Y-73272586D01*
X210194407Y-73214395D01*
X210204496Y-73202582D01*
X210402582Y-73004496D01*
X210457099Y-72976719D01*
X210472586Y-72975500D01*
X211768100Y-72975500D01*
X211768102Y-72975500D01*
X211856564Y-72964877D01*
X211997342Y-72909361D01*
X211997342Y-72909360D01*
X212002307Y-72907403D01*
X212038626Y-72900500D01*
X212586374Y-72900500D01*
X212622693Y-72907403D01*
G37*
%TD.AperFunction*%
%TA.AperFunction,Conductor*%
G36*
X199504593Y-68614022D02*
G01*
X199510794Y-68623691D01*
X199511883Y-68625629D01*
X199511885Y-68625632D01*
X199598133Y-68739367D01*
X199711868Y-68825615D01*
X199711869Y-68825615D01*
X199711870Y-68825616D01*
X199837196Y-68875038D01*
X199844654Y-68877979D01*
X199928098Y-68888000D01*
X199928100Y-68888000D01*
X200521900Y-68888000D01*
X200521902Y-68888000D01*
X200605346Y-68877979D01*
X200738132Y-68825615D01*
X200851867Y-68739367D01*
X200861109Y-68727180D01*
X200911335Y-68692238D01*
X200939992Y-68688000D01*
X201091050Y-68688000D01*
X201149241Y-68706907D01*
X201169933Y-68727180D01*
X201198133Y-68764367D01*
X201311868Y-68850615D01*
X201311869Y-68850615D01*
X201311870Y-68850616D01*
X201444651Y-68902978D01*
X201444654Y-68902979D01*
X201528098Y-68913000D01*
X201528100Y-68913000D01*
X202121900Y-68913000D01*
X202121902Y-68913000D01*
X202205346Y-68902979D01*
X202338132Y-68850615D01*
X202451867Y-68764367D01*
X202480066Y-68727180D01*
X202530293Y-68692238D01*
X202558950Y-68688000D01*
X202705759Y-68688000D01*
X202763950Y-68706907D01*
X202769133Y-68711333D01*
X202773131Y-68714365D01*
X202773133Y-68714367D01*
X202886868Y-68800615D01*
X202886869Y-68800615D01*
X202886870Y-68800616D01*
X203019651Y-68852978D01*
X203019654Y-68852979D01*
X203103098Y-68863000D01*
X203103100Y-68863000D01*
X203696900Y-68863000D01*
X203696902Y-68863000D01*
X203780346Y-68852979D01*
X203913132Y-68800615D01*
X204026867Y-68714367D01*
X204026867Y-68714366D01*
X204032263Y-68710275D01*
X204033702Y-68712173D01*
X204078754Y-68689219D01*
X204094241Y-68688000D01*
X204229082Y-68688000D01*
X204287273Y-68706907D01*
X204323237Y-68756407D01*
X204323237Y-68817593D01*
X204287273Y-68867093D01*
X204272471Y-68875038D01*
X204272637Y-68875342D01*
X204266420Y-68878736D01*
X204156231Y-68961223D01*
X204156223Y-68961231D01*
X204073732Y-69071425D01*
X204025630Y-69200393D01*
X204025628Y-69200404D01*
X204019500Y-69257411D01*
X204019500Y-70792588D01*
X204019499Y-70792588D01*
X204025628Y-70849595D01*
X204025630Y-70849606D01*
X204073732Y-70978574D01*
X204149297Y-71079516D01*
X204156227Y-71088773D01*
X204156230Y-71088775D01*
X204156231Y-71088776D01*
X204266425Y-71171267D01*
X204395393Y-71219369D01*
X204395394Y-71219369D01*
X204395399Y-71219371D01*
X204452408Y-71225500D01*
X204452412Y-71225500D01*
X204847588Y-71225500D01*
X204847592Y-71225500D01*
X204904601Y-71219371D01*
X204976522Y-71192546D01*
X205033574Y-71171267D01*
X205033574Y-71171266D01*
X205033576Y-71171266D01*
X205143773Y-71088773D01*
X205205747Y-71005986D01*
X205255755Y-70970733D01*
X205316934Y-70971607D01*
X205364253Y-71005986D01*
X205403377Y-71058250D01*
X205426227Y-71088773D01*
X205426230Y-71088775D01*
X205426231Y-71088776D01*
X205536425Y-71171267D01*
X205665393Y-71219369D01*
X205665394Y-71219369D01*
X205665399Y-71219371D01*
X205722408Y-71225500D01*
X205722412Y-71225500D01*
X206117588Y-71225500D01*
X206117592Y-71225500D01*
X206174601Y-71219371D01*
X206246522Y-71192546D01*
X206303574Y-71171267D01*
X206303574Y-71171266D01*
X206303576Y-71171266D01*
X206413773Y-71088773D01*
X206475747Y-71005986D01*
X206525755Y-70970733D01*
X206586934Y-70971607D01*
X206634253Y-71005986D01*
X206673377Y-71058250D01*
X206696227Y-71088773D01*
X206696230Y-71088775D01*
X206696231Y-71088776D01*
X206806425Y-71171267D01*
X206935393Y-71219369D01*
X206935394Y-71219369D01*
X206935399Y-71219371D01*
X206992408Y-71225500D01*
X206992412Y-71225500D01*
X207387588Y-71225500D01*
X207387592Y-71225500D01*
X207444601Y-71219371D01*
X207516522Y-71192546D01*
X207573574Y-71171267D01*
X207573574Y-71171266D01*
X207573576Y-71171266D01*
X207683773Y-71088773D01*
X207745747Y-71005986D01*
X207795755Y-70970733D01*
X207856934Y-70971607D01*
X207904253Y-71005986D01*
X207943377Y-71058250D01*
X207966227Y-71088773D01*
X207966230Y-71088775D01*
X207966231Y-71088776D01*
X208076425Y-71171267D01*
X208205393Y-71219369D01*
X208205394Y-71219369D01*
X208205399Y-71219371D01*
X208262408Y-71225500D01*
X208262412Y-71225500D01*
X208657588Y-71225500D01*
X208657592Y-71225500D01*
X208714601Y-71219371D01*
X208786522Y-71192546D01*
X208843574Y-71171267D01*
X208843574Y-71171266D01*
X208843576Y-71171266D01*
X208953773Y-71088773D01*
X209036266Y-70978576D01*
X209038866Y-70971607D01*
X209084369Y-70849606D01*
X209084368Y-70849606D01*
X209084371Y-70849601D01*
X209090500Y-70792592D01*
X209090500Y-70782586D01*
X209109407Y-70724395D01*
X209119496Y-70712582D01*
X209121789Y-70710289D01*
X209209394Y-70579179D01*
X209269737Y-70433497D01*
X209300500Y-70278842D01*
X209300500Y-70121158D01*
X209300500Y-69038743D01*
X209319407Y-68980552D01*
X209368907Y-68944588D01*
X209430093Y-68944588D01*
X209469504Y-68968739D01*
X209895504Y-69394739D01*
X209923281Y-69449256D01*
X209924500Y-69464743D01*
X209924500Y-70143106D01*
X209935123Y-70231565D01*
X209990637Y-70372339D01*
X209990638Y-70372341D01*
X209990639Y-70372342D01*
X210082078Y-70492922D01*
X210082082Y-70492925D01*
X210202656Y-70584360D01*
X210202657Y-70584360D01*
X210202658Y-70584361D01*
X210210039Y-70587271D01*
X210211815Y-70587972D01*
X210259014Y-70626907D01*
X210274500Y-70680071D01*
X210274500Y-71175211D01*
X210255593Y-71233402D01*
X210211819Y-71267308D01*
X210147692Y-71292597D01*
X210111373Y-71299500D01*
X210096155Y-71299500D01*
X209941503Y-71330263D01*
X209941501Y-71330263D01*
X209795825Y-71390603D01*
X209795814Y-71390609D01*
X209664711Y-71478211D01*
X209664707Y-71478214D01*
X208753214Y-72389707D01*
X208753211Y-72389711D01*
X208665609Y-72520814D01*
X208665603Y-72520825D01*
X208605263Y-72666501D01*
X208605263Y-72666503D01*
X208574500Y-72821155D01*
X208574500Y-73812414D01*
X208555593Y-73870605D01*
X208545504Y-73882418D01*
X208422418Y-74005504D01*
X208367901Y-74033281D01*
X208352414Y-74034500D01*
X208262408Y-74034500D01*
X208234943Y-74037452D01*
X208205404Y-74040628D01*
X208205393Y-74040630D01*
X208076425Y-74088732D01*
X207966231Y-74171223D01*
X207966223Y-74171231D01*
X207904253Y-74254013D01*
X207854244Y-74289266D01*
X207793065Y-74288392D01*
X207745747Y-74254013D01*
X207683776Y-74171231D01*
X207683775Y-74171230D01*
X207683773Y-74171227D01*
X207596852Y-74106158D01*
X207573574Y-74088732D01*
X207444606Y-74040630D01*
X207444601Y-74040629D01*
X207444599Y-74040628D01*
X207444595Y-74040628D01*
X207418818Y-74037857D01*
X207387592Y-74034500D01*
X206992408Y-74034500D01*
X206964943Y-74037452D01*
X206935404Y-74040628D01*
X206935393Y-74040630D01*
X206806425Y-74088732D01*
X206696231Y-74171223D01*
X206696223Y-74171231D01*
X206634253Y-74254013D01*
X206584244Y-74289266D01*
X206523065Y-74288392D01*
X206475747Y-74254013D01*
X206413776Y-74171231D01*
X206413775Y-74171230D01*
X206413773Y-74171227D01*
X206326852Y-74106158D01*
X206303574Y-74088732D01*
X206174606Y-74040630D01*
X206174601Y-74040629D01*
X206174599Y-74040628D01*
X206174595Y-74040628D01*
X206148818Y-74037857D01*
X206117592Y-74034500D01*
X205722408Y-74034500D01*
X205694943Y-74037452D01*
X205665404Y-74040628D01*
X205665393Y-74040630D01*
X205536425Y-74088732D01*
X205426231Y-74171223D01*
X205426223Y-74171231D01*
X205364253Y-74254013D01*
X205314244Y-74289266D01*
X205253065Y-74288392D01*
X205205747Y-74254013D01*
X205143776Y-74171231D01*
X205143775Y-74171230D01*
X205143773Y-74171227D01*
X205056852Y-74106158D01*
X205033574Y-74088732D01*
X204904606Y-74040630D01*
X204904601Y-74040629D01*
X204904599Y-74040628D01*
X204904595Y-74040628D01*
X204878818Y-74037857D01*
X204847592Y-74034500D01*
X204452408Y-74034500D01*
X204424943Y-74037452D01*
X204395404Y-74040628D01*
X204395393Y-74040630D01*
X204266424Y-74088733D01*
X204260211Y-74092126D01*
X204259483Y-74090794D01*
X204209255Y-74107909D01*
X204150801Y-74089832D01*
X204114136Y-74040849D01*
X204112223Y-74034560D01*
X204091392Y-73956814D01*
X204091390Y-73956810D01*
X204025503Y-73842690D01*
X204025499Y-73842685D01*
X203932314Y-73749499D01*
X203932314Y-73749500D01*
X203129496Y-72946682D01*
X203101719Y-72892165D01*
X203100500Y-72876678D01*
X203100500Y-72207912D01*
X203100499Y-72207900D01*
X203099166Y-72193233D01*
X203094315Y-72139843D01*
X203045512Y-71983230D01*
X203025856Y-71950716D01*
X203011933Y-71891136D01*
X203035689Y-71834751D01*
X203088050Y-71803098D01*
X203110579Y-71800500D01*
X203213097Y-71800500D01*
X203271288Y-71819407D01*
X203283101Y-71829496D01*
X203735320Y-72281715D01*
X203763097Y-72336232D01*
X203763979Y-72347445D01*
X203784953Y-72506758D01*
X203784955Y-72506766D01*
X203845460Y-72652838D01*
X203845460Y-72652839D01*
X203941711Y-72778276D01*
X203941716Y-72778282D01*
X204067157Y-72874536D01*
X204067158Y-72874536D01*
X204067159Y-72874537D01*
X204146505Y-72907403D01*
X204213236Y-72935044D01*
X204330807Y-72950522D01*
X204369997Y-72955682D01*
X204369998Y-72955682D01*
X204369999Y-72955682D01*
X204401505Y-72951534D01*
X204526760Y-72935044D01*
X204672839Y-72874536D01*
X204798280Y-72778282D01*
X204894534Y-72652841D01*
X204955042Y-72506762D01*
X204975680Y-72350000D01*
X204973867Y-72336232D01*
X204955042Y-72193241D01*
X204955042Y-72193238D01*
X204934645Y-72143996D01*
X204894535Y-72047161D01*
X204894535Y-72047160D01*
X204798284Y-71921723D01*
X204798283Y-71921722D01*
X204798280Y-71921718D01*
X204798275Y-71921714D01*
X204798274Y-71921713D01*
X204705111Y-71850227D01*
X204672839Y-71825464D01*
X204672838Y-71825463D01*
X204672836Y-71825462D01*
X204526764Y-71764957D01*
X204526756Y-71764955D01*
X204363565Y-71743471D01*
X204363792Y-71741743D01*
X204313526Y-71725411D01*
X204301713Y-71715322D01*
X204064602Y-71478211D01*
X203665911Y-71079520D01*
X203665908Y-71079518D01*
X203665907Y-71079517D01*
X203665906Y-71079516D01*
X203574589Y-71026794D01*
X203574591Y-71026794D01*
X203535068Y-71016204D01*
X203472725Y-70999500D01*
X203472723Y-70999500D01*
X203177649Y-70999500D01*
X203119458Y-70980593D01*
X203083494Y-70931093D01*
X203083132Y-70871048D01*
X203094313Y-70835165D01*
X203094315Y-70835156D01*
X203096250Y-70813865D01*
X203100500Y-70767094D01*
X203100500Y-69907906D01*
X203094315Y-69839843D01*
X203057076Y-69720340D01*
X203045514Y-69683236D01*
X203045509Y-69683224D01*
X202960650Y-69542850D01*
X202960649Y-69542849D01*
X202960648Y-69542847D01*
X202844653Y-69426852D01*
X202844650Y-69426850D01*
X202844649Y-69426849D01*
X202704275Y-69341990D01*
X202704263Y-69341985D01*
X202547662Y-69293186D01*
X202547656Y-69293184D01*
X202479599Y-69287000D01*
X202479594Y-69287000D01*
X201120406Y-69287000D01*
X201120400Y-69287000D01*
X201052343Y-69293184D01*
X201052337Y-69293186D01*
X200895736Y-69341985D01*
X200895724Y-69341990D01*
X200755350Y-69426849D01*
X200639349Y-69542850D01*
X200611321Y-69589216D01*
X200565037Y-69629233D01*
X200526599Y-69637000D01*
X199560086Y-69637000D01*
X199501895Y-69618093D01*
X199490082Y-69608004D01*
X199354496Y-69472418D01*
X199326719Y-69417901D01*
X199325500Y-69402414D01*
X199325500Y-68672213D01*
X199344407Y-68614022D01*
X199393907Y-68578058D01*
X199455093Y-68578058D01*
X199504593Y-68614022D01*
G37*
%TD.AperFunction*%
%TA.AperFunction,Conductor*%
G36*
X214551867Y-70626534D02*
G01*
X214574313Y-70683453D01*
X214574500Y-70689535D01*
X214574500Y-71185464D01*
X214555593Y-71243655D01*
X214506093Y-71279619D01*
X214444907Y-71279619D01*
X214439182Y-71277562D01*
X214391996Y-71258954D01*
X214331564Y-71235123D01*
X214313871Y-71232998D01*
X214243106Y-71224500D01*
X214243102Y-71224500D01*
X212856898Y-71224500D01*
X212856893Y-71224500D01*
X212768434Y-71235123D01*
X212622693Y-71292597D01*
X212586374Y-71299500D01*
X212038627Y-71299500D01*
X212002308Y-71292597D01*
X211938181Y-71267308D01*
X211890984Y-71228371D01*
X211875500Y-71175211D01*
X211875500Y-70719506D01*
X211894407Y-70661315D01*
X211938180Y-70627408D01*
X211988915Y-70607402D01*
X212025233Y-70600500D01*
X212649766Y-70600500D01*
X212686084Y-70607402D01*
X212722746Y-70621859D01*
X212768436Y-70639877D01*
X212856898Y-70650500D01*
X212856900Y-70650500D01*
X214243100Y-70650500D01*
X214243102Y-70650500D01*
X214331564Y-70639877D01*
X214439181Y-70597437D01*
X214500251Y-70593679D01*
X214551867Y-70626534D01*
G37*
%TD.AperFunction*%
%TA.AperFunction,Conductor*%
G36*
X212343571Y-62969407D02*
G01*
X212379535Y-63018907D01*
X212379535Y-63080093D01*
X212368260Y-63103647D01*
X212250827Y-63283393D01*
X212180378Y-63444002D01*
X212150937Y-63511120D01*
X212089891Y-63752180D01*
X212069357Y-64000000D01*
X212089891Y-64247819D01*
X212115641Y-64349500D01*
X212150937Y-64488881D01*
X212250827Y-64716607D01*
X212386836Y-64924785D01*
X212555256Y-65107738D01*
X212751491Y-65260474D01*
X212970190Y-65378828D01*
X213205386Y-65459571D01*
X213450665Y-65500500D01*
X213699335Y-65500500D01*
X213944614Y-65459571D01*
X214179810Y-65378828D01*
X214398509Y-65260474D01*
X214414693Y-65247877D01*
X214472225Y-65227056D01*
X214531009Y-65244028D01*
X214568591Y-65292311D01*
X214574500Y-65326002D01*
X214574500Y-68860464D01*
X214555593Y-68918655D01*
X214506093Y-68954619D01*
X214444907Y-68954619D01*
X214439182Y-68952562D01*
X214391996Y-68933954D01*
X214331564Y-68910123D01*
X214313871Y-68907998D01*
X214243106Y-68899500D01*
X214243102Y-68899500D01*
X212856898Y-68899500D01*
X212856893Y-68899500D01*
X212768434Y-68910123D01*
X212627660Y-68965637D01*
X212627655Y-68965640D01*
X212609534Y-68979383D01*
X212551743Y-68999479D01*
X212549714Y-68999500D01*
X212125286Y-68999500D01*
X212067095Y-68980593D01*
X212065466Y-68979383D01*
X212047344Y-68965640D01*
X212047339Y-68965637D01*
X211906565Y-68910123D01*
X211818106Y-68899500D01*
X211818102Y-68899500D01*
X211139743Y-68899500D01*
X211081552Y-68880593D01*
X211069739Y-68870504D01*
X210154497Y-67955262D01*
X210126720Y-67900745D01*
X210125501Y-67885258D01*
X210125501Y-65662045D01*
X210125502Y-65662032D01*
X210125502Y-65495944D01*
X210084578Y-65343216D01*
X210084577Y-65343215D01*
X210055640Y-65293095D01*
X210055640Y-65293094D01*
X210055638Y-65293092D01*
X210005525Y-65206290D01*
X210005522Y-65206287D01*
X210005521Y-65206285D01*
X209893717Y-65094481D01*
X209893714Y-65094479D01*
X209380521Y-64581286D01*
X209380520Y-64581284D01*
X209268716Y-64469480D01*
X209181904Y-64419360D01*
X209181903Y-64419359D01*
X209131788Y-64390425D01*
X209131785Y-64390423D01*
X208979057Y-64349499D01*
X208820943Y-64349499D01*
X208814880Y-64349499D01*
X208814864Y-64349500D01*
X203575840Y-64349500D01*
X203517649Y-64330593D01*
X203481685Y-64281093D01*
X203481685Y-64219907D01*
X203488530Y-64203832D01*
X203530602Y-64125119D01*
X203530605Y-64125114D01*
X203586385Y-63941231D01*
X203586386Y-63941226D01*
X203605220Y-63750003D01*
X203605220Y-63749996D01*
X203586386Y-63558773D01*
X203586385Y-63558768D01*
X203551571Y-63444002D01*
X203530605Y-63374886D01*
X203530602Y-63374880D01*
X203440030Y-63205430D01*
X203440025Y-63205423D01*
X203440023Y-63205419D01*
X203363605Y-63112304D01*
X203341306Y-63055328D01*
X203356755Y-62996125D01*
X203404052Y-62957310D01*
X203440134Y-62950500D01*
X212285380Y-62950500D01*
X212343571Y-62969407D01*
G37*
%TD.AperFunction*%
%TA.AperFunction,Conductor*%
G36*
X197785798Y-64269407D02*
G01*
X197806610Y-64291052D01*
X197806892Y-64290821D01*
X197809831Y-64294403D01*
X197809922Y-64294497D01*
X197809974Y-64294575D01*
X197809977Y-64294581D01*
X197809979Y-64294583D01*
X197931875Y-64443115D01*
X197931884Y-64443124D01*
X197987637Y-64488879D01*
X198080419Y-64565023D01*
X198080423Y-64565025D01*
X198080430Y-64565030D01*
X198249880Y-64655602D01*
X198249886Y-64655605D01*
X198377988Y-64694464D01*
X198433768Y-64711385D01*
X198433774Y-64711386D01*
X198550519Y-64722884D01*
X198603143Y-64728067D01*
X198659201Y-64752586D01*
X198690140Y-64805373D01*
X198684143Y-64866264D01*
X198679177Y-64876089D01*
X198640424Y-64943211D01*
X198640423Y-64943215D01*
X198599499Y-65095943D01*
X198599499Y-65254057D01*
X198640423Y-65406785D01*
X198640425Y-65406789D01*
X198641962Y-65410498D01*
X198649500Y-65448390D01*
X198649500Y-67235257D01*
X198630593Y-67293448D01*
X198620504Y-67305261D01*
X198585261Y-67340504D01*
X198530744Y-67368281D01*
X198515257Y-67369500D01*
X198201923Y-67369500D01*
X198172185Y-67372289D01*
X198172176Y-67372291D01*
X198046841Y-67416148D01*
X197940004Y-67494997D01*
X197939997Y-67495004D01*
X197861148Y-67601841D01*
X197852033Y-67627891D01*
X197814967Y-67676572D01*
X197756367Y-67694168D01*
X197725891Y-67688637D01*
X197622203Y-67652355D01*
X197622194Y-67652353D01*
X197591774Y-67649500D01*
X197591766Y-67649500D01*
X196308234Y-67649500D01*
X196308225Y-67649500D01*
X196277805Y-67652353D01*
X196277801Y-67652354D01*
X196233879Y-67667723D01*
X196172709Y-67669095D01*
X196122415Y-67634251D01*
X196102207Y-67576499D01*
X196107738Y-67541579D01*
X196110146Y-67534699D01*
X196112999Y-67504273D01*
X196113000Y-67504273D01*
X196113000Y-67095727D01*
X196112999Y-67095725D01*
X196111701Y-67081883D01*
X196110146Y-67065301D01*
X196065293Y-66937118D01*
X196007936Y-66859402D01*
X195984654Y-66827855D01*
X195984652Y-66827853D01*
X195984650Y-66827850D01*
X195984646Y-66827847D01*
X195984644Y-66827845D01*
X195875383Y-66747207D01*
X195747203Y-66702355D01*
X195747194Y-66702353D01*
X195716774Y-66699500D01*
X195716766Y-66699500D01*
X195674500Y-66699500D01*
X195616309Y-66680593D01*
X195580345Y-66631093D01*
X195575500Y-66600500D01*
X195575500Y-65798322D01*
X195594407Y-65740131D01*
X195604496Y-65728318D01*
X197053318Y-64279496D01*
X197107835Y-64251719D01*
X197123322Y-64250500D01*
X197727607Y-64250500D01*
X197785798Y-64269407D01*
G37*
%TD.AperFunction*%
%TA.AperFunction,Conductor*%
G36*
X208668448Y-65569407D02*
G01*
X208680261Y-65579496D01*
X208895505Y-65794740D01*
X208923282Y-65849257D01*
X208924501Y-65864744D01*
X208924501Y-67275860D01*
X208905594Y-67334051D01*
X208856094Y-67370015D01*
X208794908Y-67370015D01*
X208787617Y-67367325D01*
X208758495Y-67355262D01*
X208603844Y-67324500D01*
X208603842Y-67324500D01*
X208446157Y-67324500D01*
X208446154Y-67324500D01*
X208291504Y-67355262D01*
X208291503Y-67355262D01*
X208291502Y-67355263D01*
X208268827Y-67364655D01*
X208262206Y-67367398D01*
X208236126Y-67374227D01*
X208149407Y-67384641D01*
X208015027Y-67437634D01*
X208015023Y-67437637D01*
X207938308Y-67495812D01*
X207880517Y-67515907D01*
X207821951Y-67498196D01*
X207798834Y-67475717D01*
X207777655Y-67447021D01*
X207771423Y-67438577D01*
X207771422Y-67438576D01*
X207767889Y-67433789D01*
X207748547Y-67375742D01*
X207767018Y-67317411D01*
X207767889Y-67316212D01*
X207834754Y-67225613D01*
X207849381Y-67205794D01*
X207892741Y-67081879D01*
X207895500Y-67052457D01*
X207895499Y-66677544D01*
X207892741Y-66648121D01*
X207849381Y-66524206D01*
X207849380Y-66524204D01*
X207771427Y-66418581D01*
X207771418Y-66418572D01*
X207665795Y-66340619D01*
X207541883Y-66297260D01*
X207541874Y-66297258D01*
X207526137Y-66295782D01*
X207469966Y-66271523D01*
X207465379Y-66267219D01*
X206917664Y-65719504D01*
X206889887Y-65664987D01*
X206899458Y-65604555D01*
X206942723Y-65561290D01*
X206987668Y-65550500D01*
X208610257Y-65550500D01*
X208668448Y-65569407D01*
G37*
%TD.AperFunction*%
%TD*%
M02*
